<?xml version="1.0" encoding="utf-8"?>
<!-- Generator: Adobe Illustrator 27.3.1, SVG Export Plug-In . SVG Version: 6.00 Build 0)  -->
<svg version="1.1" id="Layer_1" xmlns="http://www.w3.org/2000/svg" xmlns:xlink="http://www.w3.org/1999/xlink" x="0px" y="0px"
	 viewBox="0 0 55 55" style="enable-background:new 0 0 55 55;" xml:space="preserve">
<style type="text/css">
	.st0{fill:#7F52FF;}
	.st1{fill:#FFFFFF;}
	.st2{fill:#FE2857;}
</style>
<g>
	<g>
		<g>
			<path class="st0" d="M39.6,25.8c-0.7,0-1.4-0.5-1.6-1.3c-0.2-0.9,0.3-1.8,1.2-2c0.1,0,5.8-1.4,8.8-4.6c3-3.1,3-8.1,3-8.1
				c0-0.9,0.7-1.6,1.6-1.7c0,0,0,0,0,0c0.9,0,1.6,0.7,1.7,1.6c0,0.3,0,6.3-3.9,10.4c-3.7,3.9-10.2,5.5-10.5,5.5
				C39.9,25.7,39.8,25.8,39.6,25.8z"/>
		</g>
		<g>
			<path class="st0" d="M2.2,40.4c-0.1,0-0.2,0-0.3,0c-0.9-0.2-1.5-1-1.3-1.9c0-0.2,0.7-4,3.5-8.1c3-4.5,7.3-7.6,7.5-7.7
				c0.7-0.5,1.8-0.4,2.3,0.4s0.4,1.8-0.4,2.3c0,0-4,2.9-6.7,6.9c-2.4,3.5-3,6.8-3,6.8C3.7,39.8,3,40.4,2.2,40.4z"/>
		</g>
		<g>
			<path class="st0" d="M14.4,32.9l24.8-1.7c1.9-0.1,3.4-1.8,3.3-3.7L41.1,7.8c-0.2-3.1-3.9-4.7-6.3-2.6l-8.5,7.4
				c-0.5,0.4-1.2,0.5-1.7,0.1l-9.4-6.2C12.5,4.8,9.1,6.9,9.3,10l1.4,19.6C10.8,31.6,12.5,33,14.4,32.9z"/>
		</g>
		<g>
			<g>
				<path class="st0" d="M19.3,50.8h-3.2c-0.9,0-1.7-0.7-1.7-1.7s0.7-1.7,1.7-1.7H18l4.2-16.6c0.2-0.9,1.1-1.4,2-1.2
					c0.9,0.2,1.4,1.1,1.2,2l-4.5,17.9C20.7,50.3,20.1,50.8,19.3,50.8z"/>
			</g>
			<g>
				<path class="st0" d="M35.6,50.8h-3.2c-0.8,0-1.4-0.5-1.6-1.2l-4.5-17.9c-0.2-0.9,0.3-1.8,1.2-2c0.9-0.2,1.8,0.3,2,1.2l4.2,16.6
					h1.9c0.9,0,1.7,0.7,1.7,1.7S36.5,50.8,35.6,50.8z"/>
			</g>
		</g>
		<g>
			<g>
				<g>
					<path d="M38.4,29l-23.5,1.6c-1.1,0.1-2.1-0.8-2.2-1.9l-0.8-11c-0.1-1.1,0.8-2.1,1.9-2.2l23.5-1.6c1.1-0.1,2.1,0.8,2.2,1.9
						l0.8,11C40.4,27.9,39.5,28.9,38.4,29z"/>
				</g>
			</g>
			<g>
				<g>
					<path class="st1" d="M20.1,18.8c1.7,0,3.2,1.3,3.3,3.1c0.1,1.8-1.2,3.4-3,3.5c-0.1,0-0.2,0-0.2,0c-1.7,0-3.2-1.3-3.3-3.1
						c-0.1-1.8,1.2-3.4,3-3.5C20,18.8,20,18.8,20.1,18.8 M20.1,16.9c-0.1,0-0.2,0-0.4,0c-2.8,0.2-5,2.6-4.8,5.5
						c0.2,2.7,2.4,4.8,5.1,4.8c0.1,0,0.2,0,0.4,0c2.8-0.2,5-2.6,4.8-5.5C25,19,22.8,16.9,20.1,16.9L20.1,16.9z"/>
				</g>
				<g>
					<path class="st1" d="M32.2,17.9c1.7,0,3.2,1.3,3.3,3.1c0.1,0.9-0.2,1.7-0.8,2.4c-0.6,0.7-1.4,1.1-2.2,1.1c-0.1,0-0.2,0-0.2,0
						c-1.7,0-3.2-1.3-3.3-3.1c-0.1-1.8,1.2-3.4,3-3.5C32,17.9,32.1,17.9,32.2,17.9 M32.2,16.1c-0.1,0-0.2,0-0.4,0
						c-2.8,0.2-5,2.6-4.8,5.5c0.2,2.7,2.4,4.8,5.1,4.8c0.1,0,0.2,0,0.4,0c2.8-0.2,5-2.6,4.8-5.5C37.1,18.2,34.9,16.1,32.2,16.1
						L32.2,16.1z"/>
				</g>
			</g>
			<g>
				<g>
					<g>
						<path class="st1" d="M25.6,28c0.9,0,1.8-0.4,2.4-1.1c0.1-0.1,0.1-0.4,0-0.5c-0.1-0.1-0.4-0.1-0.5,0c-0.1,0.1-0.1,0.1-0.2,0.2
							c0,0,0,0-0.1,0c0,0-0.1,0,0,0c0,0,0,0,0,0c0,0,0,0-0.1,0c-0.1,0.1-0.2,0.1-0.3,0.2c0,0-0.1,0-0.1,0.1c0,0,0,0-0.1,0
							c0,0-0.1,0-0.1,0c0,0,0,0,0,0c0,0,0,0-0.1,0c0,0-0.1,0-0.1,0c-0.1,0-0.2,0.1-0.3,0.1c0,0-0.1,0-0.1,0c0,0,0,0-0.1,0
							c0,0,0,0,0,0c-0.1,0-0.2,0-0.3,0c-0.2,0-0.4,0.2-0.4,0.4C25.2,27.8,25.4,28,25.6,28L25.6,28z"/>
					</g>
				</g>
			</g>
		</g>
	</g>
</g>
</svg>
