<?xml version="1.0" encoding="utf-8"?>
<!-- Generator: Adobe Illustrator 24.1.2, SVG Export Plug-In . SVG Version: 6.00 Build 0)  -->
<svg version="1.1" id="Layer_1" xmlns="http://www.w3.org/2000/svg" xmlns:xlink="http://www.w3.org/1999/xlink" x="0px" y="0px"
	 viewBox="0 0 858 304" style="enable-background:new 0 0 858 304;" xml:space="preserve">
<style type="text/css">
	.st0{fill:#FFFFFF;}
	.st1{fill:#004DCC;}
	.st2{fill:none;stroke:#27282C;stroke-opacity:0.2;}
	.st3{fill:#1E1E1F;}
	.st4{fill:none;}
	.st5{clip-path:url(#SVGID_2_);}
	.st6{clip-path:url(#SVGID_4_);}
	.st7{enable-background:new    ;}
	.st8{fill:#1D1D1B;}
	.st9{fill:#FB9600;}
	.st10{font-family:'JetBrainsMono-Medium';}
	.st11{font-size:17.8997px;}
</style>
<circle class="st0" cx="773" cy="85" r="85"/>
<path class="st1" d="M825.7,85.6l-38-12.5l14.5-37.4c1.2-3.5,0.3-7.3-2.5-9.7c-2.8-2.5-6.6-3.1-9.9-1.5l-59.4,27.7l0,0
	c-2.2,1-3.9,2.9-4.7,5.1c-0.8,2.3-0.7,4.8,0.3,7l28.9,61.3c2.1,4.5,7.6,6.5,12.1,4.4l59.3-27.7c3.4-1.6,5.4-4.8,5.3-8.5
	C831.4,90.2,829.2,87,825.7,85.6L825.7,85.6z"/>
<circle class="st2" cx="773" cy="85" r="84.5"/>
<path class="st3" d="M689.7,203l1-2.9h4.1l1,2.9h1.3l-3.7-10.2h-1.3l-3.7,10.2H689.7z M691.1,199l1.6-4.6h0.1l1.6,4.6H691.1z
	 M703.8,195.4h-1.3l-2.1,6.1h-0.1l-2.1-6.1H697l2.8,7.6h1.2L703.8,195.4z M707.4,203.2c1.3,0,2-0.7,2.3-1.2h0.1v1h1.2v-5
	c0-2.4-1.8-2.7-2.8-2.7c-1.2,0-2.5,0.4-3.1,1.8l1.1,0.4c0.3-0.6,0.9-1.2,2-1.2s1.6,0.6,1.6,1.6l0,0c0,0.6-0.6,0.5-2,0.7
	s-3,0.5-3,2.2C704.8,202.3,705.9,203.2,707.4,203.2z M707.6,202.1c-0.9,0-1.6-0.4-1.6-1.2c0-0.9,0.8-1.2,1.7-1.3
	c0.5-0.1,1.8-0.2,2-0.4v1.1C709.7,201.2,709,202.1,707.6,202.1z M716.3,195.4h-1.6v-1.8h-1.2v1.8h-1.2v1h1.2v4.8c0,1.3,1.1,2,2.1,2
	c0.4,0,0.7-0.1,0.9-0.1l-0.2-1.1c-0.1,0-0.3,0.1-0.5,0.1c-0.5,0-1-0.2-1-1.2v-4.5h1.6L716.3,195.4L716.3,195.4z M720.4,203.2
	c1.3,0,2-0.7,2.3-1.2h0.1v1h1.2v-5c0-2.4-1.8-2.7-2.8-2.7c-1.2,0-2.5,0.4-3.1,1.8l1.1,0.4c0.3-0.6,0.9-1.2,2-1.2s1.6,0.6,1.6,1.6
	l0,0c0,0.6-0.6,0.5-2,0.7s-3,0.5-3,2.2C717.8,202.3,718.9,203.2,720.4,203.2z M720.5,202.1c-0.9,0-1.6-0.4-1.6-1.2
	c0-0.9,0.8-1.2,1.7-1.3c0.5-0.1,1.8-0.2,2-0.4v1.1C722.7,201.2,721.9,202.1,720.5,202.1z M726,203h1.2v-4.8c0-1,0.8-1.8,1.9-1.8
	c0.3,0,0.6,0.1,0.7,0.1v-1.2c-0.1,0-0.4,0-0.6,0c-0.9,0-1.7,0.5-2,1.3h-0.1v-1.2H726V203z"/>
<path class="st3" d="M11.4,289.2c-0.4-2.1-2-3.3-4.1-3.3c-2.6,0-4.5,2-4.5,5.2s1.9,5.2,4.5,5.2c2,0,3.7-1.2,4.1-3.3h-1.2
	c-0.3,1.4-1.5,2.2-2.9,2.2c-1.8,0-3.3-1.4-3.3-4.1s1.5-4.1,3.3-4.1c1.4,0,2.6,0.8,2.9,2.2L11.4,289.2L11.4,289.2z M16.4,296.4
	c2.1,0,3.5-1.6,3.5-3.9c0-2.4-1.4-4-3.5-4s-3.5,1.6-3.5,4C12.9,294.8,14.3,296.4,16.4,296.4z M16.4,295.3c-1.6,0-2.3-1.4-2.3-2.9
	s0.7-2.9,2.3-2.9s2.3,1.4,2.3,2.9C18.6,294,17.9,295.3,16.4,295.3z M27.6,288.6h-1.3l-2.1,6.1h-0.1l-2.1-6.1h-1.3l2.8,7.6h1.2
	L27.6,288.6z M32.1,296.4c1.6,0,2.7-0.8,3-1.9l-1.1-0.3c-0.3,0.8-1,1.2-1.9,1.2c-1.4,0-2.3-0.9-2.4-2.5h5.5v-0.5
	c0-2.8-1.7-3.8-3.3-3.8c-2.1,0-3.4,1.6-3.4,4C28.5,294.8,29.9,296.4,32.1,296.4z M29.7,291.8c0.1-1.2,0.9-2.2,2.3-2.2
	c1.3,0,2.1,1,2.1,2.2H29.7z M37,296.2h1.2v-4.8c0-1,0.8-1.8,1.9-1.8c0.3,0,0.6,0.1,0.7,0.1v-1.2c-0.1,0-0.4,0-0.6,0
	c-0.9,0-1.7,0.5-2,1.3h-0.1v-1.2H37V296.2z"/>
<path class="st4" d="M4,0h647c2.2,0,4,1.8,4,4v255.2c0,2.2-1.8,4-4,4H4c-2.2,0-4-1.8-4-4V4C0,1.8,1.8,0,4,0z"/>
<g>
	<g>
		<g>
			<g>
				<g>
					<g>
						<defs>
							<path id="SVGID_1_" d="M4,0.5h647c1.9,0,3.5,1.6,3.5,3.5v255.2c0,1.9-1.6,3.5-3.5,3.5H4c-1.9,0-3.5-1.6-3.5-3.5V4
								C0.5,2.1,2.1,0.5,4,0.5z"/>
						</defs>
						<clipPath id="SVGID_2_">
							<use xlink:href="#SVGID_1_"  style="overflow:visible;"/>
						</clipPath>
						<g class="st5">
							<g>
								<g>
									<g>
										<g>
											<g>
												<g>
													<defs>
														<rect id="SVGID_3_" x="8.6" y="4.3" width="654.2" height="262.5"/>
													</defs>
													<clipPath id="SVGID_4_">
														<use xlink:href="#SVGID_3_"  style="overflow:visible;"/>
													</clipPath>
													<g class="st6">
														<rect x="8.6" y="4.3" class="st0" width="654.2" height="262.5"/>
														<rect x="31.9" y="34.8" class="st4" width="593.9" height="205.2"/>
														<g class="st7">
															<path class="st8" d="M151.7,71.8c0-3.2,0.5-6.1,1.6-8.8c1.1-2.6,2.6-4.9,4.6-6.7c2-1.9,4.3-3.3,7.1-4.3
																s5.9-1.5,9.4-1.5c7,0,12.5,1.9,16.6,5.7s6.2,9,6.2,15.6v13.6c0,6.6-2,11.8-6.1,15.6c-4.1,3.8-9.6,5.8-16.6,5.8
																c-3.5,0-6.6-0.5-9.4-1.5c-2.8-1-5.2-2.5-7.1-4.3c-2-1.9-3.5-4.1-4.6-6.7s-1.6-5.5-1.6-8.8L151.7,71.8L151.7,71.8z
																 M162.5,85.3c0,3.7,1,6.6,3.1,8.7s5,3.2,8.8,3.2c3.7,0,6.6-1,8.7-3.2c2.1-2.1,3.2-5,3.2-8.7V71.8
																c0-3.7-1.1-6.6-3.2-8.7c-2.1-2.1-5-3.2-8.7-3.2s-6.6,1-8.7,3.2c-2.1,2.1-3.2,5-3.2,8.7L162.5,85.3L162.5,85.3z"/>
															<path class="st8" d="M209.1,51.5h15.3V34.8h10.8v16.7h20.9v9.7h-20.9V90c0,1.8,0.5,3.3,1.6,4.3s2.6,1.5,4.5,1.5h13.8
																v9.7h-14.3c-5.1,0-9.1-1.4-12-4.2c-3-2.8-4.4-6.6-4.4-11.3V61.2h-15.3L209.1,51.5L209.1,51.5z"/>
															<path class="st8" d="M294.8,34.8V89c0,2.2,0.6,3.9,1.8,5.1c1.2,1.2,2.8,1.8,4.9,1.8h16.1v9.7h-16.5
																c-5.3,0-9.5-1.5-12.6-4.4c-3.1-3-4.6-7-4.6-12.2V44.6h-17.5v-9.8C266.4,34.8,294.8,34.8,294.8,34.8z"/>
															<path class="st8" d="M330.8,105.6v-9.8h19.6V61.2h-17.1v-9.7H361v44.3h15.9v9.8C376.9,105.6,330.8,105.6,330.8,105.6
																z M353.5,30.3h2c2,0,3.7,0.6,4.9,1.7c1.2,1.1,1.8,2.7,1.8,4.6s-0.6,3.4-1.8,4.5c-1.2,1.1-2.8,1.7-4.9,1.7h-2
																c-2,0-3.7-0.6-4.9-1.7c-1.2-1.1-1.9-2.6-1.9-4.5s0.6-3.4,1.9-4.6C349.8,30.9,351.5,30.3,353.5,30.3z"/>
															<path class="st8" d="M399.2,51.5v9.4h0.9c0.7-3.3,2.3-5.9,4.8-7.7s5.7-2.7,9.6-2.7c5.6,0,10,1.8,13.1,5.4
																c3.1,3.6,4.7,8.3,4.7,14.1v35.6h-10.8V71.5c0-3.7-1-6.6-2.9-8.7c-1.9-2-4.5-3.1-7.9-3.1s-6.1,1.1-8.1,3.2
																c-2,2.2-3,5.1-3,8.9v33.8h-10.8V51.5H399.2z"/>
														</g>
														<g class="st7">
															<path class="st8" d="M52.9,165.2l17.5,47.4c0.5,1.1,0.9,2.4,1.2,3.9c0.4,1.5,0.7,2.9,1,4.2c0.4,1.6,0.8,3.3,1.1,4.9
																h1c-0.2-1.8-0.4-3.4-0.5-4.8c-0.2-1.4-0.3-3-0.4-4.7s-0.2-3.5-0.2-5.2v-45.7h9.9v70.9H70l-17.2-47.5
																c-0.5-1.3-1-2.7-1.4-4.2s-0.8-2.9-1.1-4.2c-0.3-1.5-0.7-3-1-4.5h-1c0.2,1.4,0.4,3,0.5,4.5c0.1,1.3,0.2,2.8,0.3,4.6
																c0.1,1.7,0.1,3.6,0.1,5.5v45.9h-9.9v-70.9h13.6C52.9,165.3,52.9,165.2,52.9,165.2z"/>
															<path class="st8" d="M99.6,236v-9.8h19.6v-34.6h-17.1v-9.7h27.7v44.3h15.9v9.8L99.6,236L99.6,236z M122.4,160.7h2
																c2,0,3.7,0.6,4.9,1.7c1.2,1.1,1.8,2.7,1.8,4.6c0,1.9-0.6,3.4-1.8,4.5s-2.8,1.7-4.9,1.7h-2c-2,0-3.7-0.6-4.9-1.7
																c-1.2-1.1-1.9-2.6-1.9-4.5s0.6-3.4,1.9-4.6C118.7,161.3,120.3,160.7,122.4,160.7z"/>
															<path class="st8" d="M156.4,201.7c0-6.4,1.7-11.4,5-15.2s7.9-5.6,13.6-5.6c4,0,7.3,1,10,2.9s4.4,4.6,5.2,8h0.7v-9.9
																h10.3v50.9c0,6.2-2,11-5.9,14.6s-9.3,5.4-16,5.4h-14v-9.4h14c3.5,0,6.2-0.9,8.2-2.8c2-1.9,3-4.5,3-7.8v-1.9l0.4-9.8
																h-0.6c-0.8,3.4-2.5,6.1-5.2,8s-6,2.9-10,2.9c-5.6,0-10.1-1.9-13.5-5.7c-3.3-3.8-5-8.8-5-15.2v-9.4H156.4z
																 M167.4,210.9c0,3.6,1,6.4,3.1,8.5s4.9,3.1,8.4,3.1s6.3-1,8.4-3.1s3.1-4.9,3.1-8.5v-9c0-3.6-1-6.4-3.1-8.5
																s-4.9-3.1-8.4-3.1s-6.3,1-8.4,3.1s-3.1,4.9-3.1,8.5V210.9z"/>
															<path class="st8" d="M216.9,165.2h10.8v16.7c0,0.9,0,1.9-0.1,3s-0.1,2.1-0.2,3.1c-0.1,1-0.2,2.1-0.2,3.3h0.9
																c0.7-3.3,2.3-5.8,4.9-7.6c2.5-1.8,5.7-2.7,9.6-2.7c5.4,0,9.8,1.8,13,5.3s4.8,8.3,4.8,14.2v35.6h-10.8v-34.2
																c0-3.7-1-6.5-2.9-8.6s-4.5-3.1-7.9-3.1s-6.1,1.1-8.1,3.2c-2,2.2-3,5.1-3,8.9v33.8h-10.8V165.2z"/>
															<path class="st8" d="M273.3,181.9h15.3v-16.7h10.8v16.7h20.9v9.7h-20.9v28.8c0,1.8,0.5,3.3,1.6,4.3s2.6,1.5,4.5,1.5
																h13.8v9.7H305c-5.1,0-9.1-1.4-12-4.2c-3-2.8-4.4-6.6-4.4-11.3v-28.8h-15.3L273.3,181.9L273.3,181.9z"/>
															<path class="st8" d="M437.9,184.5c0,5.1-1.4,10-4.1,14.6s-7.1,9.5-13.2,14.6l-11,9.4c-0.5,0.4-1.1,0.8-1.7,1.1
																c-0.6,0.4-1.1,0.7-1.7,1s-1.2,0.6-1.8,0.9v0.4c1-0.1,2-0.1,3-0.1c0.9-0.1,1.9-0.1,2.9-0.1s2,0,3,0h25.4v9.7h-46.2
																v-11.6l20.9-17.3c4.9-4.1,8.3-7.8,10.4-11.3c2.1-3.4,3.1-7.1,3.1-11c0-3.4-1-6.1-3.1-8.1c-2-2-4.8-3-8.3-3
																c-3.7,0-6.8,1-9.1,3c-2.3,2-3.4,4.6-3.4,7.9h-11c0.1-3.1,0.7-5.9,1.8-8.4c1.1-2.5,2.8-4.6,4.8-6.4
																c2.1-1.8,4.5-3.2,7.4-4.1c2.9-1,6.1-1.5,9.5-1.5c3.3,0,6.4,0.5,9.1,1.4c2.7,1,5.1,2.3,7,4.1c2,1.8,3.5,3.9,4.5,6.4
																C437.4,178.6,437.9,181.4,437.9,184.5z"/>
															<path class="st8" d="M452.2,215.6v-29.9c0-3.3,0.5-6.2,1.6-8.9c1.1-2.6,2.6-4.9,4.6-6.7c2-1.9,4.3-3.3,7.1-4.3
																c2.8-1,5.9-1.5,9.4-1.5s6.6,0.5,9.4,1.5s5.2,2.5,7.1,4.3c2,1.9,3.5,4.1,4.5,6.7c1,2.6,1.6,5.6,1.6,8.9v29.9
																c0,6.5-2.1,11.7-6.2,15.6c-4.1,3.9-9.6,5.9-16.5,5.9c-3.5,0-6.6-0.5-9.4-1.5s-5.2-2.5-7.1-4.3
																c-2-1.9-3.5-4.1-4.6-6.8S452.2,218.8,452.2,215.6z M462.4,215.4c0,3.7,1.1,6.7,3.4,9s5.3,3.4,9.1,3.4
																c3.7,0,6.7-1.1,9-3.4c2.3-2.3,3.4-5.3,3.4-9v-29.5c0-3.7-1.1-6.7-3.4-9s-5.3-3.4-9-3.4s-6.8,1.1-9.1,3.4
																c-2.3,2.3-3.4,5.3-3.4,9V215.4z M470,198.6c0-1.6,0.4-3,1.3-3.9s2.1-1.5,3.6-1.5s2.7,0.5,3.6,1.5s1.3,2.3,1.3,3.9
																v3.9c0,1.6-0.4,3-1.3,3.9c-0.9,1-2.1,1.5-3.6,1.5s-2.7-0.5-3.6-1.5s-1.3-2.3-1.3-3.9V198.6z"/>
															<path class="st8" d="M556,184.5c0,5.1-1.4,10-4.1,14.6c-2.7,4.6-7.1,9.5-13.2,14.6l-11,9.4c-0.5,0.4-1.1,0.8-1.7,1.1
																c-0.6,0.4-1.1,0.7-1.7,1c-0.6,0.3-1.2,0.6-1.8,0.9v0.4c1-0.1,2-0.1,3-0.1c0.9-0.1,1.9-0.1,2.9-0.1s2,0,3,0h25.4v9.7
																h-46.2v-11.6l20.9-17.3c4.9-4.1,8.3-7.8,10.4-11.3c2.1-3.4,3.1-7.1,3.1-11c0-3.4-1-6.1-3.1-8.1s-4.8-3-8.3-3
																c-3.7,0-6.8,1-9.1,3s-3.4,4.6-3.4,7.9h-11c0.1-3.1,0.7-5.9,1.8-8.4s2.8-4.6,4.8-6.4c2.1-1.8,4.5-3.2,7.4-4.1
																c2.9-1,6.1-1.5,9.5-1.5c3.3,0,6.4,0.5,9.1,1.4c2.7,1,5.1,2.3,7,4.1c2,1.8,3.5,3.9,4.5,6.4
																C555.5,178.6,556,181.4,556,184.5z"/>
															<path class="st8" d="M615.7,184.5c0,5.1-1.4,10-4.1,14.6c-2.7,4.6-7.1,9.5-13.2,14.6l-11,9.4
																c-0.5,0.4-1.1,0.8-1.7,1.1c-0.6,0.4-1.1,0.7-1.7,1c-0.6,0.3-1.2,0.6-1.8,0.9v0.4c1-0.1,2-0.1,3-0.1
																c0.9-0.1,1.9-0.1,2.9-0.1s2,0,3,0h25.4v9.7h-46.2v-11.6l20.9-17.3c4.9-4.1,8.3-7.8,10.4-11.3c2.1-3.4,3.1-7.1,3.1-11
																c0-3.4-1-6.1-3.1-8.1s-4.8-3-8.3-3c-3.7,0-6.8,1-9.1,3s-3.4,4.6-3.4,7.9h-11c0.1-3.1,0.7-5.9,1.8-8.4
																s2.8-4.6,4.8-6.4c2.1-1.8,4.5-3.2,7.4-4.1c2.9-1,6.1-1.5,9.5-1.5c3.3,0,6.4,0.5,9.1,1.4c2.7,1,5.1,2.3,7,4.1
																c2,1.8,3.5,3.9,4.5,6.4C615.2,178.6,615.7,181.4,615.7,184.5z"/>
														</g>
														<g>
															<path class="st1" d="M442.8,207.3L442.8,207.3L442.8,207.3L333,191.2c-12.7-1.9-24.6,7-26.4,19.7
																c-1.9,12.7,7,24.6,19.6,26.4L436,253.4c12.7,1.9,24.6-7,26.4-19.7C464.3,221,455.5,209.2,442.8,207.3z"/>
															<g>
																<path class="st9" d="M453.2,220.1c-2.7-3.7-6.7-6.1-11.3-6.7l0,0l-109.8-16.2c-9.4-1.4-18.1,5.1-19.5,14.5
																	s5.1,18.1,14.5,19.5l0,0l108.6,15.9c0.3,0.1,0.6,0.1,0.9,0.2l0,0c1.2,0.2,2.3,0.2,3.5,0.2c3.4-0.1,6.7-1.3,9.5-3.4
																	c3.7-2.7,6.1-6.7,6.7-11.3C457.1,228.3,455.9,223.8,453.2,220.1z M327.3,230.2L327.3,230.2
																	c-8.8-1.3-14.9-9.5-13.6-18.3s9.5-14.9,18.3-13.6l104,15.2c-7,1.3-12.6,6.9-13.7,14.3c-1.1,7.2,2.6,14.1,8.6,17.4
																	L327.3,230.2z M448.7,243.3c-2.5,1.9-5.5,2.9-8.6,3.1c-1,0-2.1,0-3.1-0.1l-1.2-0.2c-8.2-1.7-13.8-9.6-12.6-18
																	c1.3-8.8,9.5-14.8,18.2-13.6l0,0c4.2,0.6,8,2.9,10.5,6.3c2.6,3.4,3.6,7.7,3,11.9
																	C454.4,236.9,452.2,240.7,448.7,243.3z"/>
																<path class="st9" d="M423.1,215.3l-9-1.3c-0.3,0-0.6,0.2-0.6,0.5s0.2,0.6,0.5,0.6l1.8,0.3l-5.6,23.6
																	c0,0.1,0,0.3,0.1,0.4c0.1,0.1,0.2,0.2,0.4,0.2l6.9,1c0.3,0,0.6-0.2,0.6-0.5s-0.2-0.6-0.5-0.6l-6.3-0.9l2.9-12.1
																	l4.8,0.7c0.3,0,0.6-0.2,0.6-0.5s-0.2-0.6-0.5-0.6l-4.7-0.7l2.4-10l6.1,0.9c0.3,0,0.6-0.2,0.6-0.5
																	C423.6,215.6,423.4,215.3,423.1,215.3z"/>
																<path class="st9" d="M375.3,208.2l-9.2-1.4c-0.3,0-0.6,0.2-0.6,0.5s0.2,0.6,0.5,0.6l3.9,0.6l-5.5,23.6
																	c-0.1,0.3,0.1,0.6,0.4,0.7l0,0c0.3,0,0.5-0.1,0.6-0.4l5.6-23.7l4.3,0.6c0.3,0,0.6-0.2,0.6-0.5
																	C375.8,208.5,375.5,208.2,375.3,208.2z"/>
																<path class="st9" d="M390.6,210.3c-0.3-0.1-0.6,0-0.7,0.3l-9.7,21.2l0.6-22.5c0-0.3-0.2-0.5-0.5-0.6
																	c-0.3,0-0.5,0.1-0.6,0.4l-5.7,24.4c-0.1,0.3,0.1,0.6,0.4,0.7c0.3,0.1,0.6-0.1,0.7-0.4l4.5-19.3l-0.5,19.9
																	c0,0.3,0.2,0.5,0.4,0.5c0.2,0.1,0.5-0.1,0.6-0.3l8.6-18.7l-4.5,19.1c-0.1,0.3,0.1,0.6,0.4,0.7l0,0
																	c0.3,0,0.5-0.1,0.6-0.4l5.7-24.4C391,210.6,390.9,210.4,390.6,210.3z"/>
																<path class="st9" d="M447.9,222.5c-0.3-0.1-0.6,0.1-0.7,0.4l-3.1,13.2l-1.3-13.9c0-0.3-0.2-0.5-0.5-0.5
																	s-0.5,0.2-0.6,0.4l-3.9,16.4c-0.1,0.3,0.1,0.6,0.4,0.7c0.3,0.1,0.6-0.1,0.7-0.4l3.1-13.2l1.3,13.9l0,0
																	c0,0,0,0,0,0.1v0.1c0,0,0,0,0,0.1l0.1,0.1c0,0,0,0,0.1,0c0,0,0.1,0,0.1,0.1l0,0l0,0l0,0l0,0l0,0l0,0h0.1l0,0h0.1
																	h0.1c0,0,0.1,0,0.1-0.1c0,0,0,0,0.1-0.1c0,0,0-0.1,0.1-0.1v-0.1l0,0l3.9-16.4C448.4,222.9,448.2,222.6,447.9,222.5z
																	"/>
																<path class="st9" d="M408.8,213.1l-3.3-0.5l0,0l-2.8-0.4c-0.3,0-0.6,0.2-0.6,0.5s0.2,0.6,0.5,0.6l2.2,0.3l-5.6,23.6
																	c0,0.1,0,0.3,0.1,0.4c0.1,0.1,0.2,0.2,0.4,0.2l3.9,0.6c2.1,0.3,4.1-1,4.6-3.1l4.1-17.2c0.3-1.1,0-2.3-0.6-3.3
																	C411,214,409.9,213.3,408.8,213.1z M407.1,235.1c-0.4,1.6-1.8,2.6-3.4,2.3l-3.3-0.5l5.5-23.2l2.8,0.4
																	c0.9,0.1,1.6,0.6,2.1,1.3s0.6,1.6,0.4,2.4L407.1,235.1z"/>
																<path class="st9" d="M397.8,211.3c-2.1-0.3-4.1,1-4.6,3.1l-4.1,17.2c-0.3,1.1,0,2.3,0.6,3.3s1.7,1.6,2.8,1.8
																	c2.1,0.3,4.1-1,4.6-3.1l4.1-17.2c0.3-1.1,0-2.3-0.6-3.3S399,211.5,397.8,211.3z M396.1,233.3
																	c-0.4,1.6-1.8,2.6-3.4,2.3c-0.9-0.1-1.6-0.6-2.1-1.3s-0.6-1.6-0.4-2.4l4.1-17.2c0.4-1.6,1.8-2.6,3.4-2.3
																	c0.9,0.1,1.6,0.6,2.1,1.3s0.6,1.6,0.4,2.4L396.1,233.3z"/>
																<path class="st9" d="M436.5,220.9c-1.5-0.2-3,0.7-3.3,2.3l-2.7,11.6c-0.2,0.8,0,1.7,0.4,2.3c0.5,0.7,1.2,1.1,2,1.3
																	c1.5,0.2,3-0.7,3.3-2.3l2.7-11.6c0.2-0.8,0-1.7-0.4-2.3C438,221.5,437.3,221,436.5,220.9z M435.2,235.8
																	c-0.2,1-1.1,1.6-2.1,1.4c-0.5-0.1-1-0.4-1.3-0.8c-0.3-0.4-0.4-1-0.3-1.5l2.7-11.6c0.2-0.9,1.1-1.6,2.1-1.4
																	c0.5,0.1,1,0.4,1.3,0.8c0.3,0.4,0.4,1,0.3,1.5L435.2,235.8z"/>
																<path class="st9" d="M333,202l-3.2-0.5h-0.1l0,0l0,0l0,0c-0.1,0-0.1,0-0.2,0l-1.9-0.3c-0.3,0-0.6,0.2-0.6,0.5
																	s0.2,0.6,0.5,0.6l0,0l1.5,0.2l-0.1,0.3l-5.5,23.3l0,0l0,0c0,0.1,0,0.3,0.1,0.4c0.1,0.1,0.2,0.2,0.4,0.2l4.2,0.6
																	c1.9,0.3,3.7-1,4.1-2.8l1.6-7.2c0.2-1,0-2-0.5-2.9c-0.2-0.2-0.4-0.5-0.6-0.6c1.1-0.4,1.9-1.3,2.2-2.5l1.2-4.9
																	c0.2-1,0-2-0.5-2.9C334.9,202.7,334,202.1,333,202z M332.7,217.1l-1.6,7.2c-0.3,1.3-1.6,2.2-2.9,2l-3.6-0.5
																	l2.9-12.2l3.1,0.5c0.7,0.1,1.3,0.5,1.7,1.1C332.7,215.7,332.8,216.4,332.7,217.1z M333.8,211.1
																	c-0.3,1.3-1.5,2.1-2.9,1.9l0,0l-3.2-0.5l2.3-9.9l2.8,0.4c0.7,0.1,1.3,0.5,1.7,1.1c0.4,0.6,0.5,1.3,0.4,2
																	L333.8,211.1z"/>
																<path class="st9" d="M361.3,205.9c-2-0.3-3.9,1-4.4,3l-0.3,1.4c-0.4,1.5-0.2,3.1,0.5,4.5l3,5.6
																	c0.6,1.1,0.7,2.4,0.5,3.7l-1,4.4c-0.3,1.4-1.8,2.4-3.4,2.2c-0.9-0.1-1.7-0.6-2.1-1.3c-0.5-0.7-0.6-1.5-0.4-2.3
																	l0.8-3.6c0.1-0.3-0.1-0.6-0.4-0.6c-0.3-0.1-0.6,0.1-0.6,0.4l-0.8,3.6c-0.3,1.1-0.1,2.3,0.6,3.2
																	c0.6,0.9,1.6,1.5,2.9,1.7c2.1,0.3,4.1-1.1,4.6-3l1-4.4c0.3-1.5,0.1-3-0.6-4.4l-3-5.6c-0.6-1.1-0.8-2.5-0.4-3.7
																	l0.3-1.4c0.4-1.5,1.7-2.4,3.2-2.2c0.8,0.1,1.5,0.6,2,1.2c0.5,0.7,0.6,1.5,0.4,2.3l-0.6,2.4
																	c-0.1,0.3,0.1,0.6,0.4,0.6c0.3,0.1,0.6-0.1,0.6-0.4l0.6-2.4c0.2-1.1,0-2.2-0.6-3.1
																	C363.4,206.7,362.5,206.1,361.3,205.9z"/>
																<path class="st9" d="M354.8,220.2c0-0.3-0.2-0.6-0.5-0.6l-3.1-0.5l3.5-13.3c0-0.1,0-0.3-0.1-0.4
																	c-0.1-0.1-0.2-0.2-0.4-0.2l-2.2-0.3c-0.2,0-0.5,0.1-0.6,0.3l-11.5,23l-5-0.7l2.9-12.2l4.7,0.7
																	c0.3,0,0.6-0.2,0.6-0.5s-0.2-0.6-0.5-0.6l-4.6-0.7l2.3-9.9l6.2,0.9c0.3,0,0.6-0.2,0.6-0.5s-0.2-0.6-0.5-0.6
																	l-8.6-1.3c-0.3,0-0.6,0.2-0.6,0.5s0.2,0.6,0.5,0.6l1.3,0.2l-5.5,23.7c0,0.1,0,0.3,0.1,0.4c0.1,0.1,0.2,0.2,0.4,0.2
																	l6,0.9l0,0c0.2,0,0.5-0.1,0.6-0.3l0,0l4.8-9.5c0,0,0.1,0,0.1,0.1l4.2,0.6l-2.5,9.6c-0.1,0.3,0.1,0.6,0.4,0.7
																	c0,0,0,0,0.1,0c0.3,0,0.5-0.1,0.6-0.4l2.5-9.7l3.3,0.5C354.5,220.7,354.8,220.5,354.8,220.2z M350.1,219l-4.1-0.6
																	l6.2-12.4l1.2,0.2L350.1,219z"/>
															</g>
														</g>
														<g>
															<g>
																<path class="st1" d="M158.7,98l-32-22.9l24.6-30.8c2.2-3,2.4-6.7,0.5-9.9c-1.9-3.1-5.3-4.8-8.9-4.3l-63.8,8.6l0,0
																	l0,0c-2.4,0.3-4.5,1.6-5.9,3.5c-1.5,1.9-2.1,4.3-1.7,6.6l9.1,66c0.7,4.9,5.2,8.3,10.1,7.7l63.7-8.6
																	c3.6-0.5,6.5-3,7.4-6.5S161.6,100.3,158.7,98L158.7,98z"/>
															</g>
															<path class="st9" d="M87.7,114.8L87.7,114.8c0.1,0.1,0.1,0.2,0.2,0.3l0,0l0,0l0,0l0.1,0.1c0.1,0,0.2,0,0.2,0
																l67.1-9.2c0.3,0,0.5-0.2,0.5-0.5c0.1-0.3,0-0.5-0.2-0.7l-39-27.9l29.7-39.5c0.2-0.2,0.2-0.5,0-0.7
																c-0.1-0.2-0.4-0.3-0.6-0.3l-67.1,9.2c-0.4,0-0.6,0.4-0.5,0.7l9.4,68.3C87.7,114.8,87.7,114.8,87.7,114.8z M153.7,105
																l-64,8.8L116,78L153.7,105z M88.7,113l-4.5-32.6l28.3-38l32-4.4l-29.2,38.8l0,0L88.7,113z M84,78.5l-4.4-31.7
																l31.1-4.3L84,78.5z"/>
														</g>
														<g>
															<path class="st9" d="M329.4,134.6c0.3-3.5-0.7-6.9-2.9-9.6l-0.3-0.4c-0.1-0.1-0.2-0.3-0.3-0.4
																c0.6-1.4,1.1-2.8,1.2-4.4c0.3-3.4-0.6-6.6-2.7-9.3l8.4-6.9c2.6-2.2,4.3-5.2,4.6-8.6c0.3-3.4-0.7-6.7-2.8-9.4
																l-0.6-0.8c-1.4-1.6-3.1-2.9-5.1-3.7c-4.4-1.8-9.3-1-12.9,2l-4.4,3.6l0.2-0.5c3.1-6.1,1-13.6-4.8-17
																c-0.5-0.3-1.1-0.6-1.7-0.8l0,0c-5.8-2.4-12.6-0.1-15.8,5.3L275.1,98c-5.7-1.4-11.8-0.1-16.4,3.8l-1.4,1.1
																c-15.7,12.9-18,36.2-5.1,52l0.1,0.1c3.9,4.8,9,8.5,14.6,10.8c12.6,5.1,26.9,2.9,37.4-5.7l15.4-12.7l0.1-0.1l4.8-4
																C327.3,141.2,329,138,329.4,134.6z"/>
															<g>
																<g>
																	<path class="st1" d="M284.7,133c-0.2-0.3-0.5-0.3-0.8-0.1c-0.1,0.1-4.3,3-8.8,6.2c0,0,0,0-0.1-0.1l-6.4-4.3
																		c3.3-2.4,7.9-5.7,9.4-5.8c0.3,0,0.5-0.3,0.5-0.6s-0.2-0.5-0.5-0.5c-1.2-0.1-3.8-2.1-4.9-3.1
																		c-3.4-3.4-6.4-3.5-8.1-2.5c-1.2,0.7-1.7,2-1.4,3.2c0.2,0.6,1.2,2.7,5.8,2.4c0.3,0,0.5-0.3,0.5-0.6
																		c0-0.3-0.3-0.5-0.6-0.5c-3,0.2-4.4-0.7-4.6-1.7c-0.2-0.7,0.1-1.5,0.9-1.9c1.3-0.8,3.8-0.6,6.8,2.4
																		c0.6,0.6,2.4,2.1,3.9,2.9c-2.2,1.1-5.6,3.5-9.2,6.1c-1.3,1-2.5,1.8-3,2.1c-1.9,1.1-4.8,1.6-7-0.5
																		c-1.2-1.1-1.3-2.3-1.1-3.1c0.4-1.4,1.7-2.6,3.3-3c1-0.3,3.1-0.4,5,1.7c0.2,0.2,0.6,0.2,0.8,0
																		c0.2-0.2,0.2-0.6,0-0.8c-1.7-1.9-3.9-2.6-6.1-2.1c-2,0.5-3.6,2-4.1,3.8c-0.4,1.5,0.1,3,1.4,4.2
																		c0.6,0.5,1.2,1,2,1.2c2,0.8,4.3,0.6,6.4-0.6c0.5-0.3,1.6-1.1,3-2.1l0,0l6.4,4.3c-3.5,2.5-7.1,5.1-8.9,6.5
																		c-0.2,0.2-0.3,0.5-0.1,0.8c0.1,0.1,0.1,0.1,0.2,0.2c0.2,0.1,0.4,0.1,0.6-0.1c4.3-3.4,18.5-13.2,18.6-13.3
																		C284.8,133.6,284.9,133.3,284.7,133z"/>
																	<path class="st1" d="M277.8,148.5c-1.2,0.1-2.1,0-2.8-0.1c-0.3-0.1-1.1-0.4-1.1-0.8c-0.1-0.3,0.3-0.8,0.9-1.3
																		c2.6-2,6-4.3,6-4.3c0.3-0.2,0.3-0.5,0.1-0.8c-0.2-0.3-0.5-0.3-0.8-0.1c0,0-3.4,2.4-6,4.4c-1.1,0.8-1.5,1.6-1.3,2.4
																		c0.2,0.8,1,1.3,1.5,1.5c0.2,0.1,0.4,0.1,0.5,0.2c0.8,0.2,1.8,0.2,3.1,0.1c0.3,0,0.5-0.3,0.5-0.6
																		C278.4,148.7,278.1,148.5,277.8,148.5z"/>
																	<path class="st1" d="M284,139.7c0.2-0.4,0-0.8-0.4-1s-0.8,0-1,0.4s0,0.8,0.4,1S283.8,140.1,284,139.7z"/>
																	<path class="st1" d="M294.3,141.4c-0.2-0.2-0.5-0.3-0.8-0.1l-12.6,9.7c-0.2,0.2-0.3,0.5-0.1,0.8
																		c0.1,0.1,0.1,0.1,0.2,0.2c0.2,0.1,0.4,0.1,0.6-0.1l12.6-9.7C294.5,142,294.5,141.6,294.3,141.4z"/>
																	<path class="st1" d="M279.4,152.3c-0.4-0.2-0.8,0-1,0.4s0,0.8,0.4,1s0.8,0,1-0.4S279.8,152.4,279.4,152.3z"/>
																</g>
																<path class="st1" d="M323,133.9c0.2-1.8-0.4-3.5-1.5-4.9l-0.3-0.4c-1.1-1.4-2.7-2.2-4.5-2.4c-0.5,0-0.9,0-1.4,0
																	l3-2.5c1.4-1.1,2.2-2.7,2.4-4.5c0.2-1.8-0.4-3.5-1.5-4.9l-0.3-0.4c-1.1-1.4-2.7-2.2-4.5-2.4c-0.4,0-0.8,0-1.3,0
																	l15.6-12.8c1.3-1.1,2.1-2.7,2.3-4.5c0.1-1.7-0.4-3.5-1.5-4.8c-1.3-1.6-3.3-2.6-5.3-2.7c-1.8-0.1-3.5,0.5-4.7,1.7
																	L293.4,109l12.7-25.7c1.5-3,0.7-6.7-2-8.5l-0.3-0.2c-1.5-0.9-3.2-1.1-4.9-0.7c-1.7,0.4-3.1,1.5-3.9,2.9L277.7,106
																	c-4.5-3.2-10.7-3-14.9,0.6l-1.6,1.3c-0.1,0-0.2,0.1-0.2,0.2c-0.2,0.1-0.3,0.3-0.5,0.5l-0.6,0.5l-0.1,0.1
																	c-11.5,10.9-12.7,29.2-2.6,41.6l0.1,0.1c3.3,4,7.4,7.1,12.1,8.9c2.7,1.1,5.6,1.8,8.6,2.1c8.1,0.8,16.1-1.6,22.4-6.8
																	l14.1-11.6c0,0,0,0,0.1-0.1l6.2-5.1C322,137.3,322.9,135.7,323,133.9z M314.3,112.7c1.5,0.1,2.8,0.9,3.8,2l0.3,0.4
																	c0.9,1.2,1.4,2.6,1.2,4.1s-0.9,2.8-2,3.8l-15,12.3c-1.2,0.9-2.6,1.4-4.1,1.2c-1.5-0.1-2.8-0.9-3.8-2l-0.3-0.4
																	c-0.9-1.2-1.4-2.6-1.2-4.1c0.1-1.5,0.9-2.8,2-3.8l1.3-1.1c0.6-0.5,1.3-1,1.9-1.5l11.7-9.6
																	C311.3,113,312.8,112.5,314.3,112.7z M295.9,77.5c0.7-1.2,1.9-2.1,3.2-2.4c1.4-0.4,2.8-0.1,4,0.6l0.3,0.2
																	c2.2,1.5,2.9,4.5,1.7,7l-13.8,27.9c-0.1,0.2-0.1,0.5,0.2,0.7c0.2,0.2,0.5,0.2,0.7,0l28.1-22.2
																	c1.4-1.3,2.9-1.5,3.9-1.4c1.7,0.1,3.4,1,4.5,2.3c0.9,1.1,1.4,2.6,1.3,4c-0.1,1.5-0.8,2.8-1.8,3.7l-18,14.8
																	c-0.2,0.1-0.4,0.3-0.6,0.4l-11.3,9.3l-19.6-15.6L295.9,77.5z M277.3,107.3l19.9,15.8l-1.2,1
																	c-5.4,4-10.9,4.3-15.7,0.5L261,109.5l2.4-2C267.4,104.2,273.2,104.1,277.3,107.3z M299.5,154.3
																	c-6.1,5-13.8,7.3-21.6,6.6c-7.8-0.8-14.9-4.5-19.9-10.6l-0.1-0.1c-9.7-11.8-8.6-29.3,2.2-39.8l19.4,15.2
																	c1.1,0.9,2.3,1.6,3.5,2c3.2,1.3,6.5,1.2,9.9-0.3c-0.4,0.8-0.7,1.7-0.8,2.6c-0.2,1.8,0.4,3.5,1.5,4.9l0.3,0.4l0,0
																	c0.7,0.9,1.6,1.5,2.7,2c0.6,0.2,1.2,0.4,1.9,0.5c0.5,0,1,0,1.4,0c-2.7,2.4-3,6.5-0.7,9.3l0.3,0.4l0,0
																	c0.7,0.9,1.7,1.5,2.7,2c1,0.4,2.1,0.6,3.2,0.4L299.5,154.3z M319.9,137.6l-11.7,9.6c-2.4,2-5.9,1.6-7.9-0.8L300,146
																	c-2-2.4-1.6-5.9,0.8-7.9l11.7-9.6c1.2-0.9,2.6-1.4,4.1-1.2c1.5,0.1,2.8,0.9,3.8,2l0.3,0.4c0.9,1.2,1.4,2.6,1.2,4.1
																	C321.8,135.3,321,136.7,319.9,137.6z"/>
															</g>
														</g>
														<g>
															<path class="st9" d="M123.4,102.9c-7.6-15.4-26.4-21.7-41.8-14l-4.4,2.2L75,86.7c-3.7-7.4-10.1-13-17.9-15.7l0,0
																c-8-2.7-16.5-2.1-23.9,1.6c-7.5,3.7-13,10.1-15.7,18s-2.1,16.3,1.6,23.8L49,174.6l0.1-0.1l0.1,0.1l60.2-29.9
																c7.5-3.7,13-10.1,15.7-18S127.1,110.4,123.4,102.9z"/>
															<g>
																<path class="st1" d="M82,112.7c1.8,0.7,2.9,3.5,2.9,5.6c0,0.3,0.2,0.5,0.4,0.6c0.1,0,0.1,0,0.2,0
																	c0.3,0,0.6-0.3,0.6-0.6c0-1-0.2-2-0.5-3l8.2-4.1l6.6,3.5h0.1c0.3,0.1,0.6,0,0.7-0.3c0.2-0.3,0-0.6-0.2-0.8l-5.9-3.1
																	l2.4-1.2l6.6,3.5h0.1c0.3,0.1,0.6,0,0.7-0.3c0.2-0.3,0-0.6-0.2-0.8l-5.9-3.1l2.4-1.2l6.6,3.5h0.1
																	c0.3,0.1,0.6,0,0.7-0.3c0.2-0.3,0-0.6-0.2-0.8l-5.9-3.1l2.4-1.2l6.6,3.5h0.1c0.3,0.1,0.6,0,0.7-0.3
																	c0.2-0.3,0-0.6-0.2-0.8l-6.5-3.5l1.5-7.4c0.1-0.3-0.2-0.6-0.5-0.7s-0.6,0.1-0.7,0.5l-1.5,7.6l-2.3,1.2l1.3-6.7
																	c0.1-0.3-0.2-0.6-0.5-0.7s-0.6,0.1-0.7,0.5l-1.5,7.6l-2.3,1.2l1.3-6.7c0.1-0.3-0.2-0.6-0.5-0.7s-0.6,0.1-0.7,0.5
																	l-1.5,7.6l-2.3,1.2l1.3-6.7c0.1-0.3-0.1-0.6-0.5-0.7c-0.3-0.1-0.6,0.1-0.7,0.5l-1.5,7.6l-8.2,4.1
																	c-0.6-1.2-1.5-2.2-2.7-2.7c-0.3-0.1-0.6,0-0.8,0.3C81.6,112.3,81.7,112.6,82,112.7z"/>
																<path class="st1" d="M53.2,118.1c0.3,0.1,0.6-0.1,0.7-0.4c0.1-0.3-0.1-0.6-0.4-0.7l0,0c-2-0.7-5.9,2-10,4.8
																	c-3,2-6.1,4.2-7.6,4.3c-2.4,0.2-4.2-0.4-5.3-2c-3-4.2-0.9-14.3,1.2-19.9c0.2,1.1,0.4,2.5,0.7,4.2
																	c0.3,2,0.6,4.3,1.1,6.8c1.1,6.3,3.3,7,4.4,6.8c1.4-0.2,2.6-1.8,3-3.6c0.4,0.4,0.8,0.6,1.3,0.8
																	c0.7,0.2,1.4,0.2,2.1-0.1c1.6-0.6,2.4-2.5,2.2-4.9c-0.1-1.9-0.5-5-0.8-7.7c-0.2-1.9-0.4-3.7-0.5-4.9
																	c-0.2-2.6-0.2-4.9,0.1-7c0.2-1.4,1.4-4.3,4-5.9c1.9-1.2,4-1.4,6.4-0.6c0.3,0.1,0.6-0.1,0.7-0.4
																	c0.1-0.3-0.1-0.6-0.4-0.7l0,0c-2.7-0.9-5.2-0.7-7.4,0.7c-2.9,1.8-4.3,5-4.5,6.7c-0.3,2.2-0.3,4.6-0.1,7.3
																	c0.1,1.1,0.3,3,0.5,4.9c0.3,2.7,0.7,5.8,0.8,7.7c0.2,2.2-0.7,3.4-1.5,3.7c-0.8,0.3-1.7,0-2.3-0.7
																	c-0.2-0.2-0.5-1.1-0.6-1.8c-0.9-5.3-2.1-12.7-2.1-12.8c-0.1-0.3-0.4-0.5-0.7-0.5c-0.3,0.1-0.5,0.4-0.5,0.7
																	c0,0.1,1.2,7.4,2.1,12.7l0,0v0.1c0,0.2,0.1,0.4,0.1,0.6c0,0.1,0,0.2,0,0.3v0.2c0.1,2-1,3.9-2.1,4.1
																	c-1,0.1-2.3-1.4-3.1-5.8c-0.5-2.5-0.8-4.8-1.1-6.8c-0.5-3.1-0.8-5.2-1.2-6.1c-0.1-0.2-0.3-0.3-0.5-0.3
																	s-0.4,0.1-0.5,0.4c-1.4,3.1-5.9,16.8-1.7,22.7c0.8,1,1.7,1.8,2.9,2.2c1,0.3,2.1,0.4,3.4,0.3
																	c1.8-0.2,4.9-2.3,8.2-4.5C47.6,120.4,51.8,117.6,53.2,118.1z"/>
																<path class="st1" d="M69.1,112.8c-0.2,0.1-0.4,0.3-0.4,0.8c0,0.7,0.1,2.1,0.3,3.6c0.2,2,0.3,4.2,0.4,5.1
																	c0.1,2.8-0.4,3.3-0.9,3.4c-0.4,0.1-0.5,0-0.6-0.1c-0.4-0.3-1-1.4-1.1-5.1l0,0c-0.1-1.1-0.2-2.1-0.3-3.2
																	c-0.1-0.7-0.2-1.4-0.2-2.1c0-0.3-0.3-0.6-0.6-0.5c-0.3,0-0.6,0.3-0.5,0.6c0.1,0.7,0.1,1.4,0.2,2.2
																	c0.2,1.9,0.4,3.9,0.4,5.6c-0.1,1.7-0.2,3.2-1.3,4.5c-0.3,0.3-1.2,1-1.9,0.8l0,0c-0.5-0.2-0.8-0.9-1-2
																	c-0.3-2.8-0.9-8.3-0.9-8.4c0-0.3-0.3-0.6-0.6-0.5c-0.3,0-0.6,0.3-0.5,0.6c0,0.1,0.5,5.6,0.9,8.4
																	c0.2,1.6,0.8,2.6,1.7,3c0,0,0,0,0.1,0c1.3,0.4,2.6-0.6,3.1-1.1c0.7-0.8,1.1-1.7,1.3-2.6c0.2,0.3,0.4,0.6,0.7,0.8
																	c0.1,0.1,0.3,0.2,0.5,0.2c0.4,0.1,0.8,0.1,1.2,0c1.7-0.5,1.9-2.5,1.8-4.6c0-1-0.2-3.2-0.4-5.1
																	c-0.1-0.9-0.1-1.8-0.2-2.5c0.5,0.4,1.3,0.8,2.1,0.5s1.5-1.2,2-2c0.1,0.9,0.2,2,0.3,3c0.1,1.6,0.3,3.1,0.4,4.1
																	c0.2,1.1,0.9,1.9,1.9,2.2c1,0.3,2.1-0.2,2.9-1.1c1.4-1.7,1.3-4.2,1.2-6c0-0.3-0.3-0.6-0.6-0.5
																	c-0.3,0-0.6,0.3-0.5,0.6c0.2,2.4-0.1,4-0.9,5.1c-0.5,0.6-1.1,0.9-1.7,0.7c-0.5-0.1-0.9-0.6-1-1.2
																	c-0.2-0.9-0.3-2.4-0.4-3.9c-0.2-2.1-0.4-4.2-0.7-5.4c-0.1-0.3-0.3-0.5-0.6-0.4c-0.3,0-0.5,0.3-0.5,0.6
																	c0,0.6-1,2.9-2,3.3c-0.5,0.2-1-0.4-1.4-0.8C69.8,112.9,69.5,112.6,69.1,112.8z"/>
																<path class="st1" d="M112.5,126.7c-0.4-1.6-1.8-2.7-3.9-2.9c-0.6-0.1-1.2,0-1.8,0.1c-1.5,0.1-2.1,0.1-2.4-0.8
																	c-0.2-0.6,0.1-1.1,0.4-1.4c0.6-0.6,1.5-1,2.2-0.8c0.5,0.1,0.8,0.4,0.9,1c0.1,0.3,0.4,0.5,0.7,0.4
																	c0.3-0.1,0.5-0.4,0.4-0.7c-0.3-1-0.9-1.6-1.8-1.8c-1.1-0.3-2.5,0.2-3.3,1.2c-0.7,0.8-0.9,1.7-0.6,2.6
																	c0.7,1.9,2.3,1.7,3.6,1.6c0.5,0,1.1-0.1,1.6-0.1c1.5,0.1,2.5,0.8,2.8,2c0.3,1.2-0.3,2.7-1.5,3.5
																	c-1.1,0.7-2.2,0.8-3,0.3c-0.7-0.4-1.1-1.2-1-1.9c0-0.5,0.3-0.8,0.8-1c0,0,0.1,0,0.1-0.1c0,0,0.1,0,0.1-0.1
																	c0,0,0-0.1,0.1-0.1c0,0,0-0.1,0.1-0.1v-0.1v-0.1v-0.1v-0.1l0,0l0,0v-0.1c0,0,0-0.1-0.1-0.1c0,0,0,0-0.1-0.1
																	l-0.1-0.1h-0.1h-0.1h-0.1h-0.1l0,0l0,0c0,0,0,0-0.1,0c-1.6,0.6-2,2.8-2.4,4.5c-0.1,0.6-0.2,1.1-0.3,1.5
																	c-0.3,0.8-0.8,1.2-1.1,1.2c-0.1,0-0.2-0.2-0.3-0.4c-0.1-0.8-0.3-1.9-0.5-3c-0.4-3-0.7-4.9-1.1-5.6
																	c-0.4-0.8-1.1-1.2-1.8-1.2c-0.9,0-1.7,0.6-2.3,1.6c-0.5,0.8-0.8,1.6-1,2.7c-0.1-0.2-0.1-0.4-0.2-0.5
																	c-0.4-0.8-1.1-1.2-1.8-1.2c-0.9,0-1.7,0.6-2.3,1.6c-0.4,0.6-0.6,1.3-0.8,2.2c-0.1-0.9-0.3-1.6-0.3-1.8
																	c0-0.3-0.3-0.6-0.6-0.5c-0.3,0-0.6,0.3-0.5,0.6c0,0.2,0.2,1.1,0.4,2.6c0.4,2.5,1,6.2,1,6.8c0.1,1.9-0.8,3-1.7,3.1
																	c-0.7,0.1-1.2-0.4-1.4-1.4c-0.5-2-1-5.7-1.3-9.3c0-0.3-0.3-0.6-0.6-0.5c-0.3,0-0.6,0.3-0.5,0.6
																	c0.1,0.8,0.1,1.5,0.2,2.3c-0.3-0.4-0.7-0.7-1.1-0.8c-0.6-0.2-1.5-0.4-2.6,0.4c-1,0.7-1.6,2-1.8,3.9
																	c-0.1,1,0,3.1,0.5,4.9c-0.1,1.9-0.9,4.4-2.9,5.5c-0.8,0.4-1.6,0.5-2.2,0.2c-0.3-0.2-0.6-0.4-0.9-0.7
																	c1.5-3.1,3.2-7.2,2.5-9.1c-0.2-0.6-0.6-1-1.2-1.2c-0.9-0.2-1.8,0-2.5,0.6c-1.4,1.3-1.9,4.4-1.5,6.5
																	c0.2,1,0.6,2.3,1.3,3.3c-0.7,1.3-1.3,2.3-1.6,2.8c-0.5,0.6-1,0.9-1.5,0.8c-0.4-0.1-0.7-0.6-0.9-1.2
																	c-0.2-0.9-0.3-2.4-0.4-4c-0.2-2-0.3-4-0.6-5.2c-0.1-0.3-0.4-0.5-0.7-0.4c-0.3,0-0.5,0.3-0.5,0.6
																	c0,0.6-0.8,2.8-1.8,3.2c-0.4,0.1-1-0.5-1.4-0.8c-0.4-0.4-0.7-0.7-1.1-0.5c-0.2,0.1-0.4,0.3-0.4,0.8
																	c0,0.1,0.4,7.8,0.4,9.4c0,2-0.5,3.3-1.2,3.3c-0.1,0-0.2,0-0.3-0.1c-0.3-0.2-0.8-1.1-1-4c0-0.1-0.8-10.7-0.9-13.4
																	c7-3.2,13.8-7.3,16.6-11.6c0.2-0.3,0.1-0.6-0.2-0.8c-0.3-0.2-0.6-0.1-0.8,0.2c-3.6,5.4-14.1,10.7-23,14
																	c0-0.2,0-0.4,0-0.6c0-3.1-0.4-7-0.7-10.5c-0.2-1.6-0.3-3.2-0.4-4.5c0-0.3-0.3-0.6-0.6-0.5c-0.3,0-0.6,0.3-0.5,0.6
																	c0.1,1.3,0.3,2.9,0.4,4.5c0.2,1.6,0.3,3.3,0.5,5c-1,2.5-2.5,3.6-3.4,3.5c-0.7-0.1-1.2-1-1.4-2.4
																	c-0.1-0.7-0.2-2.5-0.2-3.8c0-0.8-0.1-1.5-0.1-1.6c-0.2-1.3-0.8-1.8-1.2-2c-0.9-0.4-1.9,0.1-2.6,0.6
																	c-3,2.3-3.7,5.7-2.7,7.7c0.3,0.6,0.8,1,1.3,1.2c0.4,0.1,0.8,0.1,1.3,0c0.3-0.1,0.5-0.4,0.4-0.7s-0.4-0.5-0.7-0.4
																	c-0.5,0.1-0.9-0.1-1.2-0.6c-0.6-1.3-0.3-4.1,2.4-6.3c0.4-0.3,1-0.6,1.4-0.5l0,0c0.3,0.1,0.5,0.7,0.5,1.1
																	c0,0.1,0,0.7,0.1,1.5c0.1,1.3,0.2,3.2,0.2,3.9c0.3,2.8,1.8,3.3,2.4,3.4c1.3,0.2,2.7-0.7,3.7-2.4
																	c0.1,1.1,0.1,2.2,0.1,3.1c0,0.4,0,0.7,0,1c-0.5,0.2-0.9,0.3-1.3,0.5c-1.4,0.5-3.9,1.6-4.6,3.5
																	c-0.4,1-0.3,2.1,0.3,3.2c0.3,0.6,0.8,1,1.4,1.2c0.5,0.2,1,0.2,1.5,0.1c0.9-0.2,3.5-1.4,3.9-7.6
																	c2-0.7,4.1-1.6,6.2-2.5c0.1,1.9,0.4,5.8,0.6,8.8c-0.4-0.5-0.8-0.9-1.3-1.1c-0.6-0.3-1.6-0.4-2.9,0.5
																	c-1.1,0.7-1.7,2-2.1,4c-0.3,1.7,0,5.7,1.5,7.5c0.4,0.5,0.8,0.8,1.2,0.9c0.2,0.1,0.4,0.1,0.5,0.1
																	c1,0.1,2-0.3,2.8-1.1c0.6-0.7,1.1-1.6,1.4-2.7c0.2,0.4,0.4,0.6,0.6,0.8c0.2,0.1,0.3,0.2,0.5,0.3s0.4,0.1,0.7,0.1
																	c1-0.1,2.2-1,2.3-4.5c0-1.3-0.2-6.1-0.3-8.4c0.6,0.5,1.3,0.9,2.1,0.6c0.7-0.3,1.3-1,1.7-1.8
																	c0.1,0.8,0.2,1.8,0.2,2.7c0.1,1.6,0.3,3.2,0.5,4.2c0.2,1.2,0.9,2,1.8,2.2s1.9-0.2,2.7-1.2c0.3-0.3,0.9-1.3,1.5-2.5
																	c0.3,0.3,0.6,0.5,0.9,0.6c1,0.5,2.1,0.4,3.3-0.2c1.8-0.9,2.7-2.7,3.2-4.4c0.1,0.2,0.2,0.3,0.3,0.5
																	c0.4,0.5,0.8,0.8,1.2,0.9c0.1,0,0.3,0.1,0.4,0.1c1,0.1,1.8-0.2,2.5-1c0.6-0.7,1-1.6,1.3-2.7
																	c0.4,0.6,0.8,0.9,1.3,1.1c0.3,0.1,0.7,0.1,1,0.1c1.4-0.2,2.8-1.8,2.7-4.3c0-0.4-0.2-1.5-0.4-3.1
																	c0.1-3,0.4-5,1.1-6.2c0.4-0.6,0.9-1,1.3-1c0.3,0,0.6,0.2,0.8,0.6c0.3,0.4,0.6,1.8,0.9,3.5l0,0c0,0.1,0,0.2,0,0.2
																	c0.3,2,0.7,4.3,0.9,5.9c0,0.2,0.2,0.4,0.4,0.5c0.1,0,0.2,0,0.3,0c0.3,0,0.6-0.3,0.5-0.7c-0.1-0.5-0.4-3.5-0.9-6.1
																	c0.1-2.8,0.4-4.3,1.2-5.6c0.4-0.6,0.8-1,1.3-1c0.4,0,0.7,0.3,0.8,0.6c0.3,0.5,0.7,3.2,0.9,5.1
																	c0.2,1.1,0.3,2.2,0.5,3.1c0.1,0.7,0.5,1.1,1,1.3c0.1,0,0.2,0.1,0.4,0.1c1,0.1,2-0.8,2.4-2c0.2-0.5,0.3-1,0.4-1.7
																	c0.1-0.3,0.1-0.7,0.2-1c0.3,0.5,0.7,0.9,1.1,1.2c0.2,0.1,0.4,0.2,0.7,0.3c1.1,0.4,2.4,0.2,3.6-0.6
																	C112.1,130.5,112.9,128.5,112.5,126.7z M46.7,146.8c-0.7,0.2-1.3-0.1-1.6-0.6c-0.4-0.8-0.5-1.6-0.2-2.3
																	c0.6-1.6,3-2.5,3.9-2.8c0.3-0.1,0.6-0.2,0.9-0.3C49.3,144.7,47.9,146.5,46.7,146.8z M56.6,156.6
																	c-0.5,0.6-1.1,0.8-1.8,0.8c-0.3,0-0.6-0.2-0.9-0.6c-1.2-1.5-1.5-5.1-1.2-6.6c0.3-1.7,0.8-2.7,1.5-3.3
																	c0.7-0.5,1.3-0.6,1.8-0.4c1,0.4,1.7,2.2,1.9,3.6C58.2,152.9,57.7,155.4,56.6,156.6z M72.9,144.9
																	c-0.4-0.7-0.6-1.5-0.7-2.2c-0.3-1.8,0-4.4,1.1-5.5c0.4-0.4,0.8-0.5,1.4-0.3c0,0,0,0,0.1,0s0.3,0.1,0.3,0.4
																	C75.5,138.7,74.3,142.1,72.9,144.9z M84.2,142.9c-0.4,0.5-1,0.7-1.5,0.6c-0.3,0-0.6-0.2-0.8-0.6
																	c-1.2-1.5-1.6-5.1-1.4-6.6c0.2-1.6,0.6-2.6,1.3-3.1c0.5-0.4,1-0.5,1.4-0.4h0.1c1,0.4,1.7,2.2,2,3.7
																	C85.7,139.3,85.3,141.8,84.2,142.9z"/>
																<path class="st1" d="M49.3,101.7c-1,0.7-1.5,1.9-1.8,3.9c-0.2,1.8,0.3,7.5,2.8,8.3c0.1,0,0.3,0.1,0.4,0.1
																	c0.9,0.1,1.8-0.2,2.4-0.9c0.6-0.6,1-1.5,1.3-2.6c0.1,0.3,0.2,0.5,0.4,0.6c0.2,0.2,0.5,0.4,0.8,0.5
																	c0.5,0.2,1,0.1,1.5-0.1c1.2-0.5,2.3-2.2,1.8-5.2c-0.1-0.5-0.2-1.6-0.4-3c1.7-1.8,2.5-1.9,2.7-1.8l0,0
																	c0.8,0.3,1.1,2.4,1.4,3.8l0.1,0.6c0.2,1,0.7,1.3,1.1,1.5h0.1c0.7,0.2,1.6-0.2,2.2-1c0.5-0.7,1.1-1.6,1.7-2.7
																	c0.2,0.2,0.5,0.3,0.7,0.4c1,0.5,2.2,0.4,3.4-0.3c2.2-0.9,3.2-2.9,3.2-5.7c0-0.3-0.3-0.6-0.6-0.6
																	c-0.3,0-0.6,0.3-0.6,0.6c0,2.4-0.8,4-2.5,4.9c-0.9,0.5-1.6,0.5-2.3,0.2c-0.2-0.1-0.5-0.3-0.7-0.4
																	c1.7-3.5,3-7.8,2.3-9.6c-0.2-0.6-0.7-0.9-1.3-1c-1-0.1-1.8,0.2-2.5,1c-1.5,1.7-1.8,5-1.4,6.7c0.1,0.6,0.5,2,1.4,3.1
																	c-0.6,1.1-1.2,2.1-1.8,2.8c-0.3,0.4-0.8,0.6-1,0.6c-0.2,0-0.3-0.4-0.3-0.5l-0.1-0.6c-0.3-1.9-0.7-4.2-2.1-4.7
																	c0,0,0,0-0.1,0c-0.2-0.1-0.4-0.1-0.6-0.1c0.8-1.4,1-2.3,1.1-3c0.2-0.8,0.2-1.3,1.2-2.1c0.2-0.2,0.3-0.6,0-0.8
																	c-0.2-0.2-0.6-0.3-0.8,0c-1.2,1.1-1.4,1.9-1.5,2.8c-0.2,0.9-0.4,2-2.1,4.2c-0.2,0.2-0.4,0.3-0.6,0.5
																	c-0.5-4.5-1.1-10.6-1.1-10.6c0-0.3-0.3-0.6-0.6-0.5c-0.3,0-0.6,0.3-0.5,0.6c0.1,0.5,1.3,13.3,1.6,15.3
																	c0.4,2.3-0.4,3.6-1.2,3.9c-0.4,0.2-0.7,0.1-0.9-0.1c-0.7-0.8-1.1-5.1-1.4-8.6c-0.1-0.7-0.1-1.4-0.2-2.1
																	c0-0.3-0.3-0.6-0.6-0.5c-0.3,0-0.6,0.3-0.5,0.6c0.1,0.7,0.1,1.4,0.2,2.1c0,0.2,0,0.4,0.1,0.6
																	c-0.4-0.5-0.8-0.9-1.3-1.2C51.4,101.1,50.4,101,49.3,101.7z M66.7,99.5c-0.3-1.4-0.1-4.3,1.1-5.6
																	c0.4-0.5,0.9-0.7,1.5-0.6h0.1c0.1,0,0.1,0.1,0.2,0.3c0.5,1.3-0.5,5-2,8.1C67.2,101,66.9,100.2,66.7,99.5z M53.4,106
																	c0.5,2.7,0.1,5.2-1,6.3c-0.4,0.4-0.9,0.6-1.4,0.6c-1.5-0.2-2.4-5-2.2-7.1c0.2-1.6,0.6-2.6,1.3-3
																	c0.5-0.4,1-0.5,1.4-0.3C52.4,102.8,53.1,104.6,53.4,106z"/>
																<path class="st1" d="M55.9,120.6c-0.6-0.2-1.5-0.4-2.6,0.4c-1,0.7-1.6,2-1.8,3.9c-0.2,1.8,0.3,7.3,2.8,8.1
																	c0.1,0,0.3,0.1,0.4,0.1c1,0.1,1.8-0.2,2.5-0.9c1.3-1.4,1.8-4,1.3-7.1C58.3,123.5,57.4,121.3,55.9,120.6z
																	 M56.4,131.5c-0.4,0.5-1,0.7-1.5,0.6c-1.7-0.2-2.4-5-2.2-6.9c0.2-1.6,0.6-2.6,1.3-3.1c0.5-0.4,1-0.5,1.4-0.3
																	c0,0,0,0,0.1,0c1,0.4,1.7,2.2,1.9,3.6C57.9,128,57.5,130.4,56.4,131.5z"/>
															</g>
														</g>
														<g>
															<path class="st1" d="M697.9,105.5c-0.6-1.9-1.8-3.4-3.5-4.3l-65.8-35.4c-3.5-1.9-8-0.6-9.9,3l-35.4,65.8
																c-1.9,3.5-0.6,8,3,9.9l39.1,21.1c2.7,1.5,5.7,2.2,8.7,2.2c10.4-0.1,23.4-3.5,34-8.9c3.1-1.6,5.7-4.1,7.4-7.2
																l21.9-40.4C698.3,109.3,698.5,107.3,697.9,105.5z"/>
															<g>
																<path class="st9" d="M691.5,107.9c0.1-0.1,0.1-0.3,0-0.5c0-0.2-0.1-0.3-0.3-0.4l-65.8-35.4c-0.3-0.2-0.6,0-0.8,0.2
																	l-35.4,65.8c-0.2,0.3,0,0.6,0.2,0.8l39.1,21.1c1.7,0.9,3.6,1.4,5.4,1.4c9.3-0.1,21.4-3.3,31-8.2
																	c1.4-0.7,2.6-1.7,3.5-2.9c0,0,0,0,0.1-0.1c0.3-0.4,0.7-0.9,0.9-1.4L691.5,107.9z M590.5,137.6l34.9-64.7l64.7,34.9
																	l-21.6,39.9c-0.2,0.4-0.5,0.8-0.8,1.2c-7.8,3.9-21.5-9.7-21.6-9.8s-0.4-0.2-0.6-0.2c-0.2,0-0.4,0.2-0.4,0.4
																	c-0.1,0.2-6.9,20.1-15.2,19.5l0,0c-0.3-0.1-0.6-0.2-0.9-0.4L590.5,137.6z M634,159.7c-0.4,0-0.9,0-1.3-0.1
																	c6.8-2.5,12-15.5,13.3-19.1c2.7,2.5,12.5,11.3,20,10.1c-0.5,0.4-0.9,0.7-1.5,0.9C655.1,156.4,643.1,159.6,634,159.7
																	z"/>
																<g>
																	<path class="st9" d="M632.7,97.1L632.7,97.1c1-1.9,0.3-3.6-2.2-5.8c-2.4-2-2.9-3.1-2.2-4.5l0,0
																		c0.7-1.3,2.4-1.5,4-0.7l0,0c1.3,0.7,2.3,1.8,2.9,3.3l1.2-0.6c-0.8-1.7-1.8-2.9-3.5-3.8c0,0,0,0-0.1,0
																		c-1.2-0.6-2.4-0.8-3.5-0.6c-1.1,0.2-2,0.9-2.5,1.8l0,0c-1,2-0.4,3.6,2.3,5.9c2.3,1.9,2.8,3,2.1,4.4l0,0
																		c-0.3,0.7-0.9,1.1-1.7,1.2s-1.6,0-2.5-0.5l0,0c-1.7-0.9-2.7-2.1-3.4-4.1l-1.3,0.5c0.8,2.1,2.1,3.6,4,4.7
																		c0,0,0,0,0.1,0C629,99.7,631.5,99.2,632.7,97.1z"/>
																	<path class="st9" d="M643.4,92.3L643.4,92.3C643.4,92.4,643.4,92.4,643.4,92.3c0.1,0.1,0.1,0.1,0,0.2l-6.1,11.4
																		l1.3,0.7l6.1-11.4c0,0,0,0,0.1-0.1h0.1l4.2,2.3l0.6-1.1l-9.9-5.3l-0.6,1.1L643.4,92.3z"/>
																	
																		<rect x="642.3" y="101.6" transform="matrix(0.4694 -0.883 0.883 0.4694 254.2475 627.7618)" class="st9" width="14.3" height="1.4"/>
																	<path class="st9" d="M656.5,114.4L656.5,114.4c2.5,1.3,4.5,1,6.2,0.5l-0.4-1.2c-1.7,0.5-3.3,0.6-5.1-0.4l0,0
																		c-1.4-0.7-2.4-2-2.8-3.5c-0.4-1.5-0.2-3.1,0.6-4.6l0,0c1.6-3.1,5-4.2,7.9-2.7l0,0c1.9,1,2.7,2.6,3.1,3.9l1.3-0.5
																		c-0.6-1.6-1.4-3.2-3.8-4.5c0,0,0,0-0.1,0c-1.8-0.9-3.8-1.1-5.6-0.5s-3.3,1.9-4.3,3.7l0,0
																		C651.7,108.2,652.9,112.4,656.5,114.4z"/>
																	<path class="st9" d="M673.3,113.8l8.3-2.6l-1.6-0.9l-11.4,3.7h-0.1v-0.1l4-7.6l-1.3-0.7l-6.7,12.7l1.3,0.7l1.8-3.4
																		c0,0,0,0,0.1-0.1l4.2-1.3h0.1c0,0,0,0,0.1,0.1l1.6,8.8l1.6,0.8L673.3,113.8C673.2,113.9,673.3,113.8,673.3,113.8z"
																		/>
																	<path class="st9" d="M625.7,119.5L625.7,119.5l2.1-12.7l-1.1-0.6l-9.2,8.8h-0.1l0,0l-0.1-0.1l2-12.6l-1.4-0.7
																		l-2.3,15.2l1.1,0.6l9-8.5h0.1l0,0l0.1,0.1l-2,12.2l1.1,0.6l11.3-10.4l-1.3-0.7L625.7,119.5
																		C625.8,119.5,625.7,119.5,625.7,119.5z"/>
																	
																		<rect x="629.3" y="118.8" transform="matrix(0.4694 -0.883 0.883 0.4694 232.1349 625.3939)" class="st9" width="14.3" height="1.4"/>
																	<path class="st9" d="M643.2,115l-0.6,1.1l4.2,2.3l0,0c0,0,0,0,0.1,0.1s0,0.1,0,0.1l-6.1,11.4l1.3,0.7l6.1-11.4
																		c0-0.1,0.1-0.1,0.2,0l4.2,2.3l0.6-1.1L643.2,115z"/>
																	<path class="st9" d="M664.7,126.5l-3,5.6c0,0.1-0.1,0.1-0.2,0l-7.4-3.9l0,0c0,0,0,0-0.1-0.1V128l3-5.6l-1.3-0.7
																		l-6.7,12.7l1.3,0.7l3-5.7c0,0,0,0,0.1-0.1h0.1l7.4,3.9l0,0c0.1,0,0.1,0.1,0,0.2l-3,5.7l1.3,0.7l6.7-12.7
																		L664.7,126.5z"/>
																	<path class="st9" d="M619.7,126.8l-8.4,4.5h-0.1l0,0l-0.1-0.1l-0.9-9.5l-1.3-0.7l-6.7,12.7l1.2,0.6l5.5-10.3
																		l0.1-0.1c0,0,0.1,0,0.1,0.1l1,9.3l8.3-4.4h0.1v0.1l-5.5,10.3l1.3,0.7l6.7-12.7L619.7,126.8z"/>
																	<path class="st9" d="M620.2,141.9L620.2,141.9c-0.1,0-0.1-0.1,0-0.2l2.4-4.5c0,0,0,0,0.1-0.1h0.1l6.9,3.7l0.6-1.1
																		l-6.9-3.7l0,0c-0.1,0-0.1-0.1,0-0.2l2.3-4.4c0,0,0,0,0.1-0.1h0.1l7.7,4.1l0.6-1.1l-9.1-4.8l-6.7,12.7l9.2,4.9
																		l0.6-1.1L620.2,141.9z"/>
																	<polygon class="st9" points="632.5,145.2 633.1,145.5 637.9,137.7 638.4,136.7 636.9,136 636.4,136.9 
																																			"/>
																	
																		<rect x="630.3" y="147.4" transform="matrix(0.4697 -0.8828 0.8828 0.4697 203.9227 635.9126)" class="st9" width="2" height="1.7"/>
																</g>
															</g>
														</g>
														<g>
															<path class="st9" d="M368.9,237.1l-3.9-5.3c-1.2-1.6-3-2.7-4.9-3l-119-17.6c-2-0.3-4,0.2-5.6,1.4l-5.3,3.9
																c-1.6,1.2-2.7,3-3,4.9l-4,26.9c-0.3,2,0.2,4,1.4,5.6l3.9,5.3c1.2,1.6,3,2.7,4.9,3l119,17.6c2,0.3,4-0.2,5.6-1.4
																l5.3-3.9c1.6-1.2,2.7-3,3-4.9l4-26.9C370.5,240.7,370.1,238.7,368.9,237.1z"/>
															<path class="st1" d="M363.7,240.9l-3.9-5.3c-0.2-0.3-0.4-0.4-0.8-0.4l-119-17.6c-0.3-0.1-0.6,0-0.8,0.2l-5.3,3.9
																c-0.3,0.2-0.4,0.4-0.4,0.8l-4,26.9c-0.1,0.3,0,0.6,0.2,0.8l3.9,5.3c0.2,0.3,0.4,0.4,0.8,0.4l119,17.6
																c0.3,0.1,0.6,0,0.8-0.2l5.3-3.9c0.2-0.2,0.4-0.5,0.4-0.8l4-26.9C363.9,241.5,363.9,241.2,363.7,240.9z M358.7,268.3
																l-5.2,3.8l-10.2-1.5l5.3-35.8l10.2,1.5l3.8,5.2L358.7,268.3z M347.3,234.8l-5.3,35.8l-95.9-14.1l5.3-35.8
																L347.3,234.8z M250.2,220.4l-5.3,35.8l-10.2-1.5l-3.8-5.2l3.9-26.7l5.2-3.8L250.2,220.4z"/>
															<path class="st1" d="M238,229.1l1,0.1h0.1c0,0,0,0,0-0.1l0.4-3l0.8,1.4c0.8,1.4,1.3,2,2.4,2.1l0,0l0,0
																c0.6,0.1,1.2-0.1,1.6-0.4c0.4-0.3,0.7-0.9,0.8-1.6c0.2-1.2-0.3-2-1-2.7H244l-0.8,0.8c0,0,0,0,0,0.1v0.1
																c0.6,0.6,0.8,1.1,0.8,1.6c-0.1,0.6-0.5,1-1.1,0.9l0,0c-0.6-0.1-1-0.5-1.6-1.5l-1.6-2.6c0,0,0,0-0.1,0l-0.9-0.1h-0.1
																c0,0,0,0,0,0.1l-0.7,4.8C237.9,229.1,237.9,229.1,238,229.1z"/>
															<path class="st1" d="M240.2,236.9L240.2,236.9L240.2,236.9c2.1,0.3,3.7-0.8,4-2.5s-1-3.2-3.1-3.5l0,0l0,0
																c-1-0.1-1.9,0-2.6,0.4c-0.8,0.4-1.2,1.2-1.4,2c-0.1,0.8,0.1,1.6,0.7,2.3C238.5,236.3,239.3,236.7,240.2,236.9z
																 M238.3,233.6c0.1-0.5,0.3-0.8,0.8-1.1c0.5-0.2,1.1-0.3,1.7-0.2l0,0l0,0c1.3,0.2,2.2,1,2.1,2s-1.2,1.5-2.5,1.3l0,0
																C239.1,235.4,238.2,234.5,238.3,233.6z"/>
															<path class="st1" d="M240.9,241.8L240.9,241.8c-0.6-0.1-1-0.5-1.6-1.5l-1.6-2.6c0,0,0,0-0.1,0l-0.9-0.1h-0.1
																c0,0,0,0,0,0.1l-0.7,4.8c0,0.1,0,0.1,0.1,0.1l1,0.1h0.1c0,0,0,0,0-0.1l0.4-3l0.8,1.4c0.8,1.4,1.3,2,2.4,2.1l0,0l0,0
																c0.6,0.1,1.2-0.1,1.6-0.4c0.4-0.3,0.7-0.9,0.8-1.6c0.2-1.2-0.3-2-1-2.7H242l-0.8,0.8c0,0,0,0,0,0.1v0.1
																c0.6,0.6,0.8,1.1,0.8,1.6C241.9,241.6,241.5,241.9,240.9,241.8z"/>
															<path class="st1" d="M239.8,248.6L239.8,248.6c-0.6-0.1-1-0.5-1.6-1.5l-1.6-2.6c0,0,0,0-0.1,0l-0.9-0.1h-0.1
																c0,0,0,0,0,0.1l-0.7,4.8c0,0.1,0,0.1,0.1,0.1l1,0.1h0.1c0,0,0,0,0-0.1l0.4-3l0.8,1.4c0.8,1.4,1.3,2,2.4,2.1l0,0l0,0
																c0.6,0.1,1.2-0.1,1.6-0.4c0.4-0.3,0.7-0.9,0.8-1.6c0.2-1.2-0.3-2-1-2.7l0,0l-0.8,0.8c0,0,0,0,0,0.1v0.1
																c0.6,0.6,0.8,1.1,0.8,1.6C240.9,248.4,240.4,248.7,239.8,248.6z"/>
															<path class="st1" d="M255.4,249.9C255.5,249.9,255.5,249.9,255.4,249.9l0.9-5.5l6-4.7l7.1,12.2c0,0,0,0,0.1,0
																l1.9,0.3h0.1v-0.1l-7.8-13.4l10.6-8.1v-0.1c0,0,0-0.1-0.1-0.1l-2-0.3h-0.1l-15.6,12.2l2.1-14.1c0-0.1,0-0.1-0.1-0.1
																L257,228c-0.1,0-0.1,0-0.1,0.1l-3.2,21.6c0,0.1,0,0.1,0.1,0.1L255.4,249.9z"/>
															<path class="st1" d="M273.3,237.6C273.2,237.6,273.2,237.6,273.3,237.6l-1,1.2c0,0,0,0,0,0.1v0.1l3.2,2.1l-3.6,1.2
																c0,0,0,0-0.1,0.1v0.1l0.5,1.4c0,0,0,0,0.1,0.1h0.1l3.4-1.6l-0.8,3.6v0.1v0.1c0,0,0,0,0.1,0l1.4,0.2h0.1
																c0,0,0,0,0-0.1l0.3-3.8l2.7,2.5c0,0,0,0,0.1,0h0.1l0.9-1.2c0,0,0,0,0-0.1v-0.1l-3.2-2.1l3.6-1.2c0,0,0,0,0.1-0.1V240
																l-0.5-1.4c0,0,0,0-0.1-0.1h-0.1l-3.4,1.6l0.8-3.6v-0.1v-0.1c0,0,0,0-0.1,0l-1.4-0.2h-0.1c0,0,0,0,0,0.1l-0.3,3.8
																L273.3,237.6L273.3,237.6z"/>
															<path class="st1" d="M285.2,254.3C285.3,254.3,285.3,254.3,285.2,254.3l2.9-19.2l12.1,21.4c0,0,0,0,0.1,0l1.1,0.1
																c0.1,0,0.1,0,0.1-0.1l3.2-21.6c0-0.1,0-0.1-0.1-0.1l-1.4-0.2c-0.1,0-0.1,0-0.1,0.1l-2.7,18.8l-11.9-20.9
																c0,0,0,0-0.1,0l-1.4-0.2c-0.1,0-0.1,0-0.1,0.1l-3.2,21.6c0,0.1,0,0.1,0.1,0.1L285.2,254.3z"/>
															<path class="st1" d="M315.2,250.5c2.8,0.4,5.3-0.6,7.2-3.1l-0.1,0.8c-0.9,6-4.5,9.8-8.5,9.3c-1.9-0.3-3.4-1.3-5-3.2
																c0,0,0,0-0.1,0h-0.1l-1.1,1v0.1c1.9,2.1,3.7,3.3,6,3.6c2.4,0.3,4.8-0.5,6.7-2.4c1.9-1.9,3.2-4.7,3.7-8v-0.1
																c0.6-4,0.1-6.7-1.4-8.9c-1.2-1.6-3-2.7-5.1-3c-4.3-0.6-8,2-8.6,6.2v0.1C308.2,246.5,311,249.9,315.2,250.5z
																 M310.5,242.9L310.5,242.9c0.2-1.6,1-2.9,2.1-3.8c1.2-1,2.7-1.4,4.4-1.2c3.4,0.5,5.7,3.2,5.2,6.4v0.1
																c-0.2,1.4-1,2.7-2.1,3.5c-1.2,1-2.9,1.3-4.5,1.1C312.2,248.5,310,245.9,310.5,242.9z"/>
															<path class="st1" d="M333.7,240.8l-3,20.1c0,0.1,0,0.1,0.1,0.1l1.5,0.2c0.1,0,0.1,0,0.1-0.1l3-20.1l7.3,1.1
																c0.1,0,0.1,0,0.1-0.1l0.2-1.4c0-0.1,0-0.1-0.1-0.1l-16.3-2.4c-0.1,0-0.1,0-0.1,0.1l-0.2,1.4c0,0.1,0,0.1,0.1,0.1
																L333.7,240.8z"/>
															<path class="st1" d="M355.4,262.6l-1-0.1h-0.1c0,0,0,0,0,0.1l-0.4,3l-0.8-1.4c-0.8-1.4-1.3-2-2.4-2.1l0,0l0,0
																c-0.6-0.1-1.2,0.1-1.6,0.4s-0.7,0.9-0.8,1.6c-0.2,1.2,0.3,2,1,2.7h0.1l0.8-0.8c0,0,0,0,0-0.1v-0.1
																c-0.6-0.6-0.8-1.1-0.8-1.6c0.1-0.6,0.5-1,1.1-0.9l0,0c0.6,0.1,1,0.5,1.6,1.5l1.6,2.6c0,0,0,0,0.1,0l0.9,0.1h0.1
																c0,0,0,0,0-0.1l0.7-4.8C355.4,262.6,355.4,262.6,355.4,262.6z"/>
															<path class="st1" d="M353.1,254.7L353.1,254.7L353.1,254.7c-2.1-0.3-3.7,0.8-4,2.5s1,3.2,3.1,3.5l0,0l0,0
																c1,0.1,1.9,0,2.6-0.4s1.2-1.2,1.4-2s-0.1-1.6-0.7-2.3C354.9,255.3,354,254.9,353.1,254.7z M354.9,258
																c-0.1,0.5-0.3,0.8-0.8,1.1c-0.5,0.2-1.1,0.3-1.7,0.2l0,0l0,0c-1.3-0.2-2.2-1-2.1-2s1.2-1.5,2.5-1.3l0,0
																C354.3,256.3,355.1,257.1,354.9,258z"/>
															<path class="st1" d="M352.4,249.9L352.4,249.9c0.6,0.1,1,0.5,1.6,1.5l1.6,2.6c0,0,0,0,0.1,0l0.9,0.1h0.1
																c0,0,0,0,0-0.1l0.7-4.8c0-0.1,0-0.1-0.1-0.1l-1-0.1h-0.1c0,0,0,0,0,0.1l-0.4,3l-0.8-1.4c-0.8-1.4-1.3-2-2.4-2.1l0,0
																l0,0c-0.6-0.1-1.2,0.1-1.6,0.4s-0.7,0.9-0.8,1.6c-0.2,1.2,0.3,2,1,2.7h0.1l0.8-0.8c0,0,0,0,0-0.1v-0.1
																c-0.6-0.6-0.8-1.1-0.8-1.6C351.4,250.1,351.9,249.8,352.4,249.9z"/>
															<path class="st1" d="M353.4,243L353.4,243c0.6,0.1,1,0.5,1.6,1.5l1.6,2.6c0,0,0,0,0.1,0l0.9,0.1h0.1c0,0,0,0,0-0.1
																l0.7-4.8c0-0.1,0-0.1-0.1-0.1l-1-0.1h-0.1c0,0,0,0,0,0.1l-0.4,3l-0.8-1.4c-0.8-1.4-1.3-2-2.4-2.1l0,0l0,0
																c-0.6-0.1-1.2,0.1-1.6,0.4s-0.7,0.9-0.8,1.6c-0.2,1.2,0.3,2,1,2.7h0.1l0.8-0.8c0,0,0,0,0-0.1v-0.1
																c-0.6-0.6-0.8-1.1-0.8-1.6C352.4,243.3,352.8,242.9,353.4,243z"/>
														</g>
													</g>
												</g>
											</g>
										</g>
									</g>
								</g>
							</g>
						</g>
					</g>
				</g>
			</g>
		</g>
	</g>
</g>
<g>
	<path class="st9" d="M761.9,123.5L761.9,123.5c0.1,0.1,0.2,0.2,0.3,0.2l0,0c0,0,0,0,0.1,0l0,0c0,0,0.1,0,0.2,0c0.1,0,0.2,0,0.2-0.1
		L825,94.4c0.2-0.1,0.4-0.4,0.4-0.6c0-0.3-0.2-0.5-0.4-0.6L778.7,78l16.9-47.4c0.1-0.3,0-0.5-0.2-0.7s-0.5-0.2-0.7-0.1l-62.3,29.3
		c-0.3,0.2-0.5,0.5-0.3,0.9L761.9,123.5C761.8,123.4,761.8,123.5,761.9,123.5z M823,93.9l-59.4,28l14.7-42.7L823,93.9z M762.3,121.4
		L748,91.1l15.9-45.5l29.8-14l-16.6,46.5l0,0L762.3,121.4z M747.2,89.4L733.3,60l28.9-13.6L747.2,89.4z"/>
</g>
<path class="st2" d="M4,0.5h647c1.9,0,3.5,1.6,3.5,3.5v255.2c0,1.9-1.6,3.5-3.5,3.5H4c-1.9,0-3.5-1.6-3.5-3.5V4
	C0.5,2.1,2.1,0.5,4,0.5z"/>
<g>
	<text transform="matrix(1 0 0 1 448.4169 82.8923)" class="st10 st11">Amsterdam</text>
	<text transform="matrix(1 0 0 1 448.0136 105.61)" class="st10 st11">01/06</text>
</g>
</svg>
