<?xml version="1.0" encoding="utf-8"?>
<!-- Generator: Adobe Illustrator 24.1.2, SVG Export Plug-In . SVG Version: 6.00 Build 0)  -->
<svg version="1.1" id="Layer_1" xmlns="http://www.w3.org/2000/svg" xmlns:xlink="http://www.w3.org/1999/xlink" x="0px" y="0px"
	 viewBox="0 0 968 575" style="enable-background:new 0 0 968 575;" xml:space="preserve">
<style type="text/css">
	.st0{clip-path:url(#SVGID_2_);}
	.st1{fill:#EDEDED;}
	.st2{clip-path:url(#SVGID_6_);}
	.st3{fill:#FFFFFF;}
	.st4{fill:#B2B2B2;}
	.st5{clip-path:url(#SVGID_9_);}
	.st6{fill:none;}
	.st7{font-family:'JetBrainsMono-Medium';}
	.st8{font-size:87.9663px;}
	.st9{font-size:4px;}
	.st10{enable-background:new    ;}
	.st11{font-size:15.9946px;}
	.st12{clip-path:url(#SVGID_11_);}
	.st13{fill:#004DCC;}
	.st14{fill:#FF9E17;}
	.st15{clip-path:url(#SVGID_13_);}
	.st16{fill:#FF9E17;stroke:#FF9E17;stroke-width:0.1512;stroke-linecap:round;stroke-linejoin:round;stroke-miterlimit:10;}
	.st17{clip-path:url(#SVGID_15_);}
	.st18{fill:#FB9600;}
	.st19{clip-path:url(#SVGID_17_);}
	.st20{clip-path:url(#SVGID_19_);}
	.st21{clip-path:url(#SVGID_21_);}
	.st22{fill:#F8961D;}
	.st23{clip-path:url(#SVGID_23_);}
	.st24{fill:#C6C6C6;}
	.st25{fill:#DADADA;}
	.st26{fill:none;stroke:#E5E5E5;}
	.st27{fill:#1E1E1F;}
</style>
<g>
	<g>
		<g>
			<g>
				<g>
					<g>
						<g>
							<defs>
								<rect id="SVGID_1_" x="0.5" y="1.3" width="956" height="523"/>
							</defs>
							<clipPath id="SVGID_2_">
								<use xlink:href="#SVGID_1_"  style="overflow:visible;"/>
							</clipPath>
							<g class="st0">
								<g>
									<rect id="SVGID_3_" x="-10.8" y="1.3" class="st1" width="967.3" height="523"/>
								</g>
								<g>
									<g>
										<g>
											<g>
												<g>
													<g>
														<defs>
															<rect id="SVGID_4_" x="-10.8" y="1.3" width="967.3" height="523"/>
														</defs>
														<clipPath id="SVGID_6_">
															<use xlink:href="#SVGID_4_"  style="overflow:visible;"/>
														</clipPath>
														<g class="st2">
															<polyline class="st3" points="239.2,35.6 239.2,301.3 822.1,301.3 822.1,35.6 															"/>
															<rect x="239.2" y="313.4" class="st3" width="582.9" height="97.4"/>
															<rect x="103.4" y="191.8" class="st4" width="94.1" height="13.1"/>
															<rect x="102.8" y="237.3" class="st4" width="54.2" height="7.6"/>
															<rect x="102.8" y="260.3" class="st4" width="69.9" height="7.6"/>
															<rect x="259.3" y="335.5" class="st4" width="138.4" height="7.6"/>
															<rect x="102.8" y="283.2" class="st4" width="54.2" height="7.6"/>
															<rect x="102.8" y="306.2" class="st4" width="65" height="7.6"/>
															<rect x="102.8" y="329.2" class="st4" width="34.3" height="7.6"/>
															<rect x="102.8" y="352.1" class="st4" width="46" height="7.6"/>
															<rect x="102.8" y="375.1" class="st4" width="54.2" height="7.6"/>
															<rect x="102.8" y="398" class="st4" width="72.6" height="7.6"/>
															<g>
																<g>
																	<rect id="SVGID_5_" x="239.4" y="36.6" class="st3" width="582.9" height="233.9"/>
																</g>
																<g>
																	<g>
																		<g>
																			<g>
																				<g>
																					<g>
																						<defs>
																							<rect id="SVGID_8_" x="239.4" y="36.6" width="582.9" height="233.9"/>
																						</defs>
																						<clipPath id="SVGID_9_">
																							<use xlink:href="#SVGID_8_"  style="overflow:visible;"/>
																						</clipPath>
																						<g class="st5">
																							<rect x="256.3" y="59.1" class="st6" width="530.7" height="183.3"/>
																							<text transform="matrix(1 0 0 1 256.2762 122.439)" class="st7 st8"> </text>
																							<text transform="matrix(1 0 0 1 306.7762 122.439)" class="st7 st9"> </text>
																							<g class="st10">
																								<path d="M315.1,92.2c0-2.9,0.5-5.5,1.5-7.8s2.3-4.4,4.1-6c1.8-1.7,3.9-3,6.4-3.9s5.3-1.4,8.4-1.4
																									c6.2,0,11.2,1.7,14.8,5.1c3.7,3.4,5.5,8,5.5,13.9v12.1c0,5.9-1.8,10.5-5.5,13.9c-3.6,3.4-8.6,5.1-14.9,5.1
																									c-3.1,0-5.9-0.5-8.4-1.4s-4.6-2.2-6.4-3.9c-1.8-1.7-3.1-3.7-4.1-6s-1.5-5-1.5-7.8V92.2H315.1z M324.8,104.2
																									c0,3.3,0.9,5.9,2.8,7.7c1.9,1.9,4.5,2.8,7.8,2.8s5.9-0.9,7.8-2.8s2.9-4.5,2.9-7.7v-12c0-3.3-1-5.9-2.9-7.7
																									c-1.9-1.9-4.5-2.8-7.8-2.8s-5.9,0.9-7.8,2.8s-2.9,4.5-2.9,7.7v12H324.8z"/>
																								<path d="M366.4,74.1H380v-15h9.7v15h18.6v8.7h-18.6v25.8c0,1.6,0.5,2.9,1.5,3.8s2.3,1.4,4,1.4h12.3v8.7
																									h-12.8c-4.5,0-8.1-1.3-10.7-3.8s-4-5.9-4-10.1V82.8h-13.6V74.1z"/>
																								<path d="M443,59.1v48.5c0,1.9,0.5,3.4,1.6,4.5s2.5,1.6,4.4,1.6h14.4v8.7h-14.8c-4.8,0-8.5-1.3-11.2-4
																									c-2.7-2.6-4.1-6.3-4.1-10.9V67.9h-15.7v-8.8C417.6,59.1,443,59.1,443,59.1z"/>
																								<path d="M475.2,122.4v-8.8h17.5V82.8h-15.3v-8.7h24.7v39.6h14.2v8.8h-41.1V122.4z M495.5,55.1h1.8
																									c1.8,0,3.3,0.5,4.4,1.5s1.6,2.4,1.6,4.1c0,1.7-0.5,3-1.6,4s-2.5,1.5-4.4,1.5h-1.8c-1.8,0-3.3-0.5-4.4-1.5
																									s-1.7-2.3-1.7-4s0.6-3.1,1.7-4.1C492.2,55.7,493.7,55.1,495.5,55.1z"/>
																								<path d="M536.3,74.1v8.4h0.8c0.6-3,2.1-5.3,4.3-6.9s5.1-2.4,8.6-2.4c5,0,9,1.6,11.7,4.8
																									c2.8,3.2,4.2,7.4,4.2,12.6v31.8h-9.7V91.9c0-3.3-0.9-5.9-2.6-7.7c-1.7-1.8-4-2.7-7-2.7s-5.5,1-7.2,2.9
																									c-1.8,1.9-2.6,4.6-2.6,7.9v30.2h-9.7V74.1H536.3z"/>
																							</g>
																							<g class="st10">
																								<path d="M275,175.7l15.7,42.3c0.4,1,0.8,2.2,1.1,3.5c0.3,1.3,0.6,2.6,0.9,3.7c0.4,1.5,0.7,2.9,1,4.4h0.9
																									c-0.2-1.6-0.3-3-0.5-4.3c-0.1-1.3-0.3-2.7-0.4-4.2c-0.1-1.6-0.2-3.1-0.2-4.6v-40.8h8.9V239h-12.1
																									l-15.4-42.4c-0.5-1.2-0.9-2.4-1.2-3.8c-0.4-1.3-0.7-2.6-1-3.8c-0.3-1.3-0.6-2.7-0.9-4H271
																									c0.2,1.3,0.3,2.6,0.4,4c0.1,1.2,0.2,2.5,0.3,4.1s0.1,3.2,0.1,4.9v41H263v-63.3H275z"/>
																								<path d="M316.8,239v-8.8h17.5v-30.9H319v-8.7h24.7v39.6h14.2v8.8L316.8,239L316.8,239z M337.1,171.7h1.8
																									c1.8,0,3.3,0.5,4.4,1.5s1.6,2.4,1.6,4.1c0,1.7-0.5,3-1.6,4s-2.5,1.5-4.4,1.5h-1.8c-1.8,0-3.3-0.5-4.4-1.5
																									s-1.7-2.3-1.7-4s0.6-3.1,1.7-4.1C333.8,172.3,335.3,171.7,337.1,171.7z"/>
																								<path d="M367.6,208.3c0-5.7,1.5-10.2,4.5-13.5s7-5,12.1-5c3.6,0,6.6,0.9,8.9,2.6c2.4,1.7,3.9,4.1,4.6,7.1
																									h0.6v-8.8h9.2v45.5c0,5.5-1.8,9.9-5.3,13.1c-3.5,3.2-8.3,4.8-14.3,4.8h-12.5v-8.4H388
																									c3.1,0,5.5-0.8,7.3-2.5s2.6-4,2.6-7v-1.7l0.4-8.8h-0.5c-0.7,3-2.3,5.4-4.7,7.1c-2.4,1.7-5.4,2.6-9,2.6
																									c-5,0-9.1-1.7-12.1-5.1c-3-3.4-4.5-7.9-4.5-13.6v-8.4H367.6z M377.3,216.6c0,3.2,0.9,5.8,2.8,7.6
																									s4.4,2.8,7.5,2.8c3.2,0,5.7-0.9,7.5-2.8c1.8-1.8,2.8-4.4,2.8-7.6v-8.1c0-3.2-0.9-5.8-2.8-7.6
																									c-1.8-1.8-4.4-2.8-7.5-2.8c-3.2,0-5.7,0.9-7.5,2.8c-1.8,1.8-2.8,4.4-2.8,7.6V216.6z"/>
																								<path d="M421.6,175.7h9.7v15c0,0.8,0,1.7-0.1,2.7s-0.1,1.9-0.2,2.7c-0.1,0.9-0.2,1.8-0.2,2.9h0.8
																									c0.6-2.9,2.1-5.2,4.4-6.8s5.1-2.4,8.6-2.4c4.9,0,8.7,1.6,11.6,4.7c2.9,3.1,4.3,7.4,4.3,12.7V239h-9.7v-30.5
																									c0-3.3-0.9-5.8-2.6-7.7c-1.7-1.8-4-2.8-7-2.8c-3.1,0-5.5,1-7.2,2.9c-1.8,1.9-2.6,4.6-2.6,7.9V239h-9.7
																									L421.6,175.7L421.6,175.7z"/>
																								<path d="M472,190.7h13.6v-15h9.7v15h18.6v8.7h-18.6v25.8c0,1.6,0.5,2.9,1.5,3.8c1,0.9,2.3,1.4,4,1.4H513
																									v8.7h-12.8c-4.5,0-8.1-1.3-10.7-3.8s-4-5.9-4-10.1v-25.8H472V190.7z"/>
																								<path d="M619,192.9c0,4.6-1.2,8.9-3.7,13.1c-2.4,4.1-6.4,8.5-11.8,13.1l-9.9,8.4c-0.5,0.4-1,0.7-1.5,1
																									s-1,0.6-1.5,0.9c-0.5,0.3-1.1,0.6-1.6,0.8v0.4c0.9-0.1,1.8-0.1,2.6-0.1c0.8-0.1,1.7-0.1,2.6-0.1
																									c0.9,0,1.8,0,2.7,0h22.7v8.7h-41.3v-10.4l18.6-15.5c4.3-3.6,7.4-7,9.3-10.1c1.8-3.1,2.8-6.3,2.8-9.8
																									c0-3-0.9-5.5-2.7-7.3s-4.3-2.7-7.4-2.7c-3.3,0-6,0.9-8.1,2.6c-2.1,1.8-3.1,4.1-3.1,7h-9.9
																									c0.1-2.8,0.6-5.2,1.6-7.5c1-2.2,2.5-4.1,4.3-5.7c1.8-1.6,4.1-2.8,6.6-3.7c2.6-0.9,5.4-1.3,8.5-1.3
																									c3,0,5.7,0.4,8.1,1.3c2.4,0.9,4.5,2.1,6.3,3.7c1.8,1.6,3.1,3.5,4,5.7C618.6,187.7,619,190.2,619,192.9z"/>
																								<path d="M631.8,220.7V194c0-2.9,0.5-5.6,1.5-7.9c1-2.3,2.3-4.4,4.1-6c1.8-1.7,3.9-3,6.4-3.9
																									s5.3-1.4,8.4-1.4c3.1,0,5.9,0.5,8.4,1.4s4.6,2.2,6.4,3.9c1.8,1.7,3.1,3.7,4,6s1.4,5,1.4,7.9v26.7
																									c0,5.8-1.8,10.5-5.5,13.9c-3.7,3.5-8.6,5.2-14.7,5.2c-3.1,0-5.9-0.5-8.4-1.4s-4.6-2.2-6.4-3.9
																									c-1.8-1.7-3.1-3.7-4.1-6.1C632.3,226.2,631.8,223.6,631.8,220.7z M640.9,220.6c0,3.3,1,6,3.1,8s4.8,3,8.1,3
																									s6-1,8-3s3-4.7,3-8v-26.4c0-3.3-1-6-3-8s-4.7-3-8-3s-6,1-8.1,3s-3.1,4.7-3.1,8V220.6z M647.7,205.6
																									c0-1.5,0.4-2.6,1.2-3.5s1.9-1.3,3.2-1.3s2.4,0.4,3.2,1.3c0.8,0.9,1.2,2.1,1.2,3.5v3.5
																									c0,1.5-0.4,2.6-1.2,3.5s-1.9,1.3-3.2,1.3s-2.4-0.4-3.2-1.3s-1.2-2.1-1.2-3.5V205.6z"/>
																								<path d="M724.6,192.9c0,4.6-1.2,8.9-3.7,13.1c-2.4,4.1-6.4,8.5-11.8,13.1l-9.9,8.4c-0.5,0.4-1,0.7-1.5,1
																									s-1,0.6-1.5,0.9c-0.5,0.3-1.1,0.6-1.6,0.8v0.4c0.9-0.1,1.8-0.1,2.6-0.1c0.8-0.1,1.7-0.1,2.6-0.1
																									c0.9,0,1.8,0,2.7,0h22.7v8.7H684v-10.4l18.6-15.5c4.3-3.6,7.4-7,9.3-10.1c1.8-3.1,2.8-6.3,2.8-9.8
																									c0-3-0.9-5.5-2.7-7.3s-4.3-2.7-7.4-2.7c-3.3,0-6,0.9-8.1,2.6c-2.1,1.8-3.1,4.1-3.1,7h-9.9
																									c0.1-2.8,0.6-5.2,1.6-7.5c1-2.2,2.5-4.1,4.3-5.7c1.8-1.6,4.1-2.8,6.6-3.7c2.6-0.9,5.4-1.3,8.5-1.3
																									c3,0,5.7,0.4,8.1,1.3c2.4,0.9,4.5,2.1,6.3,3.7c1.8,1.6,3.1,3.5,4,5.7C724.1,187.7,724.6,190.2,724.6,192.9z
																									"/>
																								<path d="M777.4,192.9c0,4.6-1.2,8.9-3.7,13.1c-2.4,4.1-6.4,8.5-11.8,13.1l-9.9,8.4c-0.5,0.4-1,0.7-1.5,1
																									s-1,0.6-1.5,0.9c-0.5,0.3-1.1,0.6-1.6,0.8v0.4c0.9-0.1,1.8-0.1,2.6-0.1c0.8-0.1,1.7-0.1,2.6-0.1
																									c0.9,0,1.8,0,2.7,0H778v8.7h-41.3v-10.4l18.6-15.5c4.3-3.6,7.4-7,9.3-10.1c1.8-3.1,2.8-6.3,2.8-9.8
																									c0-3-0.9-5.5-2.7-7.3s-4.3-2.7-7.4-2.7c-3.3,0-6,0.9-8.1,2.6c-2.1,1.8-3.1,4.1-3.1,7h-9.9
																									c0.1-2.8,0.6-5.2,1.6-7.5c1-2.2,2.5-4.1,4.3-5.7c1.8-1.6,4.1-2.8,6.6-3.7c2.6-0.9,5.4-1.3,8.5-1.3
																									c3,0,5.7,0.4,8.1,1.3c2.4,0.9,4.5,2.1,6.3,3.7c1.8,1.6,3.1,3.5,4,5.7C776.9,187.7,777.4,190.2,777.4,192.9z
																									"/>
																							</g>
																							<g>
																								<rect x="576.9" y="90.6" class="st6" width="153.8" height="31.9"/>
																								<text transform="matrix(1 0 0 1 576.9 102.1377)" class="st7 st11">Amsterdam</text>
																								<text transform="matrix(1 0 0 1 576.9 122.4377)" class="st7 st11">01/06</text>
																							</g>
																						</g>
																					</g>
																				</g>
																			</g>
																		</g>
																	</g>
																</g>
																<g>
																	<g>
																		<g>
																			<g>
																				<g>
																					<g>
																						<defs>
																							<rect id="SVGID_10_" x="239.4" y="36.6" width="582.9" height="233.9"/>
																						</defs>
																						<clipPath id="SVGID_11_">
																							<use xlink:href="#SVGID_10_"  style="overflow:visible;"/>
																						</clipPath>
																						<g class="st12">
																							<g>
																								<path class="st13" d="M330.4,114.7l-28.1-20.1l21.6-27.1c1.9-2.6,2.1-5.9,0.4-8.7c-1.6-2.8-4.6-4.2-7.8-3.8
																									l-56.1,7.6l0,0l0,0c-2.1,0.3-3.9,1.4-5.2,3c-1.3,1.7-1.8,3.8-1.5,5.8l8,58.1c0.6,4.3,4.6,7.3,8.9,6.7
																									l56.1-7.5c3.2-0.4,5.7-2.6,6.5-5.7S333,116.7,330.4,114.7C330.5,114.7,330.4,114.7,330.4,114.7z"/>
																							</g>
																							<path class="st14" d="M268,129.5L268,129.5c0.1,0.1,0.1,0.2,0.2,0.3l0,0l0,0l0,0c0,0,0.1,0,0.1,0.1
																								c0.1,0,0.1,0,0.2,0l59-8.1c0.2,0,0.4-0.2,0.5-0.4c0.1-0.2,0-0.5-0.2-0.6l-34.3-24.5l26.2-34.8
																								c0.1-0.2,0.2-0.4,0-0.6c-0.1-0.2-0.3-0.3-0.6-0.3l-59,8.1c-0.3,0-0.5,0.3-0.5,0.6L268,129.5
																								C268,129.4,268,129.4,268,129.5z M326,120.8l-56.3,7.7L292.8,97L326,120.8z M268.9,127.8L265,99.1l24.9-33.4
																								l28.2-3.9L292.3,96l0,0L268.9,127.8z M264.7,97.5l-3.8-27.9l27.3-3.8L264.7,97.5z"/>
																						</g>
																					</g>
																				</g>
																			</g>
																		</g>
																	</g>
																</g>
																<g>
																	<g>
																		<g>
																			<g>
																				<g>
																					<g>
																						<defs>
																							<rect id="SVGID_12_" x="239.4" y="36.6" width="582.9" height="233.9"/>
																						</defs>
																						<clipPath id="SVGID_13_">
																							<use xlink:href="#SVGID_12_"  style="overflow:visible;"/>
																						</clipPath>
																						<g class="st15">
																							<path class="st13" d="M800.2,69C800.2,68.9,800.2,68.9,800.2,69C800.2,68.9,800.2,68.9,800.2,69
																								c-0.4-3.8-2.9-6.9-6.4-8.2c-0.2-0.1-0.5-0.2-0.7-0.2l-20.5-5.4l-3.1-20.8c-0.5-3.6-3-6.5-6.4-7.7
																								c-0.4-0.1-0.8-0.2-1.2-0.3c-3.9-0.9-8,0.9-10.2,4.2l-11.4,17.7l-20.9-3.5c-3.9-0.7-7.9,1.2-9.9,4.6v0.1l0,0
																								c-2,3.5-1.7,7.9,0.9,11l13.3,16.3L714,95.5c-1.8,3.5-1.3,7.9,1.3,10.8l0,0l0,0l0,0c1.1,1.2,2.5,2.1,4,2.7
																								c2.2,0.8,4.6,0.7,6.8-0.1l19.6-7.6l14.8,15.1c1,1,2.3,1.8,3.6,2.3c2.3,0.8,4.8,0.7,7.1-0.3h0.1
																								c0.1,0,0.1,0,0.2-0.1c3.6-1.7,5.9-5.4,5.6-9.4L776,88l18.9-9.4C798.4,76.8,800.6,73,800.2,69z M716.2,105.6
																								L716.2,105.6L716.2,105.6L716.2,105.6z"/>
																							<g>
																								<g>
																									<path class="st14" d="M746.8,86.4c-3.5-1.2-6.3-3.7-8-7.1l0.3-0.2c1.9,3.8,5.4,6.5,9.6,7.4
																										c3.6,0.8,7.2,0.1,10.3-1.8c0.7-0.4,1-0.6,1.6-1.2l0.2,0.3c-0.6,0.6-1,0.8-1.7,1.2c-3.2,2-7,2.6-10.6,1.8
																										C747.9,86.7,747.3,86.6,746.8,86.4z"/>
																								</g>
																							</g>
																							<g>
																								<path class="st16" d="M761,83.4c-0.1-0.1-0.2-0.1-0.3-0.2c-0.1,0-0.2,0-0.3,0.1c-0.6,0.5-0.9,0.7-1.6,1.1
																									c-3,1.9-6.6,2.5-10.1,1.7c-4.1-0.9-7.5-3.5-9.4-7.2c-0.1-0.2-0.4-0.3-0.6-0.2c-0.1,0.1-0.2,0.2-0.2,0.3
																									c0,0.1,0,0.2,0,0.4c1.7,3.4,4.6,6,8.2,7.2c0.6,0.2,1.2,0.4,1.8,0.5c3.1,0.7,6.3,0.3,9.3-1
																									c0.5-0.3,1.1-0.5,1.6-0.9c0.7-0.4,1-0.6,1.7-1.2C761.2,83.9,761.2,83.6,761,83.4z"/>
																								<path class="st16" d="M795.2,69.8L795.2,69.8L795.2,69.8v-0.2v-0.2l0,0c-0.3-1.8-1.6-3.4-3.4-3.9l-7.5-2
																									l1.2-1.7c0.1-0.1,0.1-0.3,0-0.5c-0.1-0.1-0.2-0.2-0.4-0.3l-16.9-1.9l-3.5-23.9c-0.3-1.9-1.7-3.5-3.6-3.9
																									c-1.9-0.4-3.9,0.4-4.9,2l-13.1,20.4l-16.3-5.2c-0.2-0.1-0.3,0-0.4,0.1c-0.1,0.1-0.2,0.3-0.2,0.4l0.4,2
																									l-7.5-1.3c-1.9-0.3-3.9,0.6-4.8,2.3c-1,1.7-0.8,3.8,0.4,5.3l15.4,18.9l-11.3,21.6c-0.9,1.7-0.6,3.8,0.7,5.3
																									c0.5,0.5,1.1,0.9,1.7,1.2c0.1,0,0.1,0.1,0.2,0.1c1.1,0.4,2.2,0.4,3.3,0l22.7-8.8l17,17.4
																									c1.4,1.4,3.5,1.8,5.2,1c1.8-0.8,2.9-2.6,2.8-4.5L770.7,85l21.8-10.8C794.2,73.4,795.3,71.6,795.2,69.8z
																									 M756.8,33.8c0.8-1.3,2.4-2,4-1.6c0.2,0,0.3,0.1,0.5,0.1c0.1,0,0.1,0,0.2,0.1c1.2,0.5,2.1,1.6,2.3,2.9
																									l3.5,23.7l-9.7-1.1l-4.5-1l-9.2-3L756.8,33.8z M752.8,57.9l4.6,1l26.8,3.1l-12.1,17.5l-14.4-3.1l-0.2-13.5
																									c0-0.2-0.1-0.4-0.4-0.4l-5.7-1.2c-0.2,0-0.4,0.1-0.5,0.3l-5.7,12.3l-14.4-3.1l-3.8-21L752.8,57.9z
																									 M770.1,84.3l-0.3,0.1l1.4,24.9c0.1,1.6-0.8,3-2.2,3.7c-1.4,0.6-3.1,0.3-4.2-0.8l-17.4-17.8l-0.1-0.1
																									l-23.3,9c-1.5,0.6-3.1,0.2-4.2-1c-1-1.2-1.2-2.9-0.5-4.3l11.6-22l-15.8-19.3c-1-1.2-1.1-2.9-0.3-4.3
																									c0.8-1.3,2.3-2.1,3.9-1.8l7.8,1.3l3.4,19c0,0.2,0.1,0.3,0.3,0.4c0,0,0,0,0.1,0l15.1,3.3
																									c0.2,0,0.4-0.1,0.5-0.3l5.7-12.3l5,1.1l0.2,13.5c0,0.2,0.1,0.4,0.4,0.4l15.1,3.3c0.1,0,0.2,0,0.3,0
																									s0.1-0.1,0.2-0.2l10.9-15.9l7.8,2.1c1.5,0.4,2.6,1.7,2.8,3.3c0.2,1.6-0.7,3.1-2.1,3.8L770.1,84.3z"/>
																								<path class="st16" d="M771.1,66.6L771.1,66.6c0.2,0,0.3,0,0.3,0c0.1-0.1,0.2-0.2,0.3-0.3l0.7-3.1
																									c0-0.1,0-0.2-0.1-0.3s-0.2-0.2-0.3-0.2s-0.2,0-0.3,0.1s-0.2,0.2-0.2,0.3l-0.7,3.1
																									C770.8,66.3,770.9,66.5,771.1,66.6z"/>
																								<path class="st16" d="M770.3,69.1c-0.1,0.1-0.2,0.2-0.2,0.3l-0.7,3.1c0,0.1,0,0.2,0.1,0.3
																									c0.1,0.1,0.1,0.2,0.2,0.2c0,0,0,0,0.1,0s0.2,0,0.3,0l0,0c0.1-0.1,0.2-0.2,0.3-0.3l0.7-3.1
																									c0.1-0.2-0.1-0.5-0.4-0.5C770.5,69,770.4,69.1,770.3,69.1z"/>
																								<path class="st16" d="M772.4,68.6C772.4,68.6,772.5,68.6,772.4,68.6l3.2,0.7c0.1,0,0.2,0,0.3,0l0,0
																									c0.1-0.1,0.2-0.2,0.3-0.3c0-0.1,0-0.2-0.1-0.3c-0.1-0.1-0.2-0.2-0.3-0.2l-3.1-0.7c-0.1,0-0.2,0-0.3,0.1
																									s-0.2,0.2-0.2,0.3C772.2,68.3,772.2,68.4,772.4,68.6C772.2,68.5,772.3,68.6,772.4,68.6z"/>
																								<path class="st16" d="M765.9,67.2C765.9,67.2,766,67.2,765.9,67.2l3.2,0.7c0.1,0,0.2,0,0.3,0l0,0
																									c0.1-0.1,0.2-0.2,0.3-0.3c0-0.1,0-0.2-0.1-0.3c-0.1-0.1-0.2-0.2-0.3-0.2l-3.1-0.7c-0.1,0-0.2,0-0.3,0.1
																									s-0.2,0.2-0.2,0.3C765.7,66.9,765.7,67,765.9,67.2C765.7,67.1,765.8,67.2,765.9,67.2z"/>
																							</g>
																						</g>
																					</g>
																				</g>
																			</g>
																		</g>
																	</g>
																</g>
																<g>
																	<g>
																		<g>
																			<g>
																				<g>
																					<g>
																						<defs>
																							<rect id="SVGID_14_" x="239.4" y="36.6" width="582.9" height="233.9"/>
																						</defs>
																						<clipPath id="SVGID_15_">
																							<use xlink:href="#SVGID_14_"  style="overflow:visible;"/>
																						</clipPath>
																						<g class="st17">
																							<g>
																								
																									<ellipse transform="matrix(0.7071 -0.7071 0.7071 0.7071 -19.0368 224.8402)" class="st18" cx="261.9" cy="135.4" rx="41.3" ry="41.3"/>
																							</g>
																							<g>
																								<polygon class="st13" points="237.7,144.1 235.8,144.6 235.8,144.6 234.4,143.8 234.4,143.8 236.7,140.7 
																									236.4,139.5 233.5,143.3 233.4,143.3 229.9,141.4 230.3,142.7 234.6,144.9 231.2,145.9 231.5,146.9 
																									238,145.1 																								"/>
																								<path class="st13" d="M233,139.8L233,139.8L233,139.8c1,0,1.9-0.4,2.5-1c0.6-0.7,1-1.6,1-2.5
																									c0-1-0.4-1.9-1.1-2.5c-0.6-0.6-1.5-1-2.4-1c0,0,0,0-0.1,0l0,0c-2,0-3.4,1.5-3.4,3.5
																									C229.5,138.2,231,139.7,233,139.8z M231.2,134.6c0.5-0.4,1.1-0.7,1.7-0.7l0,0l0,0c0.6,0,1.2,0.2,1.7,0.6
																									c0.5,0.4,0.7,1,0.7,1.7s-0.2,1.3-0.7,1.7s-1.1,0.7-1.7,0.7l0,0l0,0c-0.6,0-1.2-0.2-1.7-0.6
																									c-0.5-0.4-0.7-1-0.7-1.7S230.7,135,231.2,134.6z"/>
																								<polygon class="st13" points="231.3,129.2 231.4,129.2 236.9,130.6 237.2,129.5 231.6,128.2 231.6,128.1 
																									232.1,126 231.1,125.8 229.9,131.1 230.8,131.3 																								"/>
																								<polygon class="st13" points="239.8,123 238.9,122.5 237.5,125.5 237.5,125.4 232.3,123 231.9,123.9 
																									237.9,126.9 																								"/>
																								
																									<rect x="237.2" y="116.8" transform="matrix(0.5552 -0.8317 0.8317 0.5552 5.7926 251.1814)" class="st13" width="1.1" height="6.7"/>
																								<polygon class="st13" points="242.3,119.6 238.7,116.1 238.9,116.2 245,116.9 245.6,116.2 240.8,111.5 
																									240.1,112.3 243.5,115.7 243.3,115.6 237.4,114.9 236.7,115.7 241.5,120.4 																								"/>
																								<path class="st13" d="M247.2,109.4c0.3,1.2,1.5,1.8,2.7,1.5c0.8-0.2,1.2-0.6,1.5-1.2l-0.7-0.4
																									c-0.2,0.4-0.5,0.7-1,0.8c-0.7,0.2-1.5-0.3-1.7-1l0,0c-0.2-0.8,0.2-1.5,0.9-1.7c0.4-0.1,0.8,0,1.2,0.2
																									l0.3-0.7c-0.5-0.3-1-0.4-1.8-0.2C247.5,107,246.9,108.2,247.2,109.4L247.2,109.4z"/>
																								<path class="st13" d="M249.2,113.2c0.4,0,0.8-0.1,1.2-0.2c2.3-0.7,3.6-3,3-5.3l-0.2,0.1l0.2-0.1
																									c-0.3-1.1-1-2-2-2.6s-2.2-0.7-3.3-0.4c-2.3,0.7-3.6,3-3,5.3C245.7,111.9,247.4,113.2,249.2,113.2z
																									 M246.3,107.2c0.4-0.8,1.2-1.4,2.1-1.6c0.3-0.1,0.7-0.1,1-0.1c0.6,0,1.1,0.1,1.6,0.4
																									c0.8,0.4,1.4,1.2,1.6,2.1c0.5,1.9-0.5,3.7-2.4,4.3l0,0c-1.8,0.5-3.7-0.5-4.2-2.4
																									C245.7,108.9,245.8,108,246.3,107.2z"/>
																								<polygon class="st13" points="258.4,111 258.2,106 262.3,110.8 263.2,110.7 262.9,104 261.9,104.1 
																									262.1,108.9 262,108.8 258.1,104.2 257.1,104.3 257.4,111 																								"/>
																								
																									<rect x="262.4" y="107.4" transform="matrix(0.1542 -0.988 0.988 0.1542 118.148 353.8255)" class="st13" width="6.7" height="1.1"/>
																								<path class="st13" d="M270.2,112.6c1.2,0.4,2.3,0.2,3,0l1-2.6l-2.6-1l-0.3,0.9l1.6,0.6l-0.5,1.3l0,0
																									c-0.5,0.2-1.2,0.1-1.8-0.1c-0.7-0.2-1.1-0.7-1.4-1.3c-0.2-0.6-0.2-1.2,0-1.9l0,0c0.5-1.3,1.8-2,3-1.5
																									c0.8,0.3,1.2,0.7,1.6,1.3l0.9-0.5c-0.5-0.8-1.1-1.3-2.1-1.7c-1.8-0.7-3.8,0.3-4.4,2.1l0,0
																									c-0.3,0.9-0.3,1.8,0.1,2.6C268.5,111.6,269.2,112.2,270.2,112.6z"/>
																								<polygon class="st13" points="274.7,114.6 276.4,112.3 279.2,114.3 277.5,116.6 278.4,117.2 282.3,111.8 
																									281.4,111.2 279.7,113.5 277,111.5 278.7,109.2 277.8,108.5 273.9,114 																								"/>
																								<polygon class="st13" points="284.6,115.8 280.3,119.4 281,120.2 285.4,116.6 285.4,116.6 286.8,118.2 
																									287.5,117.6 284,113.4 283.3,114.1 284.7,115.7 																								"/>
																								<path class="st13" d="M291.9,132.2l-0.6,0.8c0.6,0.5,1,0.9,1,1.6c0,0.7-0.4,1.2-1.1,1.2c0,0,0,0-0.1,0
																									c-0.6,0-1.1-0.4-1.9-1.2l-2.1-2.3h-0.9l0.1,4.8h0.9l-0.1-3.3l1.3,1.5c1,1.1,1.6,1.7,2.6,1.7h0.1l0,0
																									c0.6,0,1.1-0.2,1.4-0.6c0.3-0.4,0.5-1,0.5-1.6C293.3,133.4,292.8,132.8,291.9,132.2z"/>
																								<path class="st13" d="M289.9,138.2L289.9,138.2c-0.3-0.1-0.6-0.1-0.9-0.1c-1.5,0-2.8,0.8-3.1,2.2
																									c-0.4,1.7,0.8,3.2,2.8,3.6l0,0c2,0.4,3.6-0.5,4-2.1C293.1,140.1,291.9,138.6,289.9,138.2z M291.8,141.6
																									c-0.1,0.5-0.5,0.9-1,1.1c-0.3,0.1-0.7,0.2-1.1,0.2c-0.2,0-0.5,0-0.7-0.1l0,0c-0.7-0.1-1.2-0.4-1.6-0.8
																									c-0.4-0.4-0.6-0.9-0.5-1.4s0.5-0.9,1-1.1c0.5-0.2,1.2-0.2,1.8-0.1l0,0c0.7,0.1,1.2,0.4,1.6,0.8
																									C291.7,140.6,291.9,141.1,291.8,141.6z"/>
																								<path class="st13" d="M289.4,146.2c0.4,0.7,0.6,1.2,0.3,1.8c-0.3,0.6-0.9,0.9-1.5,0.7l0,0
																									c-0.6-0.3-0.8-0.8-1.2-1.9l-1-2.9l-0.8-0.3l-1.8,4.5l0.9,0.4l1.3-3.1l0.6,1.9c0.4,1.4,0.7,2.2,1.7,2.6h0.1
																									l0,0c0.5,0.2,1.1,0.2,1.6,0s0.9-0.7,1.1-1.3c0.5-1.1,0.2-1.9-0.3-2.8L289.4,146.2z"/>
																								<path class="st13" d="M286.6,152.3c0.3,0.7,0.5,1.3,0.2,1.9c-0.3,0.6-0.9,0.8-1.5,0.5l0,0
																									c-0.5-0.3-0.8-0.9-1-2l-0.7-3l-0.8-0.4l-2.2,4.3l0.8,0.4l1.5-3l0.4,1.9c0.3,1.5,0.5,2.2,1.4,2.7h0.1l0,0
																									c0.5,0.3,1.1,0.3,1.6,0.1s0.9-0.6,1.2-1.2c0.6-1.1,0.4-1.9-0.1-2.8L286.6,152.3z"/>
																								<path class="st13" d="M288.5,127.3l0.3-0.7c-0.4-0.2-0.8-0.4-1-0.8c-0.3-0.7,0-1.5,0.7-1.8l0,0
																									c0.7-0.3,1.5-0.1,1.9,0.6c0.2,0.4,0.2,0.8,0,1.3l0.8,0.2c0.2-0.5,0.2-1.1-0.1-1.8c-0.5-1.2-1.9-1.6-2.9-1
																									l0,0c-1.1,0.5-1.6,1.8-1,2.9C287.4,126.8,287.9,127.1,288.5,127.3z"/>
																								<path class="st13" d="M285.1,126.9c0.5,1,1.4,1.8,2.5,2.2c0.5,0.2,0.9,0.2,1.4,0.2c0.6,0,1.3-0.1,1.9-0.4
																									l-0.1-0.2l0.1,0.2c1-0.5,1.8-1.3,2.2-2.4c0.4-1.1,0.3-2.3-0.2-3.3c-1-2.1-3.6-3.1-5.8-2
																									C285,122.2,284.1,124.8,285.1,126.9z M290.1,121.9c0.9,0.3,1.6,0.9,2,1.8c0.4,0.8,0.5,1.8,0.1,2.6
																									c-0.3,0.8-0.9,1.5-1.8,1.9c-1.7,0.8-3.8,0.1-4.6-1.6c-0.8-1.7-0.1-3.7,1.6-4.6
																									C288.3,121.6,289.3,121.6,290.1,121.9z"/>
																								<path class="st13" d="M275.8,157.5l4.2,0.2c-7.9,6.7-18.6,8.5-28.3,4.9c-6.1-2.3-11.3-6.7-14.5-12.5
																									c-0.1-0.1-0.2-0.4-0.4-0.7l4,1.5l0.3-0.9l-5.5-2l-1.6,5.6l0.9,0.3l1.1-3.8c0.1,0.3,0.3,0.5,0.3,0.6
																									c3.4,5.9,8.7,10.4,15,12.8c3.3,1.3,6.8,1.9,10.2,1.9c6.8,0,13.5-2.3,18.9-6.9l-0.5,4l1,0.1l0.7-5.8
																									l-5.9-0.3L275.8,157.5z"/>
																							</g>
																						</g>
																					</g>
																				</g>
																			</g>
																		</g>
																	</g>
																</g>
																<g>
																	<g>
																		<g>
																			<g>
																				<g>
																					<g>
																						<defs>
																							<rect id="SVGID_16_" x="239.4" y="36.6" width="582.9" height="233.9"/>
																						</defs>
																						<clipPath id="SVGID_17_">
																							<use xlink:href="#SVGID_16_"  style="overflow:visible;"/>
																						</clipPath>
																						<g class="st19">
																							<g>
																								<path class="st13" d="M520.4,159.1l-1.2-1.7l1.7-1.2c1.2-0.9,2.1-2.2,2.3-3.7l1.7-10.4
																									c0.2-1.5-0.1-3-1.1-4.2l-2.7-3.7c-0.9-1.2-2.3-2-3.8-2.3l-107.9-17.2c-1.5-0.2-3.1,0.1-4.3,1l-3.7,2.6
																									c-1.2,0.9-2.1,2.2-2.3,3.7l-1.7,10.4c-0.2,1.5,0.1,3,1.1,4.2l1.2,1.7l-1.7,1.2c-1.2,0.9-2.1,2.2-2.3,3.7
																									l-1.7,10.4c-0.2,1.5,0.1,3,1.1,4.2l2.7,3.7c0.9,1.2,2.3,2,3.8,2.3l107.7,17.3c1.5,0.2,3.1-0.2,4.4-1.1
																									l3.7-2.6c1.2-0.9,2.1-2.2,2.3-3.7l1.7-10.4C521.6,161.9,521.3,160.3,520.4,159.1z"/>
																							</g>
																							<g>
																								<path class="st14" d="M409.3,131.3L409.3,131.3c0.5-2.9,3-5,6.1-4.5c1.9,0.3,2.9,1.1,3.8,2.3l-0.9,0.7
																									c-0.7-1-1.6-1.7-3-1.9c-2.3-0.4-4.3,1.2-4.7,3.6l0,0c-0.4,2.4,1.1,4.5,3.3,4.9c1.4,0.2,2.4-0.2,3.6-0.9
																									l0.6,0.9c-1.2,0.9-2.5,1.4-4.4,1.1C410.7,137,408.8,134.3,409.3,131.3z"/>
																								<path class="st14" d="M420,133L420,133c0.5-2.8,3-5,6.1-4.5s4.9,3.3,4.4,6.1l0,0c-0.4,2.8-3,4.9-6.1,4.4
																									C421.2,138.6,419.5,135.9,420,133z M429.3,134.5L429.3,134.5c0.4-2.3-1-4.5-3.4-4.9s-4.3,1.2-4.7,3.5l0,0
																									c-0.4,2.3,1,4.5,3.4,4.9C426.9,138.5,428.9,136.9,429.3,134.5z"/>
																								<path class="st14" d="M433.9,130l3.6,0.6c3.2,0.5,5.1,3.1,4.7,6l0,0c-0.5,2.9-3.1,4.7-6.3,4.2l-3.6-0.6
																									L433.9,130z M434.9,131.2l-1.3,8.1l2.4,0.4c2.6,0.4,4.6-1.1,4.9-3.3l0,0c0.4-2.3-1-4.3-3.6-4.7L434.9,131.2
																									z"/>
																								<path class="st14" d="M445.5,131.8l7.5,1.2l-0.2,1.1l-6.3-1l-0.6,3.5l5.6,0.9l-0.2,1.1l-5.6-0.9l-0.6,3.6
																									l6.4,1l-0.2,1.1l-7.5-1.2L445.5,131.8z"/>
																								<path class="st14" d="M462.3,134.5l1.2,0.2l-1.6,10.2l-1.2-0.2L462.3,134.5z"/>
																								<path class="st14" d="M464.4,143.8l0.9-0.7c0.9,1.1,1.9,1.8,3.3,2s2.4-0.4,2.6-1.4l0,0
																									c0.2-0.9-0.3-1.6-2.4-2.4c-2.3-0.9-3.3-1.8-3-3.5l0,0c0.3-1.6,1.9-2.6,3.8-2.2c1.5,0.2,2.5,0.8,3.4,1.8
																									l-0.8,0.8c-0.8-0.9-1.7-1.4-2.8-1.6c-1.3-0.2-2.3,0.4-2.5,1.3l0,0c-0.2,1,0.3,1.6,2.5,2.4
																									c2.2,0.9,3.1,1.9,2.9,3.4l0,0c-0.3,1.8-1.9,2.7-4,2.3C466.8,145.9,465.5,145.1,464.4,143.8z"/>
																								<path class="st14" d="M482.5,137.7l1.2,0.2l2.9,6.2l4.6-5l1.2,0.2l-1.6,10.2l-1.2-0.2l1.3-8.3l-4.6,4.9
																									h-0.1l-2.9-6.1l-1.3,8.3l-1.1-0.2L482.5,137.7z"/>
																								<path class="st14" d="M497.6,146.5l-3.3-6.9l1.4,0.2l2.7,5.7l4.3-4.5l1.4,0.2l-5.3,5.5l-0.6,4.1l-1.2-0.2
																									L497.6,146.5z"/>
																								<path class="st14" d="M405.9,151l0.8-0.7c0.9,1.1,1.8,1.8,3.2,2c1.3,0.2,2.3-0.4,2.5-1.4l0,0
																									c0.2-0.9-0.3-1.6-2.3-2.4c-2.2-0.9-3.2-1.8-2.9-3.5l0,0c0.3-1.6,1.8-2.6,3.7-2.3c1.5,0.2,2.4,0.8,3.3,1.8
																									l-0.8,0.8c-0.8-0.9-1.7-1.4-2.7-1.6c-1.3-0.2-2.2,0.4-2.4,1.3l0,0c-0.2,1,0.3,1.6,2.4,2.4
																									c2.2,0.9,3,1.8,2.8,3.4l0,0c-0.3,1.8-1.9,2.7-3.9,2.3C408.2,153.1,406.9,152.3,405.9,151z"/>
																								<path class="st14" d="M416,149.8l0.9-5.9l1.1,0.2l-0.9,5.9c-0.4,2.2,0.6,3.6,2.5,3.9
																									c1.8,0.3,3.2-0.7,3.6-2.9l0.9-5.9l1.1,0.2l-0.9,5.9c-0.5,3-2.4,4.3-4.9,3.9
																									C417,154.5,415.5,152.7,416,149.8z"/>
																								<path class="st14" d="M428.1,145.6l3.7,0.6c2.3,0.4,3.6,1.8,3.2,3.8l0,0c-0.4,2.2-2.3,3.1-4.5,2.7l-2.4-0.4
																									l-0.6,3.6l-1.1-0.2L428.1,145.6z M430.8,151.8c1.7,0.3,2.9-0.5,3.1-1.8l0,0c0.2-1.5-0.7-2.4-2.3-2.6
																									l-2.5-0.4l-0.7,4.5L430.8,151.8z"/>
																								<path class="st14" d="M437.6,147.1l7.2,1.2l-0.2,1.1l-6.1-1l-0.6,3.5l5.5,0.9l-0.2,1.1l-5.5-0.9l-0.6,3.6
																									l6.2,1l-0.2,1.1l-7.3-1.2L437.6,147.1z"/>
																								<path class="st14" d="M447.1,148.6l4.3,0.7c1.2,0.2,2.2,0.7,2.7,1.5c0.4,0.6,0.6,1.3,0.5,2.1l0,0
																									c-0.3,1.7-1.6,2.5-3.2,2.5l2.4,4.7l-1.4-0.2l-2.3-4.4l-2.9-0.5l-0.6,4l-1.1-0.2L447.1,148.6z M450.4,154.5
																									c1.5,0.2,2.7-0.4,2.9-1.7l0,0c0.2-1.3-0.6-2.2-2.2-2.4l-3.1-0.5l-0.7,4.1L450.4,154.5z"/>
																								<path class="st14" d="M457.5,150.3l3.7,0.6c2.3,0.4,3.6,1.8,3.2,3.8l0,0c-0.4,2.2-2.3,3.1-4.5,2.7l-2.4-0.4
																									l-0.6,3.6l-1.1-0.2L457.5,150.3z M460.2,156.4c1.7,0.3,2.9-0.5,3.1-1.8l0,0c0.2-1.5-0.7-2.4-2.3-2.6
																									l-2.5-0.4l-0.7,4.5L460.2,156.4z"/>
																								<path class="st14" d="M465.5,156.9L465.5,156.9c0.5-2.8,2.9-5,6-4.5c3,0.5,4.7,3.2,4.3,6.1l0,0
																									c-0.4,2.8-2.9,5-6,4.5C466.7,162.4,465.1,159.7,465.5,156.9z M474.5,158.3L474.5,158.3
																									c0.4-2.3-1-4.5-3.3-4.9s-4.2,1.2-4.6,3.6l0,0c-0.4,2.3,1,4.5,3.3,4.8C472.2,162.2,474.2,160.6,474.5,158.3z
																									"/>
																								<path class="st14" d="M477.1,153.4l1.2,0.2l1.5,9l4.1-8.1l0.9,0.1l1.4,9l4.2-8.1l1.2,0.2l-5.2,9.7l-1-0.2
																									l-1.4-8.7l-4.1,7.8l-0.9-0.2L477.1,153.4z"/>
																								<path class="st14" d="M493.3,156l7.2,1.2l-0.2,1.1l-6.1-1l-0.6,3.5l5.5,0.9l-0.2,1.1l-5.5-0.9l-0.6,3.6
																									l6.2,1l-0.2,1.1l-7.3-1.2L493.3,156z"/>
																								<path class="st14" d="M502.5,157.5l4.3,0.7c1.2,0.2,2.2,0.7,2.7,1.5c0.4,0.6,0.6,1.3,0.5,2.1l0,0
																									c-0.3,1.7-1.6,2.5-3.2,2.5l2.4,4.7l-1.4-0.2l-2.3-4.4l-2.9-0.5l-0.6,4l-1.1-0.2L502.5,157.5z M505.8,163.4
																									c1.5,0.2,2.7-0.4,2.9-1.7l0,0c0.2-1.3-0.6-2.2-2.2-2.4l-3.1-0.5l-0.7,4.1L505.8,163.4z"/>
																							</g>
																							<g>
																								<polygon class="st14" points="512.2,146.3 508.2,146.6 511.7,142.1 511.5,142.1 504.9,147.7 508.8,147.5 
																									505.2,152 505.4,152 																								"/>
																							</g>
																							<g>
																								<path class="st14" d="M430.1,163.2c-13.4-2.1-24.1-3.8-27-4.3c-0.7-0.1-1.2-0.5-1.6-1l-1.7-2.3
																									c-0.4-0.5-0.6-1.2-0.5-1.9l1.5-9.4c0-0.1,0.1-0.3,0.2-0.3l2.4-1.7c0.5-0.4,1-0.8,1.3-1.3
																									c0.9-1.5,0.8-3.4-0.2-4.8l-1.8-2.5c-0.1-0.1-0.1-0.2-0.1-0.4l1.5-9.4c0.1-0.7,0.5-1.3,1-1.7l2.3-1.6
																									c0.5-0.4,1.2-0.5,1.9-0.4L515.6,137l0,0c0.7,0.1,1.2,0.5,1.6,1l1.8,2.3c0.4,0.5,0.6,1.3,0.5,1.9l-1.4,8.6
																									c-0.1,0.7-0.5,1.3-1,1.7l-1.7,1.2c-0.5,0.4-1,0.8-1.3,1.3c-0.9,1.5-0.8,3.4,0.2,4.8l1.8,2.5
																									c0.1,0.1,0.1,0.2,0.1,0.4l-1.5,9.4c-0.1,0.7-0.5,1.3-1,1.7l-2.5,1.8c-0.5,0.4-1.2,0.5-1.9,0.4l-35.7-5.7
																									C459.7,167.9,443.5,165.3,430.1,163.2z M401.8,144.6l-1.5,9.2c-0.1,0.4,0,0.8,0.3,1.2l1.7,2.3
																									c0.2,0.3,0.6,0.5,1,0.6c5.8,0.9,42.6,6.8,70.5,11.2l0,0l35.7,5.7c0.4,0.1,0.8,0,1.1-0.3l2.5-1.8
																									c0.3-0.2,0.6-0.6,0.6-1l1.5-9.2l-1.7-2.3c-1.3-1.7-1.4-4.1-0.3-5.9c0.4-0.6,0.9-1.1,1.5-1.6l1.7-1.2
																									c0.3-0.2,0.6-0.6,0.6-1l1.4-8.6c0.1-0.4,0-0.8-0.3-1.2l-1.8-2.3c-0.2-0.3-0.6-0.5-1-0.6l0,0L409,121
																									c-0.4-0.1-0.8,0-1.1,0.3l-2.3,1.6c-0.3,0.2-0.6,0.6-0.6,1l-1.5,9.2l1.7,2.3c1.3,1.7,1.4,4.1,0.3,5.9
																									c-0.4,0.6-0.9,1.1-1.5,1.6L401.8,144.6z"/>
																							</g>
																						</g>
																					</g>
																				</g>
																			</g>
																		</g>
																	</g>
																</g>
																<g>
																	<g>
																		<g>
																			<g>
																				<g>
																					<g>
																						<defs>
																							<rect id="SVGID_18_" x="239.4" y="36.6" width="582.9" height="233.9"/>
																						</defs>
																						<clipPath id="SVGID_19_">
																							<use xlink:href="#SVGID_18_"  style="overflow:visible;"/>
																						</clipPath>
																						<g class="st20">
																							<path class="st18" d="M590.9,184.5l-3.5-4.7c-1.1-1.4-2.6-2.4-4.4-2.7l-105.5-15.9c-1.8-0.3-3.5,0.2-5,1.2
																								l-4.7,3.5c-1.4,1.1-2.4,2.6-2.7,4.4l-3.6,23.8c-0.3,1.8,0.2,3.5,1.2,5l3.5,4.7c1.1,1.4,2.6,2.4,4.4,2.7
																								l105.5,15.9c1.8,0.3,3.5-0.2,5-1.2l4.7-3.5c1.4-1,2.4-2.6,2.7-4.4l3.6-23.8
																								C592.4,187.8,591.9,186,590.9,184.5z"/>
																							<path class="st13" d="M586.3,187.9l-3.5-4.7c-0.2-0.2-0.4-0.4-0.7-0.4l-105.5-15.9c-0.3,0-0.5,0-0.7,0.2
																								l-4.7,3.5c-0.2,0.2-0.4,0.4-0.4,0.7l-3.6,23.8c0,0.3,0,0.5,0.2,0.7l3.5,4.7c0.2,0.2,0.4,0.4,0.7,0.4
																								l105.5,15.9c0.3,0,0.5,0,0.7-0.2l4.7-3.5c0.2-0.2,0.4-0.4,0.4-0.7l3.6-23.8
																								C586.5,188.4,586.5,188.1,586.3,187.9z M581.8,212.2l-4.6,3.4l-9-1.4l4.8-31.7l9,1.4l3.4,4.6L581.8,212.2z
																								 M571.8,182.4l-4.8,31.7l-85.1-12.8l4.8-31.7L571.8,182.4z M485.6,169.4l-4.8,31.7l-9.1-1.4l-3.4-4.6
																								l3.6-23.7l4.6-3.4L485.6,169.4z"/>
																							<path class="st13" d="M474.7,177.1l0.9,0.1l0,0l0,0l0.4-2.7l0.7,1.2c0.7,1.2,1.1,1.8,2.1,1.9l0,0l0,0
																								c0.5,0.1,1,0,1.4-0.4c0.4-0.3,0.6-0.8,0.7-1.4c0.2-1.1-0.2-1.7-0.9-2.4h-0.1l-0.7,0.7l0,0l0,0
																								c0.6,0.6,0.7,1,0.7,1.4c-0.1,0.5-0.5,0.8-1,0.8l0,0c-0.5-0.1-0.9-0.5-1.4-1.3l-1.4-2.3l0,0l-0.8-0.1l0,0l0,0
																								L474.7,177.1C474.6,177,474.7,177,474.7,177.1z"/>
																							<path class="st13" d="M476.7,184L476.7,184L476.7,184c1.8,0.3,3.3-0.6,3.5-2.2c0.2-1.5-0.9-2.8-2.7-3.1l0,0
																								l0,0c-0.9-0.1-1.7,0-2.3,0.4c-0.7,0.4-1.1,1-1.2,1.8s0.1,1.5,0.6,2.1C475.1,183.5,475.8,183.9,476.7,184z
																								 M475,181.1c0.1-0.4,0.3-0.8,0.8-1c0.4-0.2,1-0.3,1.5-0.2l0,0l0,0c1.2,0.2,2,0.9,1.8,1.7
																								c-0.1,0.8-1.1,1.3-2.3,1.1l0,0C475.7,182.6,474.9,181.9,475,181.1z"/>
																							<path class="st13" d="M477.3,188.4L477.3,188.4c-0.5-0.1-0.9-0.5-1.4-1.3l-1.4-2.3l0,0l-0.8-0.1l0,0l0,0
																								l-0.6,4.3v0.1l0.9,0.1l0,0l0,0l0.4-2.7l0.7,1.2c0.7,1.2,1.1,1.8,2.1,1.9l0,0l0,0c0.5,0.1,1,0,1.4-0.4
																								c0.4-0.3,0.6-0.8,0.7-1.4c0.2-1.1-0.2-1.7-0.9-2.4h-0.1l-0.7,0.7l0,0l0,0c0.6,0.6,0.7,1,0.7,1.4
																								C478.2,188.1,477.8,188.4,477.3,188.4z"/>
																							<path class="st13" d="M476.3,194.4L476.3,194.4c-0.5-0.1-0.9-0.5-1.4-1.3l-1.4-2.3l0,0l-0.8-0.1l0,0l0,0
																								l-0.6,4.3v0.1l0.9,0.1l0,0l0,0l0.4-2.7l0.7,1.2c0.7,1.2,1.1,1.8,2.1,1.9l0,0l0,0c0.5,0.1,1,0,1.4-0.4
																								c0.4-0.3,0.6-0.8,0.7-1.4c0.2-1.1-0.2-1.7-0.9-2.4h-0.1l-0.7,0.7l0,0l0,0c0.6,0.6,0.7,1,0.7,1.4
																								C477.3,194.2,476.9,194.5,476.3,194.4z"/>
																							<path class="st13" d="M490.1,195.6C490.2,195.6,490.2,195.5,490.1,195.6l0.8-4.9l5.4-4.1l6.3,10.9l0,0
																								l1.7,0.3c0,0,0,0,0.1,0c0,0,0,0,0-0.1l-6.9-11.9l9.4-7.2c0,0,0,0,0-0.1l0,0l-1.8-0.3l0,0L491.2,189l1.9-12.5
																								v-0.1l-1.3-0.2h-0.1l-2.9,19.1v0.1L490.1,195.6z"/>
																							<path class="st13" d="M506,184.7L506,184.7l-0.9,1l0,0l0,0l2.8,1.9l-3.2,1l0,0l0,0l0.5,1.2l0,0l0,0l3-1.5
																								l-0.7,3.2v0.1l0,0l0,0l1.2,0.2l0,0l0,0l0.3-3.3l2.4,2.3l0,0l0,0l0.8-1l0,0l0,0l-2.8-1.9l3.2-1l0,0l0,0
																								l-0.5-1.2l0,0l0,0l-3,1.5l0.7-3.2v-0.1l0,0l0,0l-1.2-0.2l0,0l0,0l-0.3,3.3L506,184.7L506,184.7z"/>
																							<path class="st13" d="M516.6,199.6C516.7,199.6,516.7,199.5,516.6,199.6l2.6-17l10.7,19l0,0l1,0.1h0.1
																								l2.9-19.1v-0.1l-1.3-0.2h-0.1L530,199l-10.5-18.6l0,0l-1.3-0.2h-0.1l-2.9,19.1v0.1L516.6,199.6z"/>
																							<path class="st13" d="M543.2,196.2c2.5,0.4,4.7-0.5,6.4-2.8l-0.1,0.7c-0.8,5.3-4,8.7-7.6,8.2
																								c-1.7-0.3-3-1.1-4.5-2.9l0,0l0,0l-1,0.9v0.1c1.7,1.9,3.3,2.9,5.3,3.2c2.1,0.3,4.2-0.4,5.9-2.1
																								c1.7-1.7,2.9-4.2,3.3-7.1v-0.1c0.5-3.5,0.1-5.9-1.2-7.9c-1-1.4-2.7-2.4-4.5-2.7c-3.8-0.6-7.1,1.8-7.6,5.5
																								v0.1C537,192.7,539.5,195.7,543.2,196.2z M539,189.5L539,189.5c0.2-1.4,0.9-2.6,1.9-3.4
																								c1.1-0.9,2.4-1.2,3.9-1c3,0.5,5,2.9,4.6,5.7v0.1c-0.2,1.2-0.9,2.3-1.9,3.1c-1.1,0.8-2.6,1.2-4.1,1
																								C540.5,194.5,538.6,192.2,539,189.5z"/>
																							<path class="st13" d="M559.6,187.7l-2.7,17.8v0.1l1.3,0.2h0.1L561,188l6.5,1h0.1l0.2-1.2v-0.1l-14.5-2.2
																								h-0.1l-0.2,1.2v0.1L559.6,187.7z"/>
																							<path class="st13" d="M578.8,207.1l-0.9-0.1l0,0l0,0l-0.4,2.7l-0.7-1.2c-0.7-1.2-1.1-1.8-2.1-1.9l0,0l0,0
																								c-0.5-0.1-1,0-1.4,0.4c-0.4,0.3-0.6,0.8-0.7,1.4c-0.2,1.1,0.2,1.7,0.9,2.4h0.1l0.7-0.7l0,0l0,0
																								c-0.6-0.6-0.7-1-0.7-1.4c0.1-0.5,0.5-0.8,1-0.8l0,0c0.5,0.1,0.9,0.5,1.4,1.3l1.4,2.3l0,0l0.8,0.1l0,0l0,0
																								L578.8,207.1C578.9,207.1,578.8,207.1,578.8,207.1z"/>
																							<path class="st13" d="M576.8,200.2L576.8,200.2L576.8,200.2c-1.8-0.3-3.3,0.6-3.5,2.2
																								c-0.2,1.5,0.9,2.8,2.7,3.1l0,0l0,0c0.9,0.1,1.7,0,2.3-0.4c0.7-0.4,1.1-1,1.2-1.8c0.1-0.8-0.1-1.5-0.6-2.1
																								C578.4,200.7,577.7,200.3,576.8,200.2z M578.5,203.1c-0.1,0.4-0.3,0.8-0.8,1c-0.4,0.2-1,0.3-1.5,0.2l0,0l0,0
																								c-1.2-0.2-2-0.9-1.8-1.7c0.1-0.8,1.1-1.3,2.3-1.1l0,0C577.8,201.5,578.6,202.3,578.5,203.1z"/>
																							<path class="st13" d="M576.3,195.8L576.3,195.8c0.5,0.1,0.9,0.5,1.4,1.3l1.4,2.3l0,0l0.8,0.1l0,0l0,0
																								l0.6-4.3v-0.1l-0.9-0.1l0,0l0,0l-0.4,2.7l-0.7-1.2c-0.7-1.2-1.1-1.8-2.1-1.9l0,0l0,0c-0.5-0.1-1,0-1.4,0.4
																								c-0.4,0.3-0.6,0.8-0.7,1.4c-0.2,1.1,0.2,1.7,0.9,2.4h0.1l0.7-0.7l0,0l0,0c-0.6-0.6-0.7-1-0.7-1.4
																								C575.3,196,575.7,195.7,576.3,195.8z"/>
																							<path class="st13" d="M577.2,189.7L577.2,189.7c0.5,0.1,0.9,0.5,1.4,1.3l1.4,2.3l0,0l0.8,0.1l0,0l0,0
																								l0.6-4.3V189l-0.9-0.1l0,0l0,0l-0.4,2.7l-0.7-1.2c-0.7-1.2-1.1-1.8-2.1-1.9l0,0l0,0c-0.5-0.1-1,0-1.4,0.4
																								c-0.4,0.3-0.6,0.8-0.7,1.4c-0.2,1.1,0.2,1.7,0.9,2.4h0.1l0.7-0.7l0,0l0,0c-0.6-0.6-0.7-1-0.7-1.4
																								C576.3,190,576.7,189.6,577.2,189.7z"/>
																						</g>
																					</g>
																				</g>
																			</g>
																		</g>
																	</g>
																</g>
																<g>
																	<g>
																		<g>
																			<g>
																				<g>
																					<g>
																						<defs>
																							<rect id="SVGID_20_" x="239.4" y="36.6" width="582.9" height="233.9"/>
																						</defs>
																						<clipPath id="SVGID_21_">
																							<use xlink:href="#SVGID_20_"  style="overflow:visible;"/>
																						</clipPath>
																						<g class="st21">
																							<path class="st22" d="M700.1,199.4c-7.6-5.2-17.7-6-28.3-2.3c-9.6,3.3-19.5,10.3-27.7,19.5
																								c-2.4,2.7-4.7,5.7-6.9,8.8c-8.3,12.1-13.2,25.6-13.8,37.9c-0.7,13.5,3.8,24.1,12.5,30.1
																								c7.6,5.2,17.7,6,28.3,2.3c9.6-3.3,19.5-10.3,27.7-19.5c2.4-2.7,4.7-5.7,6.9-8.8
																								c8.3-12.1,13.2-25.6,13.8-37.9C713.3,216,708.8,205.3,700.1,199.4z"/>
																							<g>
																								<path class="st13" d="M654.5,256.6c2.4,4.4,6,9.4,12.6,12.5c0.2,0.1,0.4,0,0.6-0.1c0.2-0.2,0.2-0.4,0.1-0.6
																									c-0.7-1.4-1.3-2.7-1.9-3.8c-3.5-7.1-4.9-10-3.4-13.7c0.5-1.2,1.8-2.8,3.2-3.1c0.7-0.2,1.4-0.1,2.1,0.4
																									c0.2,0.2,0.5,0.1,0.7-0.1c0.2-0.2,0.1-0.6-0.1-0.7c-0.9-0.7-1.9-0.9-3-0.6c-1.7,0.5-3.3,2.2-3.9,3.7
																									c-0.1,0.4-0.2,0.7-0.3,1c-3.1,1.3-4.5-0.1-6.3-1.9c-0.6-0.7-1.3-1.3-2.1-1.9c-1.2-0.9-3.2-1.5-4.6-1.6
																									c1.1-1.7,1.2-3.1,1.1-5.3c0-0.3-0.1-0.7-0.2-1.1c-0.4-2.2-1-6.3,2-9.6c0.2-0.2,0.2-0.5,0-0.7
																									s-0.5-0.2-0.7,0c-3.4,3.6-2.7,8-2.3,10.4c0.1,0.4,0.1,0.8,0.1,1c0.2,2.4,0,3.7-1.5,5.6
																									c-0.2,0.2-0.2,0.5,0,0.6c0.1,0.2,0.4,0.3,0.6,0.2c0.6-0.3,3.4,0.2,4.9,1.3c0.7,0.6,1.4,1.2,2,1.9
																									c1.8,1.8,3.5,3.5,6.8,2.4c-0.4,3.2,1.1,6.3,4.1,12.3c0.4,0.8,0.8,1.6,1.2,2.5c-6.1-3.2-9.2-8.2-11.5-12.6
																									c-0.1-0.2-0.3-0.3-0.5-0.3s-0.4,0.1-0.5,0.3c-1,2.1,0.4,5.6,2,9.5c2.5,6,5.3,12.9,0.7,17.4
																									c-3.7,3.7-7.4,3-9.5,1.2c-2.5-2.1-3.7-6.3-1.4-9.5c1.5-2,3.3-3,5.1-2.7c1.4,0.2,2.4,1.2,2.8,2.5
																									c0.5,1.8-0.3,3.8-2.3,5.6c-0.2,0.2-0.2,0.5,0,0.7s0.5,0.2,0.7,0c2.3-2,3.3-4.4,2.6-6.6
																									c-0.5-1.7-1.9-3-3.6-3.3c-2.2-0.4-4.4,0.7-6.1,3.1c-2.7,3.7-1.3,8.5,1.5,10.9c2.5,2.2,6.7,3,10.9-1.2
																									c0.2-0.2,0.3-0.3,0.5-0.5c4.4-5,1.5-12.2-1-18.1C655.6,261.2,654.5,258.5,654.5,256.6z"/>
																								<path class="st13" d="M647.3,267.7c0.5-0.3,0.9-0.7,1.3-1.1c2.5-2.8,2.3-7.3-0.6-13.6
																									c-0.2-0.3-0.4-0.9-0.7-1.5c-1.4-2.8-5.1-10.4-4.5-12.2c0.1-0.3,0-0.5-0.3-0.6s-0.5,0-0.7,0.3
																									c-1.4,3-2.6,5.2-3.4,6.8c-1.5,2.9-2.2,4.2-2.4,6.1c-0.1,1.8,0.5,3.2,1.8,3.8c1.1,0.6,2.5,0.3,3.5-0.6
																									c1.7-1.5,2-3.1,2.1-4c0-0.3-0.2-0.5-0.5-0.6c-0.3,0-0.5,0.2-0.6,0.5c0,0.5-0.3,1.9-1.7,3.3
																									c-0.7,0.6-1.6,0.8-2.4,0.4c-0.9-0.4-1.3-1.4-1.2-2.8c0.1-1.7,0.8-2.9,2.3-5.7c0.7-1.3,1.5-2.9,2.6-5
																									c0.6,2.7,2.5,6.9,4.4,10.8c0.3,0.6,0.6,1.1,0.7,1.5c3.1,6.8,3,11.1-0.4,13.5c-1.4,1-3,1.2-4.5,0.6
																									c-1.6-0.7-2.8-2.4-2.9-4.2c-0.2-1.9,0.7-3.6,2.5-4.8c0.2-0.2,0.3-0.5,0.1-0.7s-0.5-0.3-0.7-0.1
																									c-2.1,1.4-3.2,3.5-3,5.8c0.2,2.2,1.6,4.2,3.5,5.1C643.6,269.2,645.6,268.9,647.3,267.7z"/>
																								<path class="st13" d="M665.8,241.4c0.5-0.1,0.9-0.4,1.2-0.8c0.6-0.7,1.1-1.8,1.1-3.1c0-0.2,0-0.4,0-0.6
																									c0-0.7,0.1-1.4,0.1-2.2c0.9,1.3,1.8,1.3,2.4,1.2c0.5-0.1,1-0.4,1.4-0.8c0.7-0.7,1.1-1.9,1.2-3.1
																									c0-0.3,0-0.6,0-1c0.6,0.5,1.2,0.5,1.5,0.4c0.5-0.1,1-0.4,1.3-0.8c0.5-0.6,0.9-1.4,0.9-2.3c0.1-0.9,0-2,0-3
																									l0.9,2c0.1,0.3,0.4,0.4,0.7,0.3c0.1,0,0.1-0.1,0.2-0.1c0.1-0.1,0.2-0.4,0.1-0.6l-2.1-4.5c0-0.1,0-0.1,0-0.2
																									c-1.8-3.9-1.5-6.9-0.7-7.8c0.4-0.5,0.8-0.7,1.3-0.6c0.7,0.1,1.4,0.8,1.9,1.9c0.2,0.4,0.3,0.7,0.5,1
																									c0.7,1.6,1.3,2.8,2.3,3.5c0.9,0.7,2.1,0.7,3.1,0c0.1-0.1,0.4-0.3,0.6-0.5c0.9-1,2-3.3,0.7-7.9
																									c-0.1-0.3-0.4-0.4-0.6-0.4c-0.3,0.1-0.4,0.4-0.4,0.6c1.2,4.1,0.3,6.5-0.8,7.3c-0.6,0.4-1.4,0.5-1.9,0
																									c-0.8-0.6-1.3-1.7-2-3.1c-0.2-0.3-0.3-0.7-0.5-1c-0.7-1.4-1.7-2.3-2.7-2.4c-0.6-0.1-1.4,0-2.2,0.9
																									c-0.6,0.7-0.9,1.9-0.9,3.4l-0.7-1.4c-0.1-0.3-0.4-0.4-0.7-0.3c-0.3,0.1-0.4,0.4-0.3,0.7l3,6.4l0,0
																									c0,0,0.4,3.4,0.3,5.6c-0.1,1.2-0.8,2.1-1.4,2.2c-0.7,0.1-1.1-0.7-1.4-1.2c-1.3-2.9-3.6-8.5-3.7-8.6
																									c-0.1-0.3-0.4-0.4-0.7-0.3c-0.3,0.1-0.4,0.4-0.3,0.7c0,0,1.8,4.2,3.1,7.2c0.6,1.8,0.5,3,0.5,3.7
																									c-0.1,1.6-0.9,2.8-1.7,3s-1.4-0.8-1.7-1.4c-3.7-7.5-6.2-13-7.4-15.6c-0.1-0.3-0.4-0.4-0.7-0.3
																									c-0.3,0.1-0.4,0.4-0.3,0.7c1.1,2.4,3.3,7.3,6.5,13.8c0,0.1,0,0.1,0,0.2c0.4,1.8,0.3,3.3,0.2,4.6
																									c0,0.2,0,0.4,0,0.6c-0.1,1.5-0.7,2.7-1.6,2.9c-0.6,0.1-1.2-0.3-1.8-1.3c-1.5-2.5-3.3-6.4-4.8-9.8
																									c1-1.1,2.1-2.3,2.5-3.5c0.1-0.3,0-0.6-0.3-0.7c-0.3-0.1-0.6,0-0.7,0.3c-0.3,0.9-1.1,1.9-2,2.8
																									c-0.9-2-1.6-3.8-2.1-4.8c-0.1-0.3-0.4-0.4-0.7-0.3c-0.3,0.1-0.4,0.4-0.3,0.7c0.5,1.1,1.3,3,2.3,5.2
																									c-1,1.1-1.9,2.2-2.1,3.4c-0.1,0.3,0.1,0.6,0.4,0.6c0.2,0,0.4,0,0.5-0.2c0.1-0.1,0.1-0.2,0.1-0.2
																									c0.2-0.8,0.8-1.7,1.6-2.6c1.5,3.3,3.3,7,4.7,9.4C664,241.5,665.2,241.6,665.8,241.4z"/>
																								<path class="st13" d="M653.8,237.5c-0.8,1.1-0.9,2.6-0.6,4.6c0.4,2.1,2.7,7.1,5.8,6.6
																									c0.7-0.1,1.2-0.4,1.7-1c0.2-0.2,0.4-0.5,0.6-0.9c1-2,0.6-5-0.8-7.6c-0.8-1.5-2.3-3.2-4-3.3
																									C655.5,235.9,654.6,236.4,653.8,237.5z M659.6,239.8c1.3,2.4,1.6,5,0.8,6.7c-0.2,0.5-0.7,1.1-1.5,1.3
																									c-2.1,0.4-4.2-3.8-4.6-5.8c-0.3-1.7-0.2-3,0.4-3.8c0.1-0.1,0.2-0.3,0.3-0.4c0.5-0.5,1-0.8,1.5-0.7
																									C657.6,237,658.9,238.5,659.6,239.8z"/>
																								<path class="st13" d="M694.2,218.7c-1.9,0.5-3.6,2.9-2.9,6.1c0.1,0.3,0.3,0.5,0.6,0.4s0.5-0.3,0.4-0.6
																									c-0.6-2.7,0.7-4.5,2.1-4.9c1.3-0.4,3.3,0.5,4.5,4.1c0.7,2,1.9,7.4-0.6,14.8c-3.2,9.5-9.6,16.4-15.9,21.9
																									c0-1.9-0.3-3.7-0.9-5.6c-1.5-5-3.1-7.7-4.6-10.4c-0.6-1.1-1.2-2.2-1.8-3.4c-0.1-0.3-0.4-0.4-0.7-0.2
																									c-0.3,0.1-0.4,0.4-0.2,0.7c0.4,0.8,0.8,1.5,1.2,2.3c-0.4-0.1-0.9-0.1-1.2,0c-1.7,0.3-3,2.1-3.3,3.5
																									c-0.6,3.2,1.1,7.2,3.1,9.1c0,0.1-0.8,3.3-1.6,5.3c-0.1,0.3-0.5,0.9-1,0.9c-0.4,0-0.8-0.4-1.2-1.3
																									c-1.4-2.9-2.7-5.9-2.7-6c-0.1-0.3-0.4-0.4-0.7-0.3c-0.3,0.1-0.4,0.4-0.3,0.7c0,0,1.3,3.1,2.7,6
																									c0.6,1.3,1.4,1.9,2.2,1.9c0.6,0,1-0.3,1.4-0.7c0.2-0.3,0.4-0.6,0.5-0.8c0.7-1.7,1.3-4,1.5-5
																									c0.1,0,0.1,0.1,0.2,0.1c1.2,0.6,2.4,0.5,3.4-0.5c0.1-0.1,0.2-0.2,0.2-0.3c0.7-0.8,1.2-1.7,1.4-2.7
																									c0.2,0.5,0.3,0.9,0.5,1.5c0.6,2.1,0.9,4.1,0.8,6.2c-1.8,1.5-3.6,2.9-5.2,4.3c-2.7,2.2-5.3,4.2-7.3,6.2
																									c-3.2,3.2-3.5,6.6-2.2,8.3c0.9,1.1,2.8,1.8,5.6,0.2c1.4-0.9,2.7-2,3.7-3.1c2.4-2.7,3.8-5.8,4.5-7.4
																									c1.1-2.8,1.8-5.4,1.9-7.9c6.7-5.7,13.5-12.8,17-23c2.6-7.7,1.3-13.4,0.6-15.5
																									C698.5,219.2,696,218.2,694.2,218.7z M677.7,256.1c-0.6,0.6-1.3,0.7-2.2,0.3c-2.2-1.1-4.3-5.5-3.7-8.8
																									c0.2-1.1,1.3-2.5,2.5-2.7c0.8-0.2,1.6,0.3,2.3,1.4c0.5,0.9,1,1.9,1.5,3
																									C679.9,253.1,678.9,254.9,677.7,256.1z M679.5,269.5c-0.7,1.7-3.3,7.3-7.8,10c-1.8,1.1-3.4,1.1-4.2,0.1
																									c-1-1.2-0.7-3.8,1.6-6.4c0.2-0.2,0.3-0.4,0.5-0.5c2-1.9,4.5-4,7.2-6.2c1.4-1.2,2.9-2.4,4.5-3.6
																									C681,265,680.4,267.2,679.5,269.5z"/>
																								<path class="st13" d="M692.9,240.1c0.4-0.1,0.8-0.3,1-0.6c0.6-0.6,0.9-1.5,1-2.1c0.4-2,0.2-4.5-0.6-7.4
																									c-0.1-0.3-0.4-0.4-0.6-0.4c-0.3,0.1-0.4,0.4-0.4,0.6c0.7,2.7,0.9,5.1,0.6,6.9c-0.1,0.7-0.6,1.8-1.2,1.9
																									c-0.4,0.1-0.9-0.3-1.4-1.1c-1.3-2-3.1-5.1-4.7-8.3c1-1.1,2-2.2,2.4-3.4c0.1-0.3,0-0.6-0.3-0.7
																									c-0.3-0.1-0.6,0-0.7,0.3c-0.3,0.9-1.1,1.9-2,2.8c-1-1.9-1.8-3.7-2.5-5.2c-0.1-0.3-0.4-0.4-0.7-0.3
																									c-0.3,0.1-0.4,0.4-0.3,0.7c0.7,1.6,1.6,3.5,2.7,5.6c-1,1.1-1.9,2.2-2.2,3.5c-0.1,0.3,0.1,0.6,0.4,0.6
																									c0.2,0,0.4,0,0.5-0.2c0.1-0.1,0.1-0.2,0.1-0.2c0.2-0.9,0.9-1.8,1.6-2.7c0.9,1.8,1.9,3.6,2.8,5.2v0.1
																									c0.8,2.6,0.6,4.6,0.5,5.7v0.4c-0.1,1.3-0.5,1.9-0.7,1.9c-0.3,0.1-0.8-0.2-1.3-1.1c-0.8-1.3-1.4-2.4-2.5-4.6
																									c-0.6-1.3-1.7-2.2-2.8-2.3c-0.6-0.1-1.6,0.1-2.4,1.1c-0.4,0.5-0.8,1.4-0.8,2.7l-3.2-6.4
																									c-0.1-0.3-0.4-0.4-0.7-0.2c-0.3,0.1-0.4,0.4-0.2,0.7l6,12l0,0l0,0l2.4,4.8c0.1,0.3,0.4,0.4,0.7,0.2
																									c0.1,0,0.1-0.1,0.2-0.1c0.1-0.2,0.2-0.4,0.1-0.6l-2.4-4.8c-2.5-4.9-1.8-6.9-1.2-7.6
																									c0.5-0.6,0.9-0.8,1.5-0.7c0.7,0.1,1.6,0.8,2,1.7c0.9,1.9,1.6,3.2,2.5,4.7c1,1.6,1.9,1.6,2.4,1.5
																									c0.2-0.1,0.5-0.2,0.7-0.5c0.4-0.4,0.7-1.1,0.8-2.4v-0.3c0.1-0.8,0.2-1.9,0-3.3c0.1,0.1,0.1,0.2,0.2,0.3
																									C691.2,239.7,692,240.2,692.9,240.1z"/>
																								<path class="st13" d="M665.3,253.7c0.3,0.3,0.7,0.2,1-0.1s0.2-0.7-0.1-1s-0.7-0.2-1,0.1
																									C665,253,665,253.4,665.3,253.7z"/>
																								<path class="st13" d="M668.2,218.5c0.2-0.3,0.2-0.7-0.1-1c-0.3-0.2-0.7-0.2-1,0.1c-0.2,0.3-0.2,0.7,0.1,1
																									C667.5,218.8,668,218.8,668.2,218.5z"/>
																								<path class="st13" d="M696.9,204.1c-7-4.8-16.6-4.8-27-0.2c-10.3,4.6-20.2,13.4-27.9,24.6
																									c-7.7,11.3-12.2,23.7-12.8,35c-0.6,11.4,3,20.3,10,25.1c7,4.8,16.6,4.8,27,0.2c7.6-3.4,15-9.1,21.5-16.4
																									c2.3-2.6,4.4-5.3,6.4-8.3C710,240.8,711.3,213.9,696.9,204.1z M693.2,263.6c-7.6,11.1-17.3,19.7-27.5,24.3
																									c-10.1,4.5-19.3,4.5-26-0.1s-10.1-13.2-9.5-24.2c0.6-11.1,5-23.4,12.6-34.5c2-2.9,4.1-5.6,6.4-8.2
																									c6.4-7.2,13.6-12.7,21.1-16.1c10.1-4.5,19.3-4.5,26,0.1C710.2,214.4,708.8,240.7,693.2,263.6z"/>
																							</g>
																						</g>
																					</g>
																				</g>
																			</g>
																		</g>
																	</g>
																</g>
															</g>
															<g>
																<g>
																	<circle id="SVGID_7_" class="st3" cx="153.2" cy="113.2" r="59.8"/>
																</g>
																<g>
																	<g>
																		<g>
																			<g>
																				<g>
																					<g>
																						<defs>
																							<circle id="SVGID_22_" cx="153.2" cy="113.2" r="59.8"/>
																						</defs>
																						<clipPath id="SVGID_23_">
																							<use xlink:href="#SVGID_22_"  style="overflow:visible;"/>
																						</clipPath>
																						<g class="st23">
																							<g>
																								<g>
																									<path class="st13" d="M192,116.4l-27.4-13l14.5-26.8c1.3-2.5,0.9-5.4-1-7.6c-1.8-2.1-4.7-2.9-7.3-2.1
																										l-47.3,15.2l0,0l0,0c-1.8,0.6-3.2,1.8-4,3.4s-1,3.5-0.4,5.3l15.9,48.9c1.2,3.6,5.1,5.6,8.7,4.4l47.2-15.2
																										c2.7-0.9,4.5-3.1,4.8-5.9C195.9,120.3,194.5,117.7,192,116.4L192,116.4z"/>
																								</g>
																								<path class="st14" d="M140.4,138.8L140.4,138.8c0.1,0.1,0.1,0.2,0.2,0.2l0,0l0,0l0,0h0.1c0.1,0,0.1,0,0.2,0
																									l49.7-16.2c0.2-0.1,0.3-0.2,0.3-0.4c0-0.2-0.1-0.4-0.3-0.5L157.2,106l17.3-34c0.1-0.2,0.1-0.4-0.1-0.5
																									c-0.1-0.2-0.3-0.2-0.5-0.1l-49.7,16.2c-0.3,0.1-0.4,0.4-0.3,0.6L140.4,138.8
																									C140.3,138.8,140.4,138.8,140.4,138.8z M189.2,122.3l-47.4,15.4l15.1-30.8L189.2,122.3z M140.9,137.3
																									l-7.9-24.2l16.3-32.7l23.7-7.7l-16.9,33.5l0,0L140.9,137.3z M132.6,111.7L125,88.3l23-7.5L132.6,111.7z"/>
																							</g>
																							<g>
																								<g>
																									<ellipse class="st18" cx="133.6" cy="148.3" rx="38.2" ry="38.2"/>
																								</g>
																								<g>
																									<polygon class="st13" points="109.8,149.3 108,149.2 108,149.2 107,148.2 107,148.1 109.9,146.1 
																										109.9,144.9 106.3,147.5 106.3,147.4 103.7,144.8 103.7,146 106.8,149.2 103.6,149.1 103.5,150.1 
																										109.8,150.3 																									"/>
																									<path class="st13" d="M106.8,144.2C106.8,144.2,106.9,144.2,106.8,144.2L106.8,144.2
																										c0.9,0.3,1.8,0.2,2.5-0.2c0.8-0.4,1.3-1.1,1.6-2c0.3-0.9,0.2-1.8-0.2-2.5c-0.4-0.7-1.1-1.3-1.9-1.5
																										c0,0,0,0-0.1,0l0,0c-1.7-0.5-3.5,0.4-4,2.2C104.2,141.9,105.1,143.7,106.8,144.2z M106.7,139.1
																										c0.5-0.3,1.1-0.3,1.7-0.1l0,0l0,0c0.6,0.2,1,0.5,1.3,1s0.4,1.1,0.2,1.7c-0.2,0.6-0.6,1.1-1.1,1.3
																										c-0.5,0.3-1.1,0.3-1.7,0.1l0,0l0,0c-0.6-0.2-1-0.5-1.3-1s-0.4-1.1-0.2-1.7
																										C105.8,139.9,106.2,139.4,106.7,139.1z"/>
																									<polygon class="st13" points="108.3,134.4 108.3,134.5 112.8,137.2 113.4,136.3 108.8,133.6 108.8,133.5 
																										109.8,131.8 109.1,131.4 106.5,135.7 107.3,136.2 																									"/>
																									<polygon class="st13" points="117.5,131.3 116.8,130.6 114.8,132.8 114.7,132.8 110.9,129.2 110.2,129.9 
																										114.8,134.2 																									"/>
																									
																										<rect x="116" y="125.1" transform="matrix(0.7771 -0.6294 0.6294 0.7771 -54.7278 101.9075)" class="st13" width="1" height="6.2"/>
																									<polygon class="st13" points="120.6,129 118.4,124.9 118.5,125 123.7,127.3 124.5,126.9 121.5,121.4 
																										120.7,121.9 122.8,125.8 122.6,125.7 117.6,123.5 116.8,123.9 119.7,129.4 																									"/>
																									<path class="st13" d="M127.7,121.3c0,1.1,0.8,2,2,2.1c0.7,0,1.2-0.2,1.6-0.7l-0.5-0.5
																										c-0.3,0.3-0.6,0.5-1.1,0.5c-0.7,0-1.2-0.6-1.2-1.4l0,0c0-0.7,0.6-1.3,1.3-1.3c0.4,0,0.8,0.2,1.1,0.5
																										l0.5-0.6c-0.4-0.4-0.8-0.6-1.5-0.7C128.7,119.3,127.8,120.2,127.7,121.3L127.7,121.3z"/>
																									<path class="st13" d="M128.5,125.2c0.3,0.1,0.7,0.2,1.1,0.2c2.2,0.1,4-1.7,4.1-3.9h-0.2h0.2
																										c0-1.1-0.4-2.1-1.1-2.8c-0.7-0.8-1.7-1.2-2.8-1.2c-2.2-0.1-4,1.7-4.1,3.9
																										C125.7,123.1,126.9,124.7,128.5,125.2z M127.5,119.1c0.6-0.6,1.4-0.9,2.3-0.9c0.3,0,0.6,0.1,0.9,0.2
																										c0.5,0.2,1,0.4,1.3,0.8c0.6,0.6,0.9,1.4,0.8,2.3c0,1.8-1.5,3.2-3.3,3.1l0,0c-1.8,0-3.1-1.5-3.1-3.3
																										C126.6,120.5,126.9,119.7,127.5,119.1z"/>
																									<polygon class="st13" points="137.2,125.8 138.4,121.3 140.7,126.7 141.5,126.9 143.1,120.9 142.1,120.6 
																										141,124.9 140.9,124.8 138.8,119.7 137.9,119.5 136.3,125.5 																									"/>
																									
																										<rect x="141.4" y="124.6" transform="matrix(0.4405 -0.8977 0.8977 0.4405 -31.4103 199.6997)" class="st13" width="6.2" height="1"/>
																									<path class="st13" d="M147.1,130.4c1,0.7,2,0.8,2.6,0.8l1.6-2.1l-2.1-1.6l-0.5,0.7l1.3,1l-0.8,1l0,0
																										c-0.5,0-1.1-0.2-1.5-0.6c-0.5-0.4-0.8-0.9-0.9-1.5c-0.1-0.6,0.1-1.2,0.5-1.7l0,0c0.8-1,2.1-1.3,3-0.5
																										c0.6,0.5,0.9,1,1,1.6l1-0.2c-0.2-0.9-0.6-1.5-1.4-2.1c-1.4-1.1-3.4-0.8-4.5,0.6l0,0
																										c-0.5,0.7-0.8,1.5-0.7,2.3C145.9,129.1,146.4,129.8,147.1,130.4z"/>
																									<polygon class="st13" points="150.6,133.5 152.7,131.9 154.6,134.4 152.5,136 153.1,136.8 158.1,133 
																										157.5,132.2 155.4,133.8 153.5,131.3 155.6,129.7 155,128.9 150,132.7 																									"/>
																									<polygon class="st13" points="159,137.2 154.2,139.2 154.6,140.1 159.5,138.1 159.5,138.1 160.2,140 
																										161.1,139.6 159.2,135 158.3,135.3 159.1,137.2 																									"/>
																									<path class="st13" d="M161,153.7l-0.7,0.5c0.4,0.6,0.7,1.1,0.5,1.7c-0.2,0.6-0.7,0.9-1.3,0.8l0,0
																										c-0.6-0.2-0.9-0.6-1.3-1.6l-1.2-2.6l-0.8-0.2l-1.2,4.3l0.8,0.2l0.8-3l0.8,1.7c0.6,1.3,0.9,1.9,1.8,2.2h0.1
																										l0,0c0.5,0.1,1,0.1,1.4-0.2s0.7-0.7,0.9-1.3C161.9,155.1,161.6,154.4,161,153.7z"/>
																									<path class="st13" d="M157.5,158.4L157.5,158.4c-0.3-0.2-0.5-0.3-0.8-0.3c-1.4-0.4-2.7,0-3.3,1.1
																										c-0.8,1.4-0.1,3,1.5,3.9l0,0c1.6,0.9,3.3,0.6,4.1-0.8C159.8,161,159.2,159.4,157.5,158.4z M158.2,161.9
																										c-0.2,0.4-0.7,0.7-1.2,0.7c-0.3,0-0.7,0-1-0.1c-0.2-0.1-0.4-0.2-0.6-0.3l0,0c-0.5-0.3-1-0.7-1.2-1.2
																										s-0.2-1,0-1.4s0.7-0.7,1.2-0.7s1.1,0.1,1.6,0.4l0,0c0.5,0.3,1,0.7,1.2,1.2
																										C158.5,161,158.5,161.5,158.2,161.9z"/>
																									<path class="st13" d="M154.9,165.3c0.2,0.7,0.2,1.2-0.2,1.7s-1,0.6-1.5,0.2l0,0c-0.4-0.4-0.5-0.9-0.5-2
																										v-2.8l-0.6-0.5l-2.8,3.4l0.7,0.6l2-2.4v1.8c0,1.4,0.1,2.1,0.8,2.7c0,0,0,0,0.1,0.1l0,0
																										c0.4,0.3,0.9,0.5,1.4,0.4s0.9-0.4,1.3-0.8c0.7-0.9,0.7-1.6,0.5-2.5L154.9,165.3z"/>
																									<path class="st13" d="M150.7,170c0.1,0.7,0.1,1.3-0.4,1.7c-0.5,0.5-1.1,0.5-1.5,0l0,0
																										c-0.4-0.4-0.4-1-0.4-2l0.2-2.8l-0.6-0.6l-3.1,3.2l0.6,0.6l2.2-2.2l-0.2,1.8c-0.1,1.4-0.1,2.1,0.5,2.8
																										c0,0,0,0,0.1,0.1l0,0c0.4,0.4,0.8,0.6,1.3,0.5c0.5,0,1-0.3,1.4-0.7c0.8-0.8,0.9-1.5,0.7-2.5L150.7,170z"/>
																									<path class="st13" d="M159.3,148.4l0.4-0.6c-0.3-0.3-0.6-0.5-0.6-1c-0.1-0.7,0.4-1.3,1.1-1.4l0,0
																										c0.7-0.1,1.4,0.3,1.5,1c0.1,0.4-0.1,0.8-0.3,1.1l0.6,0.4c0.3-0.4,0.5-0.9,0.4-1.6
																										c-0.2-1.2-1.2-1.9-2.3-1.7l0,0c-1.1,0.2-1.9,1.1-1.7,2.3C158.5,147.7,158.8,148.1,159.3,148.4z"/>
																									<path class="st13" d="M156.4,147.2c0.2,1.1,0.7,2,1.6,2.6c0.4,0.3,0.8,0.5,1.2,0.6
																										c0.6,0.2,1.2,0.2,1.8,0.1v-0.2l0.1,0.2c1-0.1,2-0.7,2.6-1.5s0.9-1.9,0.8-3c-0.3-2.2-2.3-3.7-4.5-3.4
																										C157.6,143,156.1,145,156.4,147.2z M162.2,144.1c0.7,0.5,1.1,1.3,1.2,2.1c0.1,0.9-0.1,1.7-0.6,2.4
																										s-1.2,1.1-2.1,1.2c-1.8,0.3-3.4-0.9-3.6-2.7c-0.3-1.8,0.9-3.3,2.7-3.6
																										C160.7,143.4,161.5,143.6,162.2,144.1z"/>
																									<path class="st13" d="M139.8,171.6l3.6,1.3c-8.8,3.7-18.8,2.4-26.3-3.5c-4.8-3.7-8.1-9-9.4-15
																										c0-0.2-0.1-0.4-0.1-0.7l3.1,2.4l0.5-0.7l-4.3-3.3l-3,4.5l0.8,0.5l2-3.1c0.1,0.3,0.1,0.5,0.1,0.6
																										c1.3,6.1,4.8,11.6,9.7,15.5c2.6,2,5.5,3.5,8.5,4.5c6,1.9,12.6,1.7,18.6-0.9l-1.5,3.4l0.8,0.4l2.2-5
																										l-5.1-1.8L139.8,171.6z"/>
																								</g>
																							</g>
																						</g>
																					</g>
																				</g>
																			</g>
																		</g>
																	</g>
																</g>
															</g>
															<rect x="-54.7" y="1.3" class="st4" width="1026.7" height="35.5"/>
															<rect x="171.8" y="11.7" class="st1" width="264.8" height="15.6"/>
															<rect x="260.8" y="351.7" class="st24" width="151.1" height="7.6"/>
															<rect x="260.8" y="281.3" class="st24" width="56.1" height="7.6"/>
															<rect x="333.5" y="281.3" class="st24" width="72.3" height="7.6"/>
															<rect x="421.1" y="281.3" class="st24" width="63.8" height="7.6"/>
															<rect x="387.1" y="389.2" class="st24" width="302.2" height="7.6"/>
															<g>
																<rect x="239.2" y="422.5" class="st3" width="582.9" height="173.2"/>
																<rect x="260.8" y="443" class="st24" width="151.1" height="7.6"/>
																<g>
																	<rect x="315.3" y="479.8" class="st24" width="109" height="7.6"/>
																	<rect x="315.3" y="494.5" class="st25" width="64.8" height="7.6"/>
																</g>
																<g>
																	<rect x="553.1" y="479.8" class="st24" width="109" height="7.6"/>
																	<rect x="553.1" y="494.5" class="st25" width="64.8" height="7.6"/>
																</g>
																<g>
																	<rect x="553.1" y="528.8" class="st24" width="109" height="7.6"/>
																	<rect x="553.1" y="543.5" class="st25" width="64.8" height="7.6"/>
																</g>
																<g>
																	<rect x="315.9" y="528.8" class="st24" width="109" height="7.6"/>
																	<rect x="315.9" y="543.5" class="st25" width="64.8" height="7.6"/>
																</g>
															</g>
															<rect x="620.6" y="275.3" class="st24" width="111.3" height="19.5"/>
															<rect x="739.7" y="275.3" class="st1" width="75.9" height="19.5"/>
															<rect x="669.4" y="345.7" class="st1" width="146.2" height="19.5"/>
															<rect x="734.6" y="15.1" class="st1" width="54.2" height="7.6"/>
															<rect x="661.5" y="15.1" class="st1" width="54.2" height="7.6"/>
															<rect x="590.6" y="15.1" class="st1" width="54.2" height="7.6"/>
														</g>
													</g>
												</g>
											</g>
										</g>
									</g>
								</g>
							</g>
						</g>
					</g>
				</g>
			</g>
		</g>
	</g>
</g>
<rect x="0.5" y="1.3" class="st26" width="956" height="523"/>
<path class="st27" d="M1.2,557.8h6.2v-1.1h-5v-3.5H7v-1.1H2.5v-3.4h4.9v-1.1H1.2V557.8z M10.3,550.1H9l2.4,3.8L9,557.8h1.4l1.8-3
	l1.8,3h1.4l-2.5-3.8l2.5-3.8H14l-1.8,3.1L10.3,550.1z M19.2,557.9c1.3,0,2-0.7,2.3-1.2h0.1v1h1.2v-5c0-2.4-1.8-2.7-2.8-2.7
	c-1.2,0-2.5,0.4-3.1,1.8l1.1,0.4c0.3-0.6,0.9-1.2,2-1.2s1.6,0.6,1.6,1.6l0,0c0,0.6-0.6,0.5-2,0.7s-3,0.5-3,2.2
	C16.6,557.1,17.8,557.9,19.2,557.9z M19.4,556.9c-0.9,0-1.6-0.4-1.6-1.2c0-0.9,0.8-1.2,1.7-1.3c0.5-0.1,1.8-0.2,2-0.4v1.1
	C21.6,556,20.8,556.9,19.4,556.9z M24.9,557.8h1.2V553c0-1.1,0.8-1.9,1.7-1.9c0.9,0,1.5,0.6,1.5,1.5v5.2h1.2v-5c0-1,0.6-1.7,1.7-1.7
	c0.8,0,1.6,0.4,1.6,1.6v5.1H35v-5.1c0-1.8-1-2.6-2.3-2.6c-1.1,0-1.9,0.5-2.3,1.3h-0.1c-0.4-0.8-1-1.3-2-1.3s-1.7,0.5-2,1.3H26v-1.2
	h-1.1V557.8z M37.1,560.6h1.2v-4h0.1c0.3,0.4,0.8,1.3,2.2,1.3c1.9,0,3.2-1.5,3.2-4c0-2.4-1.3-3.9-3.3-3.9c-1.5,0-1.9,0.9-2.2,1.3
	h-0.1v-1.2h-1.1C37.1,550.1,37.1,560.6,37.1,560.6z M38.2,553.9c0-1.7,0.8-2.9,2.2-2.9c1.5,0,2.2,1.3,2.2,2.9c0,1.6-0.8,2.9-2.2,2.9
	C39,556.9,38.2,555.7,38.2,553.9z M46.8,547.6h-1.2v10.2h1.2V547.6z M52.1,557.9c1.6,0,2.7-0.8,3-1.9l-1.1-0.3
	c-0.3,0.8-1,1.2-1.9,1.2c-1.4,0-2.3-0.9-2.4-2.5h5.5v-0.5c0-2.8-1.7-3.8-3.3-3.8c-2.1,0-3.4,1.6-3.4,4
	C48.6,556.4,49.9,557.9,52.1,557.9z M49.7,553.3c0.1-1.2,0.9-2.2,2.3-2.2c1.3,0,2.1,1,2.1,2.2H49.7z M64.1,557.9
	c2.1,0,3.5-1.6,3.5-3.9c0-2.4-1.4-4-3.5-4s-3.5,1.6-3.5,4S62,557.9,64.1,557.9z M64.1,556.9c-1.6,0-2.3-1.4-2.3-2.9s0.7-2.9,2.3-2.9
	s2.3,1.4,2.3,2.9S65.7,556.9,64.1,556.9z M72.8,550.1H71v-0.8c0-0.8,0.3-1.2,1.1-1.2c0.3,0,0.5,0.1,0.7,0.1l0.3-1
	c-0.2-0.1-0.5-0.2-1.1-0.2c-1.1,0-2.1,0.7-2.1,2v1.1h-1.2v1h1.2v6.6H71v-6.6h1.7v-1L72.8,550.1L72.8,550.1z M83.1,554.6
	c0,1.4-1.1,2.1-2,2.1c-1,0-1.7-0.7-1.7-1.8v-4.8h-1.2v4.9c0,1.9,1,2.9,2.5,2.9c1.2,0,1.9-0.6,2.3-1.4h0.1v1.3h1.2v-7.6h-1.2
	C83.1,550.2,83.1,554.6,83.1,554.6z M91.9,551.8c-0.4-1.1-1.2-1.8-2.7-1.8c-1.6,0-2.8,0.9-2.8,2.2c0,1.1,0.6,1.8,2,2.1l1.3,0.3
	c0.8,0.2,1.1,0.5,1.1,1.1c0,0.7-0.7,1.2-1.8,1.2c-1,0-1.6-0.4-1.8-1.2l-1.1,0.3c0.3,1.3,1.3,2,2.9,2c1.8,0,3-1,3-2.3
	c0-1.1-0.7-1.7-2-2.1l-1.1-0.3c-0.9-0.2-1.3-0.5-1.3-1.1c0-0.7,0.7-1.1,1.6-1.1c1,0,1.4,0.6,1.7,1.1L91.9,551.8z M96,557.9
	c1.3,0,2-0.7,2.3-1.2h0.1v1h1.2v-5c0-2.4-1.8-2.7-2.8-2.7c-1.2,0-2.5,0.4-3.1,1.8l1.1,0.4c0.3-0.6,0.9-1.2,2-1.2s1.6,0.6,1.6,1.6
	l0,0c0,0.6-0.6,0.5-2,0.7s-3,0.5-3,2.2C93.4,557.1,94.6,557.9,96,557.9z M96.2,556.9c-0.9,0-1.6-0.4-1.6-1.2c0-0.9,0.8-1.2,1.7-1.3
	c0.5-0.1,1.8-0.2,2-0.4v1.1C98.4,556,97.6,556.9,96.2,556.9z M104.8,560.8c1.8,0,3.3-0.8,3.3-2.8v-7.9H107v1.2h-0.1
	c-0.3-0.4-0.7-1.3-2.2-1.3c-1.9,0-3.3,1.5-3.3,3.9s1.4,3.7,3.2,3.7c1.5,0,2-0.9,2.2-1.3h0.1v1.6c0,1.3-0.9,1.8-2.1,1.8
	c-1.4,0-1.9-0.7-2.2-1.2l-0.9,0.7C102.1,560.1,103,560.8,104.8,560.8z M104.7,556.6c-1.5,0-2.2-1.1-2.2-2.7c0-1.6,0.7-2.8,2.2-2.8
	c1.4,0,2.2,1.2,2.2,2.8C106.9,555.6,106.1,556.6,104.7,556.6z M113.4,557.9c1.6,0,2.7-0.8,3-1.9l-1.1-0.3c-0.3,0.8-1,1.2-1.9,1.2
	c-1.4,0-2.3-0.9-2.4-2.5h5.5v-0.5c0-2.8-1.7-3.8-3.3-3.8c-2.1,0-3.4,1.6-3.4,4C109.8,556.4,111.2,557.9,113.4,557.9z M111,553.3
	c0.1-1.2,0.9-2.2,2.3-2.2c1.3,0,2.1,1,2.1,2.2H111z"/>
</svg>
