<?xml version="1.0" encoding="utf-8"?>
<!-- Generator: Adobe Illustrator 24.1.2, SVG Export Plug-In . SVG Version: 6.00 Build 0)  -->
<svg version="1.1" id="Layer_1" xmlns="http://www.w3.org/2000/svg" xmlns:xlink="http://www.w3.org/1999/xlink" x="0px" y="0px"
	 viewBox="0 0 951 382" style="enable-background:new 0 0 951 382;" xml:space="preserve">
<style type="text/css">
	.st0{fill:none;}
	.st1{clip-path:url(#SVGID_2_);}
	.st2{fill:#FFFFFF;stroke:#000000;stroke-miterlimit:10;}
	.st3{enable-background:new    ;}
	.st4{fill:#1D1D1B;}
	.st5{fill:#004DCC;}
	.st6{fill:#FB9600;}
	.st7{font-family:'JetBrainsMono-Medium';}
	.st8{font-size:26.0959px;}
</style>
<path class="st0" d="M4.1,0h942.5c2.2,0,4,1.8,4,4v374c0,2.2-1.8,4-4,4H4.1c-2.2,0-4-1.8-4-4V4C0.1,1.8,1.9,0,4.1,0z"/>
<g>
	<g>
		<g>
			<g>
				<g>
					<g>
						<defs>
							<rect id="SVGID_1_" width="952" height="382"/>
						</defs>
						<clipPath id="SVGID_2_">
							<use xlink:href="#SVGID_1_"  style="overflow:visible;"/>
						</clipPath>
						<g class="st1">
							<rect class="st2" width="952" height="382"/>
							<rect x="33.9" y="44.4" class="st0" width="864.2" height="298.5"/>
							<g class="st3">
								<path class="st4" d="M208.3,98.3c0-4.7,0.8-8.9,2.4-12.7c1.6-3.8,3.8-7.1,6.7-9.8s6.3-4.8,10.4-6.3
									c4.1-1.5,8.6-2.2,13.7-2.2c10.1,0,18.2,2.8,24.1,8.3c6,5.5,9,13.1,9,22.6V118c0,9.6-3,17.1-8.9,22.7
									c-5.9,5.6-14,8.4-24.2,8.4c-5.1,0-9.6-0.7-13.7-2.2c-4.1-1.5-7.5-3.6-10.4-6.3s-5.1-6-6.7-9.8c-1.6-3.8-2.4-8.1-2.4-12.8
									V98.3z M224.1,117.9c0,5.4,1.5,9.6,4.6,12.6c3.1,3.1,7.3,4.6,12.7,4.6c5.3,0,9.6-1.5,12.7-4.6c3.1-3.1,4.7-7.3,4.7-12.6
									V98.3c0-5.3-1.6-9.5-4.7-12.6c-3.1-3.1-7.3-4.6-12.7-4.6c-5.3,0-9.6,1.5-12.7,4.6c-3.1,3.1-4.7,7.3-4.7,12.6L224.1,117.9
									L224.1,117.9z"/>
								<path class="st4" d="M291.8,68.7H314V44.4h15.8v24.4h30.4V83h-30.4v42c0,2.7,0.8,4.8,2.4,6.2c1.6,1.5,3.7,2.2,6.5,2.2h20.1
									v14.2H338c-7.4,0-13.2-2.1-17.5-6.2c-4.3-4.1-6.4-9.6-6.4-16.5v-42h-22.2V68.7H291.8z"/>
								<path class="st4" d="M416.6,44.4v78.9c0,3.2,0.9,5.6,2.6,7.4c1.7,1.8,4.1,2.6,7.2,2.6h23.5v14.2h-24.1
									c-7.7,0-13.8-2.1-18.3-6.4s-6.7-10.2-6.7-17.8V58.7h-25.5V44.4H416.6z"/>
								<path class="st4" d="M468.9,147.5v-14.3h28.5V82.9h-24.9V68.7h40.3v64.5h23.1v14.3H468.9z M502,37.9h2.9
									c3,0,5.3,0.8,7.1,2.5c1.8,1.7,2.7,3.9,2.7,6.7s-0.9,5-2.7,6.6s-4.1,2.4-7.1,2.4H502c-3,0-5.3-0.8-7.2-2.4
									c-1.8-1.6-2.7-3.8-2.7-6.6s0.9-5,2.7-6.7C496.6,38.8,499,37.9,502,37.9z"/>
								<path class="st4" d="M568.4,68.7v13.6h1.3c1-4.9,3.4-8.6,7-11.2s8.3-3.9,14-3.9c8.2,0,14.6,2.6,19.1,7.9s6.8,12.1,6.8,20.5
									v51.9H601V97.8c0-5.4-1.4-9.6-4.2-12.6s-6.6-4.4-11.5-4.4c-5,0-8.9,1.6-11.7,4.7s-4.3,7.4-4.3,12.9v49.1h-15.8V68.7H568.4z"
									/>
							</g>
							<g class="st3">
								<path class="st4" d="M64.4,234.2l25.5,68.9c0.7,1.6,1.3,3.5,1.8,5.7c0.5,2.1,1,4.2,1.5,6.1c0.6,2.4,1.1,4.8,1.6,7.2h1.4
									c-0.3-2.6-0.6-4.9-0.8-6.9c-0.2-2.1-0.5-4.3-0.6-6.9c-0.2-2.5-0.3-5-0.3-7.5v-66.5H109v103.1H89.4l-25.1-69
									c-0.8-1.9-1.4-4-2-6.2s-1.1-4.2-1.6-6.2c-0.5-2.2-1-4.4-1.4-6.6h-1.4c0.3,2.1,0.5,4.3,0.7,6.6c0.2,1.9,0.4,4.1,0.5,6.7
									c0.1,2.5,0.2,5.2,0.2,8v66.8H44.8V234.2H64.4z"/>
								<path class="st4" d="M132.5,337.3V323H161v-50.3h-24.9v-14.2h40.3V323h23.1v14.3H132.5z M165.6,227.7h2.9
									c3,0,5.3,0.8,7.1,2.5s2.6,3.9,2.6,6.7s-0.9,5-2.6,6.6c-1.8,1.6-4.1,2.4-7.1,2.4h-2.9c-3,0-5.3-0.8-7.2-2.4
									c-1.8-1.6-2.7-3.8-2.7-6.6s0.9-5,2.7-6.7C160.2,228.6,162.6,227.7,165.6,227.7z"/>
								<path class="st4" d="M215.1,287.3c0-9.3,2.4-16.6,7.3-22.1c4.9-5.4,11.5-8.2,19.8-8.2c5.8,0,10.7,1.4,14.5,4.2
									c3.9,2.8,6.4,6.6,7.5,11.6h1v-14.3h15v74.1c0,9-2.9,16.1-8.6,21.3c-5.7,5.2-13.5,7.8-23.4,7.8H228v-13.6h20.3
									c5.1,0,9-1.4,11.9-4.1s4.3-6.5,4.3-11.4v-2.7l0.6-14.3h-0.9c-1.1,5-3.7,8.8-7.6,11.6c-3.9,2.8-8.8,4.2-14.6,4.2
									c-8.2,0-14.8-2.7-19.6-8.2c-4.9-5.5-7.3-12.9-7.3-22.1L215.1,287.3L215.1,287.3z M231,300.8c0,5.3,1.5,9.4,4.5,12.4
									s7.1,4.5,12.2,4.5s9.2-1.5,12.2-4.5s4.5-7.1,4.5-12.4v-13.2c0-5.3-1.5-9.4-4.5-12.4s-7.1-4.5-12.2-4.5s-9.2,1.5-12.2,4.5
									s-4.5,7.1-4.5,12.4V300.8z"/>
								<path class="st4" d="M303.1,234.2h15.8v24.4c0,1.3,0,2.8-0.1,4.4s-0.2,3.1-0.4,4.4c-0.1,1.4-0.3,3-0.4,4.8h1.3
									c1-4.8,3.4-8.5,7.1-11.1s8.3-3.9,14-3.9c7.9,0,14.2,2.6,18.9,7.7c4.7,5.1,7,12,7,20.7v51.9h-15.8v-49.7
									c0-5.3-1.4-9.5-4.2-12.5c-2.8-3-6.6-4.5-11.5-4.5c-5,0-8.9,1.6-11.7,4.7c-2.9,3.2-4.3,7.4-4.3,12.9v49.1H303V234.2H303.1z"
									/>
								<path class="st4" d="M385.2,258.5h22.2v-24.4h15.8v24.4h30.4v14.2h-30.4v42c0,2.7,0.8,4.8,2.4,6.2c1.6,1.5,3.7,2.2,6.5,2.2
									h20.1v14.2h-20.8c-7.4,0-13.2-2.1-17.5-6.2s-6.4-9.6-6.4-16.5v-42h-22.2v-14.1L385.2,258.5L385.2,258.5z"/>
								<path class="st4" d="M624.7,262.3c0,7.4-2,14.5-5.9,21.3c-4,6.7-10.4,13.8-19.3,21.3l-16,13.6c-0.8,0.6-1.6,1.1-2.4,1.6
									c-0.9,0.5-1.7,1-2.4,1.5c-0.9,0.5-1.7,0.9-2.6,1.3v0.6c1.4-0.1,2.9-0.1,4.3-0.1c1.3-0.1,2.7-0.1,4.2-0.1s2.9,0,4.4,0h37
									v14.2h-67.2v-16.9l30.4-25.2c7.1-5.9,12.1-11.4,15.1-16.4s4.5-10.3,4.5-16c0-5-1.5-8.9-4.4-11.8c-3-2.9-7-4.4-12-4.4
									c-5.4,0-9.8,1.4-13.2,4.3c-3.3,2.9-5,6.7-5,11.5h-16c0.1-4.5,1-8.5,2.7-12.2c1.7-3.6,4-6.7,7-9.3s6.6-4.6,10.8-6
									s8.8-2.1,13.9-2.1c4.9,0,9.3,0.7,13.3,2.1c4,1.4,7.4,3.4,10.2,5.9c2.9,2.6,5.1,5.7,6.6,9.3
									C623.9,253.7,624.7,257.8,624.7,262.3z"/>
								<path class="st4" d="M645.5,307.5V264c0-4.8,0.8-9.1,2.4-12.9c1.6-3.8,3.8-7.1,6.7-9.8s6.3-4.8,10.4-6.3
									c4.1-1.5,8.6-2.2,13.7-2.2c5.1,0,9.6,0.7,13.7,2.2c4.1,1.5,7.5,3.6,10.4,6.3s5.1,6,6.6,9.8s2.3,8.1,2.3,12.9v43.5
									c0,9.5-3,17-9,22.7s-14,8.5-24,8.5c-5.1,0-9.6-0.7-13.7-2.2c-4.1-1.5-7.5-3.6-10.4-6.3s-5.1-6-6.7-9.9
									C646.3,316.5,645.5,312.2,645.5,307.5z M660.4,307.2c0,5.4,1.7,9.8,5,13.1c3.3,3.3,7.7,4.9,13.2,4.9c5.4,0,9.8-1.6,13.1-4.9
									s4.9-7.7,4.9-13.1v-43c0-5.4-1.6-9.8-4.9-13.1s-7.7-4.9-13.1-4.9c-5.4,0-9.8,1.6-13.2,4.9c-3.3,3.3-5,7.7-5,13.1V307.2z
									 M671.4,282.9c0-2.4,0.6-4.3,1.9-5.7s3-2.1,5.2-2.1s3.9,0.7,5.2,2.1s1.9,3.3,1.9,5.7v5.7c0,2.4-0.6,4.3-1.9,5.7
									c-1.3,1.4-3,2.1-5.2,2.1s-3.9-0.7-5.2-2.1s-1.9-3.3-1.9-5.7V282.9z"/>
								<path class="st4" d="M796.6,262.3c0,7.4-2,14.5-5.9,21.3c-4,6.7-10.4,13.8-19.3,21.3l-16,13.6c-0.8,0.6-1.6,1.1-2.4,1.6
									c-0.9,0.5-1.7,1-2.4,1.5c-0.9,0.5-1.7,0.9-2.6,1.3v0.6c1.4-0.1,2.9-0.1,4.3-0.1c1.3-0.1,2.7-0.1,4.2-0.1s2.9,0,4.4,0h37
									v14.2h-67.2v-16.9l30.4-25.2c7.1-5.9,12.1-11.4,15.1-16.4s4.5-10.3,4.5-16c0-5-1.5-8.9-4.4-11.8c-3-2.9-7-4.4-12-4.4
									c-5.4,0-9.8,1.4-13.2,4.3c-3.3,2.9-5,6.7-5,11.5h-16c0.1-4.5,1-8.5,2.7-12.2c1.7-3.6,4-6.7,7-9.3s6.6-4.6,10.8-6
									s8.8-2.1,13.9-2.1c4.9,0,9.3,0.7,13.2,2.1c4,1.4,7.4,3.4,10.2,5.9c2.9,2.6,5.1,5.7,6.6,9.3
									C795.8,253.7,796.6,257.8,796.6,262.3z"/>
								<path class="st4" d="M883.8,262.3c0,7.4-2,14.5-5.9,21.3c-4,6.7-10.4,13.8-19.3,21.3l-16,13.6c-0.8,0.6-1.6,1.1-2.4,1.6
									c-0.9,0.5-1.7,1-2.4,1.5c-0.9,0.5-1.7,0.9-2.6,1.3v0.6c1.4-0.1,2.9-0.1,4.3-0.1c1.3-0.1,2.7-0.1,4.2-0.1s2.9,0,4.4,0h37
									v14.2h-67.2v-16.9l30.4-25.2c7.1-5.9,12.1-11.4,15.1-16.4s4.5-10.3,4.5-16c0-5-1.5-8.9-4.4-11.8c-3-2.9-7-4.4-12-4.4
									c-5.4,0-9.8,1.4-13.2,4.3c-3.3,2.9-5,6.7-5,11.5h-16c0.1-4.5,1-8.5,2.7-12.2c1.7-3.6,4-6.7,7-9.3s6.6-4.6,10.8-6
									s8.8-2.1,13.9-2.1c4.9,0,9.3,0.7,13.2,2.1c4,1.4,7.4,3.4,10.2,5.9c2.9,2.6,5.1,5.7,6.6,9.3
									C883,253.7,883.8,257.8,883.8,262.3z"/>
							</g>
							<g>
								<path class="st5" d="M631.9,295.4L631.9,295.4L631.9,295.4L472,272c-18.5-2.7-35.7,10.1-38.5,28.6
									c-2.7,18.5,10.1,35.7,28.6,38.5L622,362.5c18.5,2.7,35.7-10.1,38.5-28.6C663.2,315.4,650.3,298.2,631.9,295.4z"/>
								<g>
									<path class="st6" d="M647,314c-4-5.3-9.8-8.8-16.4-9.8l0,0l-159.8-23.4c-13.6-2-26.3,7.5-28.3,21.1s7.5,26.3,21.1,28.3l0,0
										l158,23.2c0.5,0.1,0.9,0.2,1.4,0.3l0,0c1.7,0.3,3.4,0.3,5.1,0.2c5-0.2,9.7-1.9,13.8-4.9c5.4-4,8.8-9.8,9.8-16.4
										C652.6,326,650.9,319.4,647,314z M463.7,328.7L463.7,328.7c-12.8-1.9-21.6-13.8-19.8-26.6c1.9-12.8,13.8-21.6,26.6-19.8
										l151.3,22.2c-10.1,2-18.4,10.1-20,20.9c-1.5,10.5,3.8,20.5,12.6,25.4L463.7,328.7z M640.5,347.8c-3.7,2.7-8,4.3-12.5,4.6
										c-1.5,0.1-3,0-4.5-0.2l-1.8-0.3c-12-2.5-20.1-14-18.3-26.2c1.9-12.7,13.8-21.6,26.5-19.7l0,0c6.2,0.9,11.6,4.2,15.3,9.2
										s5.3,11.2,4.4,17.3C648.7,338.6,645.5,344,640.5,347.8z"/>
									<path class="st6" d="M603.1,307l-13.1-1.9c-0.4-0.1-0.8,0.2-0.9,0.7c-0.1,0.4,0.2,0.8,0.7,0.9l2.7,0.4l-8.1,34.4
										c-0.1,0.2,0,0.4,0.1,0.6s0.3,0.3,0.5,0.3l10,1.5c0.4,0.1,0.8-0.2,0.9-0.7c0.1-0.4-0.2-0.8-0.7-0.9l-9.1-1.4l4.2-17.6l7,1
										c0.4,0.1,0.8-0.2,0.9-0.7c0.1-0.4-0.2-0.8-0.7-0.9l-6.9-1l3.4-14.5l8.9,1.3c0.4,0.1,0.8-0.2,0.9-0.7
										C603.9,307.5,603.6,307.1,603.1,307z"/>
									<path class="st6" d="M533.5,296.8l-13.4-2c-0.4-0.1-0.8,0.2-0.9,0.7c-0.1,0.4,0.2,0.8,0.7,0.9l5.7,0.8l-8.1,34.4
										c-0.1,0.4,0.2,0.8,0.6,0.9c0,0,0,0,0.1,0c0.4,0.1,0.8-0.2,0.9-0.6l8.1-34.5l6.2,0.9c0.4,0.1,0.8-0.2,0.9-0.7
										C534.3,297.2,534,296.8,533.5,296.8z"/>
									<path class="st6" d="M555.9,299.8c-0.4-0.1-0.8,0-1,0.4l-14.1,30.9l0.9-32.7c0-0.4-0.3-0.8-0.7-0.8
										c-0.4-0.1-0.8,0.2-0.9,0.6l-8.4,35.5c-0.1,0.4,0.2,0.8,0.6,0.9c0.4,0.1,0.8-0.2,0.9-0.6l6.6-28l-0.8,28.9
										c0,0.4,0.2,0.7,0.6,0.8c0.3,0.1,0.7-0.1,0.9-0.4l12.4-27.2l-6.5,27.8c-0.1,0.4,0.2,0.8,0.6,0.9c0,0,0,0,0.1,0
										c0.4,0.1,0.8-0.2,0.9-0.6l8.4-35.5C556.5,300.3,556.3,299.9,555.9,299.8z"/>
									<path class="st6" d="M639.3,317.6c-0.4-0.1-0.8,0.2-0.9,0.6l-4.5,19.2l-1.9-20.3c0-0.4-0.3-0.7-0.7-0.7s-0.7,0.2-0.8,0.6
										l-5.6,23.9c-0.1,0.4,0.2,0.8,0.6,0.9c0.4,0.1,0.8-0.2,0.9-0.6l4.5-19.2l1.9,20.3l0,0v0.1c0,0.1,0,0.1,0.1,0.2
										c0,0,0,0.1,0.1,0.1l0.1,0.1c0,0,0.1,0,0.1,0.1c0.1,0,0.1,0.1,0.2,0.1c0,0,0,0,0.1,0c0,0,0,0,0.1,0l0,0l0,0l0,0l0,0
										c0.1,0,0.1,0,0.2,0l0,0c0.1,0,0.1,0,0.2-0.1c0,0,0.1,0,0.1-0.1l0.1-0.1l0.1-0.1l0.1-0.1c0,0,0-0.1,0.1-0.1l0,0l5.6-23.9
										C639.9,318.1,639.7,317.7,639.3,317.6z"/>
									<path class="st6" d="M582.4,304l-4.7-0.7l0,0l-4-0.6c-0.4-0.1-0.8,0.2-0.9,0.7c-0.1,0.4,0.2,0.8,0.7,0.9l3.2,0.5l-8.1,34.4
										c-0.1,0.2,0,0.4,0.1,0.6s0.3,0.3,0.5,0.3l5.6,0.8c3.1,0.5,6-1.5,6.7-4.6l5.9-25c0.4-1.6,0.1-3.4-0.9-4.8
										C585.5,305.1,584,304.2,582.4,304z M579.9,335.9c-0.5,2.3-2.7,3.7-5,3.4l-4.8-0.7l7.9-33.7l4,0.6c1.2,0.2,2.3,0.9,3,1.9
										s0.9,2.3,0.6,3.5L579.9,335.9z"/>
									<path class="st6" d="M566.4,301.3c-3.1-0.5-6,1.5-6.7,4.6l-5.9,25c-0.4,1.6-0.1,3.4,0.9,4.8c0.9,1.4,2.4,2.3,4.1,2.6
										c3.1,0.5,6-1.5,6.7-4.6l5.9-25c0.4-1.6,0.1-3.4-0.9-4.8S568,301.6,566.4,301.3z M563.9,333.3c-0.5,2.3-2.7,3.7-5,3.4
										c-1.2-0.2-2.3-0.9-3-1.9s-0.9-2.3-0.7-3.5l5.9-25c0.5-2.3,2.7-3.7,5-3.4c1.2,0.2,2.3,0.9,3,1.9s0.9,2.3,0.6,3.5
										L563.9,333.3z"/>
									<path class="st6" d="M622.6,315.2c-2.2-0.3-4.3,1.1-4.8,3.3l-4,16.8c-0.3,1.2,0,2.4,0.6,3.4c0.7,1,1.7,1.7,2.9,1.8
										c2.2,0.3,4.3-1.1,4.8-3.3l4-16.8c0.3-1.2,0-2.4-0.6-3.4C624.9,316.1,623.8,315.4,622.6,315.2z M620.7,337
										c-0.3,1.4-1.6,2.3-3.1,2.1c-0.8-0.1-1.4-0.5-1.9-1.2c-0.4-0.6-0.6-1.4-0.4-2.2l4-16.8c0.3-1.4,1.7-2.3,3.1-2.1
										c0.8,0.1,1.4,0.5,1.9,1.2c0.4,0.6,0.6,1.4,0.4,2.2L620.7,337z"/>
									<path class="st6" d="M472,287.7l-4.6-0.7h-0.1l0,0l0,0l0,0c-0.1,0-0.2,0-0.3,0l-2.8-0.4c-0.4-0.1-0.8,0.2-0.9,0.7
										c-0.1,0.4,0.2,0.8,0.7,0.9l0,0l2.1,0.3l-0.1,0.4l-8,34l0,0l0,0c-0.1,0.2,0,0.4,0.1,0.6s0.3,0.3,0.5,0.3l6.1,0.9
										c2.7,0.4,5.3-1.4,5.9-4.1l2.4-10.5c0.3-1.4,0-2.9-0.8-4.2c-0.2-0.4-0.5-0.7-0.9-0.9c1.6-0.6,2.8-1.9,3.2-3.7l1.7-7.2
										c0.3-1.4,0.1-3-0.8-4.2C474.8,288.7,473.5,287.9,472,287.7z M471.6,309.7l-2.4,10.5c-0.4,1.9-2.3,3.2-4.2,2.9l-5.2-0.8
										l4.2-17.8l4.5,0.7c1,0.2,1.9,0.7,2.5,1.6C471.6,307.7,471.8,308.7,471.6,309.7z M473.2,300.9c-0.5,1.9-2.2,3.1-4.1,2.8l0,0
										l-4.7-0.7l3.4-14.4l4.1,0.6c1,0.2,1.9,0.7,2.5,1.6s0.8,1.9,0.5,2.9L473.2,300.9z"/>
									<path class="st6" d="M513.3,293.5c-3-0.4-5.7,1.4-6.4,4.3l-0.5,2.1c-0.5,2.2-0.3,4.5,0.8,6.5l4.4,8.1
										c0.8,1.6,1.1,3.5,0.7,5.3l-1.5,6.5c-0.5,2.1-2.7,3.5-4.9,3.2c-1.3-0.2-2.4-0.8-3.1-1.8s-0.9-2.2-0.6-3.4l1.2-5.2
										c0.1-0.4-0.2-0.8-0.6-0.9s-0.8,0.2-0.9,0.6l-1.2,5.2c-0.4,1.6-0.1,3.3,0.8,4.6c0.9,1.4,2.4,2.2,4.2,2.5
										c3,0.4,6-1.5,6.7-4.4l1.5-6.5c0.5-2.2,0.2-4.4-0.8-6.4l-4.4-8.1c-0.9-1.7-1.1-3.6-0.6-5.4l0.5-2.1c0.5-2.1,2.5-3.5,4.7-3.1
										c1.2,0.2,2.2,0.8,2.8,1.8c0.7,1,0.9,2.1,0.6,3.3l-0.8,3.5c-0.1,0.4,0.2,0.8,0.6,0.9c0.4,0.1,0.8-0.2,0.9-0.6l0.8-3.5
										c0.4-1.6,0-3.2-0.9-4.5C516.3,294.6,514.9,293.7,513.3,293.5z"/>
									<path class="st6" d="M503.8,314.2c0.1-0.4-0.2-0.8-0.7-0.9l-4.6-0.7l5-19.4c0.1-0.2,0-0.4-0.1-0.6s-0.3-0.3-0.5-0.3
										l-3.2-0.5c-0.3,0-0.7,0.1-0.8,0.4l-16.8,33.5l-7.2-1.1l4.2-17.8l6.9,1c0.4,0.1,0.8-0.2,0.9-0.7c0.1-0.4-0.2-0.8-0.7-0.9
										l-6.7-1l3.4-14.4l9,1.3c0.4,0.1,0.8-0.2,0.9-0.7c0.1-0.4-0.2-0.8-0.7-0.9l-12.5-1.8c-0.4-0.1-0.8,0.2-0.9,0.7
										c-0.1,0.4,0.2,0.8,0.7,0.9l1.9,0.3l-8.1,34.4c-0.1,0.2,0,0.4,0.1,0.6s0.3,0.3,0.5,0.3l8.7,1.3l0,0c0.4,0.1,0.7-0.2,0.8-0.5
										l0,0l7-13.9c0.1,0,0.1,0.1,0.2,0.1l6.1,0.9l-3.6,14c-0.1,0.4,0.1,0.9,0.6,1h0.1c0.4,0.1,0.8-0.2,0.9-0.6l3.7-14.2l4.7,0.7
										C503.3,314.9,503.7,314.7,503.8,314.2z M497,312.4l-6-0.9l9.1-18.1l1.8,0.3L497,312.4z"/>
								</g>
							</g>
							<g>
								<g>
									<path class="st5" d="M218.4,136.4l-46.5-33.3l35.8-44.9c3.2-4.3,3.4-9.8,0.7-14.4s-7.7-7-12.9-6.3L102.6,50l0,0l0,0
										c-3.4,0.5-6.5,2.3-8.6,5c-2.1,2.8-3,6.2-2.5,9.7l13.2,96.1c1,7.1,7.6,12.1,14.7,11.1l92.8-12.5c5.3-0.7,9.4-4.3,10.8-9.4
										C224.2,145,222.6,139.8,218.4,136.4C218.4,136.5,218.4,136.5,218.4,136.4z"/>
								</g>
								<path class="st6" d="M115.1,160.9L115.1,160.9c0.1,0.2,0.2,0.3,0.3,0.4l0,0h0.1l0,0c0.1,0,0.1,0.1,0.2,0.1s0.2,0,0.4,0
									l97.6-13.4c0.4-0.1,0.7-0.3,0.8-0.7s0-0.8-0.4-1l-56.8-40.6l43.3-57.5c0.2-0.3,0.3-0.7,0.1-1s-0.6-0.5-0.9-0.5l-97.6,13.4
									c-0.5,0.1-0.9,0.5-0.8,1.1l13.7,99.4C115.1,160.8,115.1,160.9,115.1,160.9z M211.1,146.5L118,159.4l38.2-52.1L211.1,146.5z
									 M116.6,158.2l-6.5-47.5l41.1-55.3l46.6-6.4l-42.5,56.5c0,0,0,0,0,0.1L116.6,158.2z M109.7,108.1L103.3,62l45.2-6.2
									L109.7,108.1z"/>
							</g>
							<g>
								<path class="st6" d="M466.8,189.6c0.5-5.1-1-10-4.2-13.9l-0.4-0.5c-0.2-0.2-0.3-0.4-0.5-0.6c0.9-2,1.6-4.1,1.8-6.3
									c0.5-4.9-0.9-9.7-3.9-13.5l12.3-10.1c3.8-3.2,6.2-7.6,6.7-12.6s-1-9.8-4.1-13.6l-0.9-1.1c-2-2.4-4.5-4.3-7.4-5.4
									c-6.3-2.6-13.6-1.5-18.8,2.9l-6.5,5.3l0.4-0.7c4.5-8.9,1.5-19.8-6.9-24.8c-0.8-0.5-1.6-0.9-2.5-1.2l0,0
									c-8.5-3.4-18.3-0.1-23,7.8l-21,35.4c-8.3-2.1-17.2-0.1-23.8,5.5l-2,1.6c-22.9,18.8-26.2,52.7-7.4,75.6l0.1,0.2
									c5.7,6.9,13.1,12.4,21.3,15.7c18.3,7.4,39.1,4.3,54.4-8.3l22.4-18.4c0.1-0.1,0.1-0.1,0.2-0.2l7-5.8
									C463.8,199.2,466.3,194.7,466.8,189.6z"/>
								<g>
									<g>
										<path class="st5" d="M401.8,187.3c-0.3-0.4-0.8-0.5-1.1-0.2c-0.1,0.1-6.2,4.3-12.8,9l-0.1-0.1l-9.3-6.2
											c4.8-3.5,11.5-8.3,13.7-8.5c0.4,0,0.7-0.4,0.7-0.8c0-0.4-0.3-0.8-0.8-0.8c-1.8-0.1-5.6-3-7.1-4.5c-5-5-9.4-5.2-11.8-3.7
											c-1.7,1.1-2.5,2.9-2,4.7c0.3,0.9,1.8,4,8.4,3.6c0.5,0,0.8-0.4,0.8-0.9s-0.4-0.8-0.9-0.8c-4.3,0.3-6.3-1.1-6.8-2.4
											c-0.3-1,0.2-2.1,1.3-2.8c1.9-1.2,5.5-0.9,9.8,3.4c0.9,0.9,3.4,3,5.7,4.2c-3.2,1.6-8.2,5.1-13.4,8.9c-2,1.4-3.6,2.7-4.3,3
											c-2.8,1.6-6.9,2.3-10.2-0.7c-1.8-1.7-1.8-3.4-1.6-4.5c0.5-2,2.4-3.8,4.8-4.4c1.5-0.4,4.5-0.6,7.3,2.5
											c0.3,0.3,0.8,0.4,1.2,0.1c0.3-0.3,0.4-0.8,0.1-1.2c-2.5-2.7-5.7-3.8-8.9-3c-2.9,0.7-5.3,3-6,5.6c-0.6,2.2,0.2,4.4,2,6.1
											c0.9,0.8,1.8,1.4,2.8,1.8c2.9,1.2,6.2,0.9,9.3-0.9c0.7-0.4,2.3-1.6,4.4-3.1l0,0l9.3,6.3c-5.1,3.7-10.3,7.4-13,9.5
											c-0.4,0.3-0.4,0.8-0.1,1.1c0.1,0.1,0.2,0.2,0.3,0.3c0.3,0.1,0.6,0.1,0.8-0.1c6.3-4.9,26.9-19.2,27.1-19.4
											C401.9,188.2,402,187.7,401.8,187.3z"/>
										<path class="st5" d="M391.7,209.9c-1.7,0.1-3.1,0.1-4.1-0.1c-0.4-0.1-1.5-0.6-1.7-1.2c-0.1-0.4,0.4-1.1,1.3-1.8
											c3.8-2.9,8.7-6.3,8.7-6.3c0.4-0.3,0.5-0.8,0.2-1.1c-0.3-0.4-0.8-0.5-1.1-0.2c0,0-5,3.5-8.8,6.4c-1.5,1.2-2.2,2.4-1.9,3.5
											c0.3,1.1,1.4,1.8,2.2,2.2c0.3,0.1,0.5,0.2,0.7,0.2c1.1,0.2,2.7,0.3,4.5,0.2c0.5,0,0.8-0.4,0.8-0.9
											C392.6,210.2,392.2,209.9,391.7,209.9z"/>
										<path class="st5" d="M400.7,197.1c0.2-0.6,0-1.2-0.6-1.4s-1.2,0-1.4,0.6c-0.2,0.6,0,1.2,0.6,1.4
											C399.8,198,400.5,197.7,400.7,197.1z"/>
										<path class="st5" d="M415.8,199.5c-0.3-0.4-0.8-0.4-1.1-0.2l-18.4,14.1c-0.4,0.3-0.4,0.8-0.2,1.1c0.1,0.1,0.2,0.2,0.3,0.3
											c0.3,0.1,0.6,0.1,0.8-0.1l18.4-14.1C416,200.4,416.1,199.8,415.8,199.5z"/>
										<path class="st5" d="M394.1,215.4c-0.6-0.2-1.2,0-1.4,0.6c-0.2,0.6,0,1.2,0.6,1.4s1.2,0,1.4-0.6
											C394.9,216.3,394.6,215.6,394.1,215.4z"/>
									</g>
									<path class="st5" d="M457.5,188.7c0.3-2.6-0.5-5.1-2.2-7.2L455,181c-1.7-2-4-3.3-6.6-3.5c-0.7-0.1-1.4-0.1-2.1,0l4.4-3.6
										c2-1.7,3.3-4,3.5-6.6c0.3-2.6-0.5-5.1-2.2-7.2l-0.4-0.5c-1.7-2-4-3.3-6.6-3.5c-0.6-0.1-1.2-0.1-1.8,0l22.7-18.6
										c1.9-1.6,3.1-3.9,3.3-6.5c0.2-2.5-0.6-5.1-2.2-7c-1.9-2.3-4.8-3.8-7.7-4c-2.6-0.2-5,0.7-6.9,2.5l-38,30l18.5-37.4
										c2.3-4.4,1-9.7-3-12.4l-0.4-0.3c-2.2-1.3-4.7-1.6-7.1-1s-4.4,2.1-5.7,4.3l-25.2,42.5c-6.5-4.7-15.5-4.4-21.7,0.8l-2.3,1.9
										c-0.1,0.1-0.2,0.1-0.3,0.2c-0.3,0.2-0.5,0.4-0.7,0.7l-0.9,0.8c-0.1,0-0.1,0.1-0.1,0.2c-16.7,15.9-18.5,42.5-3.8,60.5
										l0.1,0.1c4.8,5.8,10.8,10.3,17.6,13c3.9,1.6,8.1,2.6,12.5,3.1c11.8,1.2,23.4-2.4,32.6-9.9l20.6-16.9l0.1-0.1l9-7.4
										C456,193.6,457.3,191.3,457.5,188.7z M444.8,157.8c2.2,0.2,4.1,1.3,5.5,2.9l0.4,0.5c1.4,1.7,2,3.8,1.8,6s-1.3,4.1-2.9,5.5
										l-21.8,17.9c-1.7,1.4-3.8,2-6,1.8s-4.1-1.3-5.5-2.9l-0.4-0.5c-1.4-1.7-2-3.8-1.8-6s1.3-4.1,2.9-5.5l2-1.6
										c0.9-0.7,1.8-1.4,2.7-2.2l17.1-14C440.5,158.2,442.7,157.6,444.8,157.8z M418.1,106.6c1-1.8,2.7-3,4.7-3.5s4.1-0.2,5.8,0.8
										l0.4,0.2c3.2,2.1,4.3,6.6,2.4,10.3L411.3,155c-0.2,0.3-0.1,0.8,0.2,1c0.3,0.2,0.7,0.2,1,0l40.9-32.3c2-1.9,4.2-2.2,5.7-2.1
										c2.5,0.2,5,1.4,6.5,3.4c1.3,1.6,2,3.7,1.8,5.9s-1.1,4.1-2.7,5.4l-26.2,21.5c-0.3,0.2-0.6,0.4-0.8,0.6L421.2,172l-28.6-22.6
										L418.1,106.6z M391,150l29,23l-1.8,1.5c-7.9,5.9-15.9,6.2-22.9,0.8l-28-22l3.5-2.9C376.6,145.4,385.1,145.3,391,150z
										 M423.4,218.3c-8.9,7.3-20,10.7-31.4,9.5c-11.4-1.1-21.7-6.6-29-15.5l-0.1-0.1c-14.1-17.2-12.5-42.6,3.3-57.9l28.2,22.1
										c1.6,1.3,3.3,2.3,5,3c4.6,1.9,9.5,1.7,14.3-0.5c-0.6,1.2-1.1,2.4-1.2,3.8c-0.3,2.6,0.5,5.1,2.2,7.2l0.4,0.5l0,0
										c1.1,1.3,2.4,2.3,3.9,2.9c0.9,0.3,1.8,0.6,2.7,0.7c0.7,0.1,1.4,0.1,2.1,0c-3.9,3.5-4.4,9.4-1,13.5l0.4,0.5l0,0
										c1.1,1.3,2.4,2.3,3.9,2.8c1.5,0.6,3.1,0.8,4.7,0.7L423.4,218.3z M453,194l-17,14c-3.5,2.8-8.6,2.3-11.5-1.1l-0.4-0.5
										c-2.8-3.5-2.3-8.6,1.1-11.5l17-14c1.7-1.4,3.8-2,6-1.8s4.1,1.3,5.5,2.9l0.4,0.5c1.4,1.7,2,3.8,1.8,6
										C455.7,190.7,454.7,192.7,453,194z"/>
								</g>
							</g>
							<g>
								<path class="st6" d="M167.1,143.6c-11.1-22.4-38.4-31.6-60.8-20.5l-6.5,3.2l-3.2-6.5C91.2,109,82,100.9,70.5,97
									c0,0,0,0-0.1,0c-11.5-3.9-23.8-3-34.6,2.4c-10.9,5.4-19,14.7-22.8,26.2s-3,23.8,2.4,34.6l43.5,87.6l0.2-0.1l0.1,0.2
									l87.5-43.5c10.9-5.4,19-14.7,22.8-26.2C173.3,166.7,172.4,154.4,167.1,143.6z"/>
								<g>
									<path class="st5" d="M106.8,157.8c2.7,1.1,4.3,5.1,4.2,8.2c0,0.4,0.2,0.7,0.6,0.8c0.1,0,0.2,0,0.3,0c0.5,0,0.9-0.4,0.9-0.8
										c0-1.4-0.2-2.9-0.7-4.3l12-5.9l9.6,5.1c0,0,0.1,0,0.1,0.1c0.4,0.1,0.8,0,1-0.4s0.1-0.9-0.4-1.2l-8.6-4.6l3.4-1.7l9.6,5.1
										c0,0,0.1,0,0.1,0.1c0.4,0.1,0.8,0,1-0.4s0.1-0.9-0.4-1.2l-8.6-4.6l3.4-1.7l9.6,5.1c0,0,0.1,0,0.1,0.1c0.4,0.1,0.8,0,1-0.4
										s0.1-0.9-0.4-1.2l-8.6-4.6l3.4-1.7l9.6,5.1c0,0,0.1,0,0.1,0.1c0.4,0.1,0.8,0,1-0.4s0.1-0.9-0.4-1.2l-9.5-5l2.1-10.8
										c0.1-0.5-0.2-0.9-0.7-1s-0.9,0.2-1,0.7l-2.1,11l-3.4,1.7l1.9-9.7c0.1-0.5-0.2-0.9-0.7-1s-0.9,0.2-1,0.7l-2.1,11l-3.4,1.7
										l1.9-9.7c0.1-0.5-0.2-0.9-0.7-1s-0.9,0.2-1,0.7l-2.1,11l-3.4,1.7l1.9-9.7c0.1-0.5-0.2-0.9-0.7-1s-0.9,0.2-1,0.7l-2.1,11
										l-11.9,5.9c-0.9-1.8-2.2-3.2-3.9-3.9c-0.4-0.1-0.9,0-1.1,0.5C106.2,157.2,106.4,157.7,106.8,157.8z"/>
									<path class="st5" d="M64.9,165.6c0.5,0.1,0.9-0.1,1.1-0.5c0.1-0.5-0.1-0.9-0.5-1.1l0,0c-2.9-1-8.6,2.9-14.6,7
										c-4.4,3-8.9,6.1-11.1,6.3c-3.5,0.3-6.1-0.6-7.7-2.9c-4.4-6.1-1.3-20.9,1.7-29c0.3,1.6,0.6,3.7,1,6.1
										c0.4,2.9,0.9,6.2,1.6,9.9c1.6,9.1,4.8,10.1,6.5,9.9c2.1-0.3,3.8-2.5,4.4-5.3c0.6,0.5,1.2,0.9,1.9,1.2c1,0.3,2,0.3,3-0.1
										c2.3-0.9,3.5-3.6,3.2-7.1c-0.2-2.7-0.7-7.2-1.2-11.2c-0.3-2.8-0.6-5.4-0.8-7.1c-0.3-3.8-0.3-7.2,0.1-10.2
										c0.3-2.1,2.1-6.3,5.8-8.6c2.7-1.7,5.8-2,9.3-0.8c0.5,0.2,0.9-0.1,1.1-0.5c0.2-0.5-0.1-0.9-0.5-1.1l0,0
										c-3.9-1.3-7.6-1-10.7,1c-4.2,2.6-6.2,7.3-6.6,9.8c-0.4,3.2-0.4,6.7-0.1,10.6c0.1,1.7,0.5,4.3,0.8,7.1c0.5,4,1,8.5,1.2,11.1
										c0.2,3.2-1,4.9-2.2,5.4c-1.1,0.5-2.4,0.1-3.4-1.1c-0.3-0.3-0.7-1.6-0.9-2.7c-1.3-7.7-3.1-18.5-3.1-18.6
										c-0.1-0.5-0.5-0.8-1-0.7s-0.8,0.5-0.7,1c0,0.1,1.7,10.7,3.1,18.5l0,0c0,0,0,0.1,0,0.2c0.1,0.3,0.1,0.6,0.2,0.9
										c0,0.1,0,0.3,0,0.4v0.3c0.2,3-1.5,5.7-3,5.9c-1.4,0.2-3.4-2-4.6-8.5c-0.7-3.7-1.1-7-1.6-9.9c-0.7-4.6-1.1-7.6-1.8-8.9
										c-0.1-0.3-0.5-0.5-0.8-0.5s-0.6,0.2-0.8,0.5c-2,4.5-8.6,24.4-2.5,33c1.1,1.5,2.5,2.6,4.2,3.2c1.5,0.5,3.1,0.7,5,0.5
										c2.6-0.2,7.1-3.3,11.9-6.5C56.7,169.1,62.8,164.9,64.9,165.6z"/>
									<path class="st5" d="M88,158c-0.3,0.1-0.6,0.4-0.6,1.1c0.1,1,0.2,3,0.4,5.3c0.2,2.8,0.5,6.1,0.5,7.4c0.2,4-0.5,4.8-1.3,5
										c-0.5,0.1-0.8,0-0.9-0.1c-0.6-0.4-1.4-2.1-1.6-7.4l0,0c-0.1-1.5-0.3-3.1-0.4-4.6c-0.1-1.1-0.2-2.1-0.3-3.1
										c0-0.5-0.5-0.8-0.9-0.8c-0.5,0-0.8,0.5-0.8,0.9c0.1,1,0.2,2.1,0.3,3.1c0.3,2.8,0.6,5.6,0.5,8.2c-0.1,2.5-0.3,4.6-2,6.6
										c-0.4,0.4-1.8,1.4-2.7,1.1l0,0c-0.7-0.2-1.2-1.3-1.4-2.9c-0.5-4-1.3-12.1-1.3-12.2c0-0.5-0.5-0.8-0.9-0.8
										c-0.5,0-0.8,0.5-0.8,0.9c0,0.1,0.8,8.2,1.3,12.2c0.3,2.4,1.1,3.8,2.5,4.3h0.1c1.8,0.6,3.8-0.9,4.5-1.7
										c1-1.2,1.6-2.5,1.9-3.8c0.3,0.5,0.6,0.9,1,1.1c0.2,0.2,0.4,0.3,0.7,0.4c0.5,0.2,1.1,0.2,1.7,0c2.5-0.7,2.7-3.6,2.6-6.7
										c-0.1-1.4-0.3-4.6-0.5-7.5c-0.1-1.3-0.2-2.6-0.3-3.6c0.8,0.6,1.9,1.2,3.1,0.8c1.2-0.5,2.2-1.7,2.9-3
										c0.1,1.3,0.3,2.9,0.4,4.3c0.2,2.3,0.4,4.5,0.6,5.9c0.3,1.6,1.3,2.8,2.7,3.2c1.5,0.4,3.1-0.3,4.2-1.7c2-2.5,1.9-6.2,1.7-8.7
										c0-0.5-0.5-0.8-0.9-0.8c-0.5,0-0.8,0.5-0.8,0.9c0.3,3.5-0.1,5.9-1.3,7.4c-0.7,0.9-1.6,1.3-2.5,1.1
										c-0.7-0.2-1.2-0.8-1.4-1.8c-0.2-1.3-0.4-3.5-0.6-5.7c-0.3-3-0.5-6.1-1-7.9c-0.1-0.4-0.5-0.7-0.9-0.7s-0.8,0.4-0.8,0.8
										c0,0.9-1.4,4.3-3,4.9c-0.7,0.2-1.5-0.6-2.1-1.1C89.1,158.1,88.6,157.7,88,158z"/>
									<path class="st5" d="M151.2,178.2c-0.6-2.4-2.6-3.9-5.6-4.2c-0.9-0.1-1.8,0-2.6,0.1c-2.2,0.2-3,0.2-3.5-1.2
										c-0.3-0.9,0.1-1.6,0.6-2.1c0.8-0.9,2.2-1.4,3.2-1.2c0.7,0.1,1.1,0.6,1.4,1.4c0.1,0.5,0.6,0.7,1.1,0.6
										c0.5-0.1,0.7-0.6,0.6-1.1c-0.4-1.4-1.4-2.3-2.6-2.6c-1.6-0.4-3.6,0.3-4.8,1.7c-1,1.1-1.3,2.5-0.9,3.8
										c0.9,2.8,3.4,2.5,5.3,2.4c0.8-0.1,1.5-0.1,2.3-0.1c2.2,0.2,3.7,1.2,4.1,2.8c0.4,1.8-0.5,4-2.2,5c-1.6,1-3.2,1.2-4.4,0.5
										c-1-0.6-1.6-1.7-1.5-2.7c0.1-0.7,0.4-1.2,1.1-1.4l0.1-0.1l0.1-0.1l0.1-0.1l0.1-0.1c0,0,0-0.1,0-0.2c0-0.1,0-0.1,0-0.2
										c0-0.1,0-0.1,0-0.2v-0.1l0,0l0,0c0,0,0-0.1-0.1-0.1c0-0.1-0.1-0.1-0.1-0.2l-0.1-0.1c0,0-0.1-0.1-0.2-0.1h-0.1
										c-0.1,0-0.1,0-0.2,0c-0.1,0-0.1,0-0.2,0c-0.1,0-0.1,0-0.2,0l0,0l0,0c0,0-0.1,0-0.1,0.1c-2.4,0.8-3,4-3.4,6.6
										c-0.2,0.8-0.3,1.6-0.5,2.2c-0.4,1.1-1.2,1.7-1.7,1.7c-0.2,0-0.4-0.2-0.4-0.6c-0.2-1.2-0.4-2.8-0.7-4.4
										c-0.6-4.4-1-7.2-1.6-8.1c-0.6-1.1-1.6-1.8-2.7-1.8c-1.3,0-2.5,0.9-3.3,2.3c-0.7,1.2-1.1,2.4-1.4,3.9
										c-0.1-0.3-0.2-0.5-0.3-0.7c-0.6-1.1-1.6-1.7-2.6-1.7c-1.3,0-2.5,0.8-3.4,2.3c-0.5,0.9-0.9,1.9-1.1,3.1
										c-0.2-1.3-0.4-2.4-0.4-2.6c0-0.5-0.5-0.8-0.9-0.8c-0.5,0-0.8,0.5-0.8,0.9c0,0.3,0.2,1.6,0.6,3.8c0.6,3.6,1.4,9,1.4,10
										c0.1,2.7-1.2,4.4-2.4,4.5c-1,0.1-1.7-0.6-2.1-2c-0.7-2.9-1.5-8.2-1.9-13.6c0-0.5-0.5-0.8-0.9-0.8c-0.5,0-0.8,0.5-0.8,0.9
										c0.1,1.1,0.2,2.2,0.3,3.3c-0.5-0.5-1-1-1.6-1.2c-0.8-0.4-2.2-0.5-3.9,0.7c-1.4,1-2.3,2.9-2.6,5.7c-0.2,1.5,0,4.5,0.7,7.1
										c-0.1,2.7-1.3,6.4-4.2,8c-1.2,0.6-2.3,0.7-3.3,0.3c-0.5-0.2-0.9-0.6-1.2-1c2.2-4.5,4.6-10.4,3.6-13.3
										c-0.3-0.9-0.9-1.5-1.8-1.7c-1.3-0.3-2.6,0-3.6,0.9c-2.1,2-2.7,6.4-2.2,9.5c0.3,1.5,0.9,3.3,1.9,4.8c-1,1.9-1.9,3.4-2.4,4
										c-0.7,0.9-1.5,1.3-2.2,1.1c-0.6-0.2-1.1-0.8-1.3-1.8c-0.3-1.3-0.4-3.5-0.6-5.9c-0.2-2.9-0.5-5.9-0.9-7.6
										c-0.1-0.4-0.5-0.7-0.9-0.6c-0.4,0.1-0.8,0.4-0.7,0.9c0,0.8-1.2,4.1-2.6,4.6c-0.6,0.2-1.5-0.7-2-1.2s-1-1-1.7-0.7
										c-0.2,0.1-0.6,0.4-0.6,1.1c0,0.1,0.6,11.4,0.5,13.7c0,2.9-0.7,4.7-1.8,4.9c-0.2,0-0.3,0-0.5-0.2c-0.4-0.4-1.2-1.6-1.4-5.8
										c0-0.2-1.2-15.6-1.4-19.5c10.2-4.6,20.1-10.6,24.2-16.8c0.3-0.4,0.2-0.9-0.2-1.2c-0.4-0.3-0.9-0.2-1.2,0.2
										c-5.3,7.9-20.6,15.6-33.4,20.3c0-0.3,0-0.6,0-0.9c0-4.5-0.6-10.2-1.1-15.3c-0.2-2.4-0.5-4.6-0.6-6.6c0-0.5-0.5-0.8-0.9-0.8
										c-0.5,0-0.8,0.5-0.8,0.9c0.1,1.9,0.4,4.2,0.6,6.6c0.2,2.3,0.5,4.8,0.7,7.3c-1.4,3.6-3.6,5.3-4.9,5.1
										c-1.1-0.1-1.8-1.4-2-3.5c-0.1-1-0.2-3.6-0.3-5.5c-0.1-1.2-0.1-2.1-0.1-2.3c-0.2-1.9-1.1-2.7-1.8-2.9
										c-1.3-0.5-2.8,0.1-3.7,0.9c-4.3,3.4-5.4,8.4-3.9,11.2c0.4,0.9,1.1,1.5,1.9,1.7c0.6,0.2,1.2,0.2,1.8,0
										c0.5-0.1,0.7-0.6,0.6-1.1c-0.1-0.5-0.6-0.7-1.1-0.6c-0.7,0.2-1.3-0.1-1.7-0.9c-0.9-1.8-0.5-6,3.4-9.1
										c0.6-0.5,1.5-0.8,2-0.7l0,0c0.5,0.2,0.7,1.1,0.7,1.6c0,0.2,0.1,1.1,0.1,2.2c0.1,1.9,0.2,4.6,0.3,5.6c0.4,4.1,2.6,4.9,3.5,5
										c1.9,0.3,3.9-1.1,5.4-3.5c0.1,1.6,0.2,3.1,0.2,4.5c0,0.5,0,1,0,1.5c-0.7,0.2-1.3,0.5-1.9,0.7c-2,0.7-5.6,2.3-6.8,5.1
										c-0.6,1.5-0.4,3.1,0.4,4.7c0.4,0.8,1.2,1.4,2,1.7c0.7,0.2,1.4,0.3,2.2,0.1c1.2-0.3,5-2,5.7-11.1c2.9-1.1,6-2.3,9.1-3.6
										c0.1,2.8,0.5,8.4,0.9,12.8c-0.5-0.7-1.1-1.3-1.9-1.6c-0.9-0.4-2.4-0.6-4.3,0.7c-1.6,1.1-2.5,3-3,5.9c-0.4,2.4,0,8.3,2.1,11
										c0.5,0.7,1.1,1.1,1.8,1.3c0.2,0.1,0.5,0.1,0.8,0.2c1.5,0.1,2.9-0.5,4-1.7c0.9-1,1.6-2.3,2-3.9c0.3,0.5,0.5,0.9,0.9,1.2
										c0.2,0.2,0.5,0.4,0.8,0.5s0.7,0.1,1,0.1c1.5-0.2,3.2-1.4,3.3-6.5c0-1.8-0.3-8.9-0.5-12.2c0.8,0.7,1.9,1.3,3,0.9
										c1-0.4,1.9-1.5,2.5-2.6c0.1,1.2,0.2,2.6,0.3,3.9c0.2,2.4,0.4,4.6,0.7,6.1c0.3,1.7,1.3,2.8,2.6,3.1c1.3,0.3,2.8-0.3,4-1.7
										c0.4-0.5,1.2-1.9,2.2-3.7c0.4,0.4,0.8,0.7,1.3,0.9c1.5,0.7,3.1,0.6,4.8-0.3c2.5-1.3,4-3.9,4.7-6.4c0.1,0.2,0.3,0.5,0.5,0.7
										c0.5,0.7,1.1,1.1,1.8,1.3c0.2,0.1,0.4,0.1,0.6,0.1c1.4,0.2,2.7-0.3,3.7-1.4c0.9-0.9,1.5-2.3,1.9-4c0.5,0.9,1.2,1.4,1.9,1.6
										c0.5,0.2,1,0.2,1.5,0.1c2.1-0.3,4.1-2.6,3.9-6.3c0-0.6-0.3-2.2-0.6-4.5c0.2-4.3,0.5-7.2,1.6-9c0.5-0.9,1.3-1.4,1.9-1.4
										c0.4,0,0.8,0.3,1.1,0.9c0.4,0.6,0.8,2.7,1.3,5.2l0,0c0,0.1,0,0.2,0.1,0.4c0.5,2.8,1,6.2,1.3,8.6c0,0.3,0.3,0.6,0.6,0.7
										c0.1,0,0.2,0.1,0.4,0c0.5-0.1,0.8-0.5,0.7-1c-0.1-0.8-0.6-5.1-1.3-8.9c0.2-4.1,0.6-6.2,1.7-8.2c0.5-0.9,1.2-1.4,1.8-1.4
										s1,0.5,1.2,0.9c0.4,0.7,1,4.6,1.4,7.5c0.2,1.7,0.5,3.3,0.7,4.5c0.2,1,0.7,1.7,1.5,1.9c0.2,0.1,0.3,0.1,0.5,0.1
										c1.4,0.1,2.8-1.1,3.4-2.8c0.2-0.7,0.4-1.5,0.5-2.4c0.1-0.5,0.2-1,0.3-1.4c0.4,0.7,1,1.3,1.7,1.7c0.3,0.2,0.6,0.3,1,0.5
										c1.6,0.5,3.5,0.2,5.3-0.9C150.6,183.6,151.8,180.7,151.2,178.2z M55.4,207.4c-1,0.2-1.9-0.1-2.3-0.9
										c-0.6-1.2-0.7-2.3-0.3-3.3c0.9-2.3,4.3-3.6,5.7-4.1c0.4-0.1,0.8-0.3,1.3-0.4C59.2,204.3,57.2,206.9,55.4,207.4z
										 M69.8,221.7c-0.8,0.8-1.7,1.2-2.7,1.1c-0.5,0-0.9-0.3-1.3-0.8c-1.7-2.2-2.1-7.5-1.8-9.6c0.4-2.4,1.1-4,2.3-4.7
										c1-0.7,1.9-0.9,2.6-0.5c1.5,0.6,2.5,3.2,2.8,5.3C72.2,216.3,71.5,219.9,69.8,221.7z M93.6,204.7c-0.5-1-0.9-2.2-1.1-3.2
										c-0.5-2.6,0.1-6.5,1.6-8c0.6-0.5,1.2-0.7,2-0.5c0,0,0,0,0.1,0c0.2,0.1,0.4,0.2,0.5,0.6C97.4,195.6,95.6,200.6,93.6,204.7z
										 M110,201.8c-0.6,0.7-1.4,1-2.2,0.9c-0.4-0.1-0.8-0.3-1.2-0.8c-1.7-2.2-2.3-7.4-2-9.6c0.3-2.3,0.9-3.8,1.9-4.5
										c0.8-0.6,1.5-0.7,2.1-0.5h0.1c1.4,0.6,2.5,3.2,2.9,5.4C112.1,196.5,111.6,200.1,110,201.8z"/>
									<path class="st5" d="M59.3,141.8c-1.4,1-2.2,2.8-2.5,5.6c-0.3,2.6,0.5,10.9,4.1,12.1c0.2,0.1,0.4,0.1,0.6,0.1
										c1.3,0.2,2.6-0.3,3.5-1.3c0.9-0.9,1.5-2.3,1.8-3.8c0.2,0.4,0.3,0.7,0.5,0.9c0.3,0.4,0.7,0.6,1.1,0.8
										c0.7,0.2,1.5,0.2,2.2-0.2c1.7-0.8,3.4-3.2,2.7-7.5c-0.1-0.7-0.3-2.3-0.5-4.4c2.4-2.7,3.6-2.7,4-2.6l0,0
										c1.2,0.4,1.7,3.5,2,5.5l0.1,0.9c0.2,1.4,1,2,1.5,2.1h0.1c1,0.3,2.3-0.3,3.2-1.4c0.8-1,1.7-2.3,2.5-3.9
										c0.3,0.2,0.7,0.5,1.1,0.6c1.5,0.7,3.2,0.6,4.9-0.4c3-1.6,4.5-4.5,4.6-8.6c0-0.5-0.4-0.9-0.9-0.9s-0.9,0.4-0.9,0.9
										c0,3.5-1.2,5.8-3.6,7.1c-1.3,0.7-2.4,0.8-3.4,0.3c-0.4-0.2-0.7-0.4-1-0.7c2.4-5,4.4-11.3,3.3-13.9c-0.3-0.8-1-1.4-1.8-1.5
										c-1.4-0.2-2.6,0.3-3.6,1.4c-2.2,2.4-2.6,7.3-2,9.7c0.2,0.8,0.8,2.9,2.1,4.6c-0.8,1.6-1.7,3.1-2.6,4.1
										c-0.5,0.6-1.1,0.9-1.4,0.8c-0.3,0-0.4-0.6-0.4-0.8l-0.1-0.9c-0.4-2.8-1-6.2-3.1-6.9h-0.1c-0.3-0.1-0.5-0.1-0.8-0.1
										c1.2-2,1.5-3.4,1.7-4.4c0.2-1.1,0.4-1.8,1.7-3.1c0.3-0.3,0.4-0.9,0-1.2c-0.3-0.3-0.9-0.4-1.2,0c-1.8,1.6-2,2.8-2.2,4
										c-0.3,1.3-0.6,2.9-3,6.1c-0.3,0.2-0.5,0.5-0.8,0.7c-0.7-6.6-1.6-15.4-1.6-15.5c0-0.5-0.5-0.8-0.9-0.8
										c-0.5,0-0.8,0.5-0.8,0.9c0.1,0.8,1.9,19.3,2.4,22.2c0.5,3.4-0.6,5.2-1.7,5.7c-0.5,0.2-1,0.2-1.3-0.1c-1-1.2-1.6-7.5-2-12.5
										c-0.1-1-0.2-2.1-0.3-3.1c0-0.5-0.5-0.8-0.9-0.8c-0.5,0-0.8,0.5-0.8,0.9c0.1,1,0.2,2,0.3,3.1c0,0.3,0.1,0.6,0.1,0.9
										c-0.5-0.8-1.2-1.4-2-1.7C62.2,140.9,60.9,140.7,59.3,141.8z M84.6,138.6c-0.5-2.1-0.1-6.3,1.6-8.2c0.6-0.7,1.3-1,2.1-0.9
										h0.1c0.1,0,0.2,0.1,0.3,0.4c0.8,1.9-0.8,7.2-2.9,11.8C85.3,140.7,84.8,139.6,84.6,138.6z M65.2,148.1
										c0.7,3.9,0.1,7.5-1.5,9.2c-0.6,0.6-1.3,0.9-2.1,0.8c-2.2-0.3-3.6-7.2-3.2-10.4c0.3-2.3,0.9-3.7,1.8-4.4
										c0.8-0.6,1.5-0.7,2.1-0.5C63.8,143.4,64.8,145.9,65.2,148.1z"/>
									<path class="st5" d="M68.8,169.4c-0.8-0.4-2.1-0.5-3.8,0.6c-1.4,1-2.3,2.8-2.6,5.7c-0.3,2.6,0.4,10.6,4.1,11.8
										c0.2,0.1,0.4,0.1,0.6,0.1c1.4,0.2,2.7-0.3,3.7-1.4c1.9-2,2.6-5.9,1.8-10.3C72.3,173.5,71,170.3,68.8,169.4z M69.6,185.1
										c-0.6,0.7-1.4,0.9-2.2,0.8c-2.5-0.3-3.5-7.3-3.2-10.1c0.3-2.3,0.9-3.8,1.9-4.5c0.8-0.5,1.4-0.7,2-0.5h0.1
										c1.4,0.6,2.5,3.2,2.8,5.3C71.7,180.1,71.1,183.5,69.6,185.1z"/>
								</g>
							</g>
							<g>
								<path class="st5" d="M1003.1,147.3c-0.8-2.7-2.7-5-5.1-6.3l-95.7-51.6c-5.2-2.8-11.6-0.9-14.4,4.3l-51.6,95.7
									c-2.8,5.2-0.9,11.6,4.3,14.4l56.9,30.7c4,2.1,8.3,3.2,12.6,3.2c15.1-0.1,34.1-5.1,49.5-13c4.6-2.3,8.3-5.9,10.7-10.4
									l31.9-58.8C1003.6,152.9,1003.9,150,1003.1,147.3z"/>
								<g>
									<path class="st6" d="M993.7,150.7c0.1-0.2,0.1-0.4,0.1-0.7c-0.1-0.2-0.2-0.4-0.4-0.5L897.6,98c-0.4-0.2-0.9-0.1-1.2,0.4
										L844.9,194c-0.2,0.4-0.1,0.9,0.4,1.2l56.9,30.7c2.5,1.4,5.3,2.1,7.9,2c13.5-0.1,31.2-4.8,45.1-11.9c2-1,3.8-2.5,5.1-4.2
										l0.1-0.1c0.5-0.6,1-1.3,1.3-2.1L993.7,150.7z M846.8,194.1l50.8-94.2l94.2,50.8l-31.5,58.1c-0.3,0.6-0.7,1.2-1.1,1.7
										c-11.3,5.7-31.2-14.1-31.4-14.3s-0.5-0.3-0.8-0.2s-0.5,0.3-0.6,0.6s-10.1,29.3-22.1,28.4l0,0c-0.4-0.2-0.8-0.4-1.2-0.6
										L846.8,194.1z M910.1,226.2c-0.6,0-1.3,0-2-0.1c9.9-3.7,17.5-22.5,19.4-27.7c3.9,3.7,18.2,16.4,29.1,14.7
										c-0.7,0.5-1.4,1-2.1,1.4C940.7,221.4,923.3,226.1,910.1,226.2z"/>
									<g>
										<path class="st6" d="M908.1,135.1L908.1,135.1c1.5-2.8,0.5-5.2-3.2-8.4c-3.4-2.9-4.2-4.5-3.2-6.5v-0.1
											c1-1.8,3.4-2.2,5.8-1c0,0,0,0,0.1,0c1.9,1,3.3,2.6,4.3,4.8l1.8-0.8c-1.1-2.5-2.7-4.2-5.1-5.5h-0.1
											c-1.7-0.9-3.5-1.2-5.1-0.9c-1.6,0.3-2.8,1.3-3.6,2.6v0.1c-1.5,2.9-0.6,5.2,3.4,8.5c3.3,2.8,4.1,4.4,3,6.4v0.1
											c-0.5,0.9-1.4,1.6-2.5,1.8s-2.4-0.1-3.6-0.7c0,0,0,0-0.1,0c-2.4-1.3-3.9-3.1-5-6l-1.8,0.7c1.2,3.1,3,5.3,5.8,6.8h0.1
											C902.9,138.9,906.5,138.2,908.1,135.1z"/>
										<path class="st6" d="M923.7,128.2L923.7,128.2C923.7,128.2,923.8,128.2,923.7,128.2c0.1,0.1,0.1,0.2,0.1,0.2L915,145
											l1.8,1l8.8-16.6l0.1-0.1h0.1l6.2,3.3l0.9-1.7l-14.4-7.7l-0.9,1.7L923.7,128.2z"/>
										
											<rect x="922.5" y="141.6" transform="matrix(0.4694 -0.883 0.883 0.4694 369.022 899.4938)" class="st6" width="20.9" height="2.1"/>
										<path class="st6" d="M942.8,160.2C942.8,160.3,942.8,160.3,942.8,160.2c3.7,2,6.6,1.5,9,0.8l-0.6-1.8
											c-2.5,0.7-4.8,0.8-7.5-0.6l0,0c-2-1.1-3.4-2.9-4-5.1c-0.6-2.2-0.3-4.6,0.9-6.7v-0.1c2.4-4.5,7.3-6.1,11.6-3.9
											c0,0,0,0,0.1,0c2.8,1.5,3.9,3.8,4.5,5.6l2-0.7c-0.8-2.3-2.1-4.7-5.5-6.6h-0.1c-2.6-1.4-5.5-1.6-8.2-0.7
											c-2.6,0.9-4.8,2.8-6.2,5.3v0.1C935.8,151.3,937.6,157.4,942.8,160.2z"/>
										<path class="st6" d="M967.3,159.4l12-3.8l-2.3-1.2l-16.6,5.4c-0.1,0-0.1,0-0.2-0.1c0-0.1-0.1-0.1,0-0.2l5.9-11l-1.8-1
											l-9.8,18.4l1.8,1l2.6-4.9l0.1-0.1l6.1-1.9h0.1l0.1,0.1l2.4,12.8l2.3,1.2L967.3,159.4C967.2,159.5,967.2,159.4,967.3,159.4
											z"/>
										<path class="st6" d="M897.9,167.6c-0.1,0-0.1-0.1-0.1-0.2l3.2-18.3l-1.5-0.8l-13.4,12.8c-0.1,0.1-0.1,0.1-0.2,0l0,0
											c-0.1,0-0.1-0.1-0.1-0.2l2.9-18.3l-2-1.1l-3.3,22.1l1.6,0.8l13.2-12.4c0.1,0,0.1-0.1,0.2,0l0,0c0.1,0,0.1,0.1,0.1,0.2
											l-2.9,17.8l1.6,0.8l16.5-15.1l-1.9-1l-13.6,12.7C898.1,167.7,898,167.7,897.9,167.6z"/>
										
											<rect x="903.2" y="166.8" transform="matrix(0.4694 -0.883 0.883 0.4694 336.5682 895.8539)" class="st6" width="20.9" height="2.1"/>
										<path class="st6" d="M923.4,161.2l-0.9,1.7l6.2,3.3l0,0l0.1,0.1v0.1L920,183l1.8,1l8.8-16.6c0-0.1,0.1-0.1,0.2-0.1
											l6.2,3.3l0.9-1.7L923.4,161.2z"/>
										<path class="st6" d="M954.7,177.8l-4.3,8.2c0,0.1-0.1,0.1-0.2,0.1l-10.8-5.7l0,0l-0.1-0.1v-0.1l4.3-8.2l-1.8-1l-9.8,18.4
											l1.8,1l4.4-8.3l0.1-0.1h0.1l10.8,5.7l0,0c0.1,0,0.1,0.1,0.1,0.2l-4.4,8.3l1.8,1l9.8-18.4L954.7,177.8z"/>
										<path class="st6" d="M889.2,178.3l-12.2,6.6c0,0-0.1,0-0.2,0l0,0l-0.1-0.1l-1.4-13.8l-1.9-1l-9.8,18.4l1.8,0.9l8-15
											c0-0.1,0.1-0.1,0.2-0.1c0.1,0,0.1,0.1,0.1,0.1l1.5,13.5l12-6.3c0.1,0,0.1,0,0.2,0c0.1,0.1,0.1,0.1,0,0.2l-8,15l1.8,1
											l9.8-18.4L889.2,178.3z"/>
										<path class="st6" d="M890,200.3L890,200.3c-0.1,0-0.1-0.1-0.1-0.2l3.5-6.6l0.1-0.1h0.1l10.1,5.4l0.9-1.6l-10.1-5.4l0,0
											c-0.1,0-0.1-0.1-0.1-0.2l3.4-6.4l0.1-0.1h0.1l11.3,6l0.9-1.6l-13.2-7l-9.8,18.4l13.4,7.1l0.9-1.6L890,200.3z"/>
										<polygon class="st6" points="907.9,205.1 908.8,205.6 915.7,194.1 916.4,192.8 914.3,191.6 913.6,193 										"/>
										
											<rect x="904.9" y="208.2" transform="matrix(0.4697 -0.8828 0.8828 0.4697 295.7231 911.2115)" class="st6" width="2.9" height="2.5"/>
									</g>
								</g>
							</g>
							<g>
								<path class="st6" d="M536.8,344.7l-5.7-7.7c-1.7-2.4-4.3-3.9-7.2-4.3L350,307c-2.9-0.4-5.8,0.3-8.2,2.1l-7.7,5.7
									c-2.4,1.8-3.9,4.3-4.3,7.2l-5.8,39.3c-0.4,2.9,0.3,5.8,2,8.2l5.7,7.7c1.8,2.4,4.3,3.9,7.2,4.3l173.9,25.7
									c2.9,0.4,5.8-0.3,8.2-2l7.7-5.7c2.3-1.7,3.9-4.4,4.3-7.2l5.8-39.3C539.2,350,538.5,347.1,536.8,344.7z"/>
								<path class="st5" d="M529.2,350.3l-5.7-7.7c-0.3-0.4-0.6-0.6-1.1-0.6l-173.9-25.7c-0.4-0.1-0.9,0-1.2,0.3l-7.7,5.7
									c-0.4,0.3-0.6,0.6-0.6,1.1l-5.8,39.3c-0.1,0.4,0,0.9,0.3,1.2l5.7,7.7c0.3,0.4,0.6,0.6,1.1,0.6l173.9,25.7
									c0.4,0.1,0.9,0,1.2-0.3l7.7-5.7c0.3-0.3,0.6-0.7,0.6-1.1l5.8-39.3C529.6,351.1,529.5,350.7,529.2,350.3z M522,390.4
									l-7.6,5.6l-14.9-2.2l7.7-52.3l14.9,2.2l5.6,7.5L522,390.4z M505.3,341.3l-7.7,52.3l-140.2-20.7l7.7-52.3L505.3,341.3z
									 M363.3,320.3l-7.7,52.3l-15-2.2l-5.6-7.5l5.7-39.1l7.5-5.6L363.3,320.3z"/>
								<path class="st5" d="M345.4,332.9l1.5,0.2h0.1c0,0,0,0,0-0.1l0.6-4.4l1.2,2c1.2,2,1.9,2.9,3.5,3.1l0,0l0,0
									c0.9,0.1,1.7-0.1,2.3-0.6c0.6-0.5,1-1.3,1.2-2.3c0.3-1.8-0.4-2.9-1.5-4h-0.1l-1.1,1.1c0,0,0,0,0,0.1v0.1
									c0.9,0.9,1.2,1.6,1.1,2.4c-0.1,0.9-0.8,1.4-1.6,1.3l0,0c-0.9-0.1-1.4-0.8-2.3-2.2l-2.4-3.8c0,0,0,0-0.1,0l-1.3-0.2h-0.1
									c0,0,0,0,0,0.1l-1,7C345.3,332.9,345.3,332.9,345.4,332.9z"/>
								<path class="st5" d="M348.7,344.4L348.7,344.4L348.7,344.4c3,0.4,5.4-1.1,5.8-3.6s-1.5-4.7-4.5-5.1l0,0l0,0
									c-1.4-0.2-2.7,0-3.8,0.6c-1.1,0.6-1.8,1.7-2,2.9c-0.2,1.2,0.2,2.4,1,3.4C346.1,343.6,347.3,344.2,348.7,344.4z M345.9,339.6
									c0.1-0.7,0.5-1.2,1.2-1.6c0.7-0.3,1.6-0.4,2.5-0.3l0,0l0,0c1.9,0.3,3.2,1.5,3,2.9s-1.8,2.2-3.7,1.9l0,0
									C347,342.2,345.7,341,345.9,339.6z"/>
								<path class="st5" d="M349.6,351.5L349.6,351.5c-0.9-0.1-1.4-0.8-2.3-2.2l-2.4-3.8c0,0,0,0-0.1,0l-1.3-0.2h-0.1
									c0,0,0,0,0,0.1l-1,7c0,0.1,0,0.1,0.1,0.1l1.5,0.2h0.1c0,0,0,0,0-0.1l0.6-4.4l1.2,2c1.2,2,1.9,2.9,3.5,3.1l0,0l0,0
									c0.9,0.1,1.7-0.1,2.3-0.6c0.6-0.5,1-1.3,1.2-2.3c0.3-1.8-0.4-2.9-1.5-4h-0.1l-1.1,1.1c0,0,0,0,0,0.1v0.1
									c0.9,0.9,1.2,1.6,1.1,2.4C351.1,351.2,350.5,351.7,349.6,351.5z"/>
								<path class="st5" d="M348.1,361.6L348.1,361.6c-0.9-0.1-1.4-0.8-2.3-2.2l-2.4-3.8c0,0,0,0-0.1,0l-1.3-0.2h-0.1
									c0,0,0,0,0,0.1l-1,7c0,0.1,0,0.1,0.1,0.1l1.5,0.2h0.1c0,0,0,0,0-0.1l0.6-4.4l1.2,2c1.2,2,1.9,2.9,3.5,3.1l0,0l0,0
									c0.9,0.1,1.7-0.1,2.3-0.6c0.6-0.5,1-1.3,1.2-2.3c0.3-1.8-0.4-2.9-1.5-4h-0.1l-1.1,1.1c0,0,0,0,0,0.1v0.1
									c0.9,0.9,1.2,1.6,1.1,2.4C349.7,361.1,349,361.7,348.1,361.6z"/>
								<path class="st5" d="M370.9,363.4c0.1,0,0.1,0,0.1-0.1l1.2-7.9l8.8-6.8l10.3,17.9c0,0,0,0,0.1,0l2.8,0.4h0.1v-0.1L383,347.1
									l15.5-11.9v-0.1c0,0,0-0.1-0.1-0.1l-2.9-0.4h-0.1l-22.8,17.8l3-20.7c0-0.1,0-0.1-0.1-0.1l-2.2-0.3c-0.1,0-0.1,0-0.1,0.1
									l-4.6,31.5c0,0.1,0,0.1,0.1,0.1L370.9,363.4z"/>
								<path class="st5" d="M397,345.4C396.9,345.4,396.9,345.4,397,345.4l-1.4,1.7c0,0,0,0,0,0.1v0.1l4.6,3.1l-5.3,1.7
									c0,0,0,0-0.1,0.1v0.1l0.8,2c0,0,0,0,0.1,0.1h0.1l4.9-2.4l-1.1,5.2v0.2v0.1c0,0,0,0,0.1,0l2,0.3h0.1c0,0,0,0,0-0.1l0.4-5.5
									l4,3.7c0,0,0,0,0.1,0h0.1l1.3-1.7c0,0,0,0,0-0.1V354l-4.6-3.1l5.3-1.7c0,0,0,0,0.1-0.1V349l-0.8-2c0,0,0,0-0.1-0.1h-0.1
									l-4.9,2.4l1.1-5.2v-0.2v-0.1c0,0,0,0-0.1,0l-2-0.3h-0.1c0,0,0,0,0,0.1l-0.4,5.5L397,345.4L397,345.4z"/>
								<path class="st5" d="M414.5,369.8c0.1,0,0.1,0,0.1-0.1l4.1-28l17.7,31.2c0,0,0,0,0.1,0l1.6,0.2c0.1,0,0.1,0,0.1-0.1
									l4.6-31.5c0-0.1,0-0.1-0.1-0.1l-2.1-0.3c-0.1,0-0.1,0-0.1,0.1l-4,27.4L419.1,338c0,0,0,0-0.1,0l-2.1-0.3
									c-0.1,0-0.1,0-0.1,0.1l-4.6,31.5c0,0.1,0,0.1,0.1,0.1L414.5,369.8z"/>
								<path class="st5" d="M458.3,364.3c4.1,0.6,7.7-0.9,10.5-4.5l-0.2,1.1c-1.3,8.7-6.5,14.4-12.5,13.6c-2.7-0.4-5-1.9-7.3-4.7
									c0,0,0,0-0.1,0h-0.1l-1.6,1.5v0.1c2.7,3.1,5.4,4.8,8.7,5.3c3.5,0.5,7-0.7,9.7-3.5c2.8-2.8,4.7-6.9,5.4-11.7v-0.1
									c0.9-5.8,0.2-9.7-2.1-13c-1.7-2.4-4.4-3.9-7.4-4.4c-6.2-0.9-11.6,2.9-12.6,9v0.1C448.2,358.4,452.2,363.4,458.3,364.3z
									 M451.5,353.2L451.5,353.2c0.3-2.3,1.4-4.2,3.1-5.6c1.8-1.4,4-2,6.4-1.7c5,0.7,8.3,4.7,7.6,9.3v0.1c-0.3,2-1.4,3.9-3.1,5.1
									c-1.8,1.4-4.2,1.9-6.6,1.6C453.9,361.4,450.8,357.6,451.5,353.2z"/>
								<path class="st5" d="M485.3,350.1l-4.3,29.4c0,0.1,0,0.1,0.1,0.1l2.2,0.3c0.1,0,0.1,0,0.1-0.1l4.3-29.4l10.7,1.6
									c0.1,0,0.1,0,0.1-0.1l0.3-2c0-0.1,0-0.1-0.1-0.1l-23.8-3.5c-0.1,0-0.1,0-0.1,0.1l-0.3,2c0,0.1,0,0.1,0.1,0.1L485.3,350.1z"
									/>
								<path class="st5" d="M517.1,381.9l-1.5-0.2h-0.1c0,0,0,0,0,0.1l-0.6,4.4l-1.2-2c-1.2-2-1.9-2.9-3.5-3.1l0,0l0,0
									c-0.9-0.1-1.7,0.1-2.3,0.6s-1,1.3-1.2,2.3c-0.3,1.8,0.4,2.9,1.5,4h0.1l1.1-1.1c0,0,0,0,0-0.1v-0.1c-0.9-0.9-1.2-1.6-1.1-2.4
									c0.1-0.9,0.8-1.4,1.6-1.3l0,0c0.9,0.1,1.4,0.8,2.3,2.2l2.4,3.8c0,0,0,0,0.1,0l1.3,0.2h0.1c0,0,0,0,0-0.1l1-7
									C517.1,382,517.1,381.9,517.1,381.9z"/>
								<path class="st5" d="M513.7,370.5L513.7,370.5L513.7,370.5c-3-0.4-5.4,1.1-5.8,3.6s1.5,4.7,4.5,5.1l0,0l0,0
									c1.4,0.2,2.7,0,3.8-0.6s1.8-1.7,2-2.9c0.2-1.2-0.2-2.4-1-3.4C516.3,371.3,515.1,370.7,513.7,370.5z M516.4,375.3
									c-0.1,0.7-0.5,1.2-1.2,1.6c-0.7,0.3-1.6,0.4-2.5,0.3l0,0l0,0c-1.9-0.3-3.2-1.5-3-2.9s1.8-2.2,3.7-1.9l0,0
									C515.4,372.8,516.6,374,516.4,375.3z"/>
								<path class="st5" d="M512.7,363.4L512.7,363.4c0.9,0.1,1.4,0.8,2.3,2.2l2.4,3.8c0,0,0,0,0.1,0l1.3,0.2h0.1c0,0,0,0,0-0.1
									l1-7c0-0.1,0-0.1-0.1-0.1l-1.5-0.2h-0.1c0,0,0,0,0,0.1l-0.6,4.4l-1.2-2c-1.2-2-1.9-2.9-3.5-3.1l0,0l0,0
									c-0.9-0.1-1.7,0.1-2.3,0.6c-0.6,0.5-1,1.3-1.2,2.3c-0.3,1.8,0.4,2.9,1.5,4h0.1l1.1-1.1c0,0,0,0,0-0.1v-0.1
									c-0.9-0.9-1.2-1.6-1.1-2.4C511.2,363.8,511.9,363.3,512.7,363.4z"/>
								<path class="st5" d="M514.2,353.3L514.2,353.3c0.9,0.1,1.4,0.8,2.3,2.2l2.4,3.8c0,0,0,0,0.1,0l1.3,0.2h0.1c0,0,0,0,0-0.1
									l1-7c0-0.1,0-0.1-0.1-0.1l-1.5-0.2h-0.1c0,0,0,0,0,0.1l-0.6,4.4l-1.2-2c-1.2-2-1.9-2.9-3.5-3.1l0,0l0,0
									c-0.9-0.1-1.7,0.1-2.3,0.6c-0.6,0.5-1,1.3-1.2,2.3c-0.3,1.8,0.4,2.9,1.5,4h0.1l1.1-1.1c0,0,0,0,0-0.1v-0.1
									c-0.9-0.9-1.2-1.6-1.1-2.4C512.7,353.7,513.3,353.2,514.2,353.3z"/>
							</g>
						</g>
					</g>
				</g>
			</g>
		</g>
	</g>
</g>
<g>
	<text transform="matrix(1 0 0 1 640.0382 114.5171)" class="st7 st8">Amsterdam</text>
	<text transform="matrix(1 0 0 1 639.4493 147.6372)" class="st7 st8">01/06</text>
</g>
</svg>
